<svg width="200" height="200" viewBox="0 0 200 200" fill="none" xmlns="http://www.w3.org/2000/svg">
<mask id="path-1-inside-1_3_71" fill="white">
<path d="M147.327 6.27716C147.573 6.27716 147.819 6.27716 148.073 6.27716C148.492 8.0366 148.492 8.0366 148.073 8.87002C148.319 8.87002 148.565 8.87002 148.818 8.87002C148.818 9.23672 148.818 9.60342 148.818 9.98124C149.057 9.86665 149.295 9.75205 149.54 9.63398C151.025 9.12213 152.477 8.99831 154.036 8.87002C154.09 8.64083 154.144 8.41164 154.199 8.1755C154.409 7.38838 154.409 7.38838 154.782 6.64757C155.028 6.64757 155.274 6.64757 155.527 6.64757C155.527 7.13651 155.527 7.62545 155.527 8.1292C155.773 8.1292 156.019 8.1292 156.272 8.1292C156.272 8.37367 156.272 8.61814 156.272 8.87002C156.518 8.87002 156.764 8.87002 157.018 8.87002C157.018 9.23672 157.018 9.60342 157.018 9.98124C157.264 9.98124 157.51 9.98124 157.763 9.98124C157.763 10.3479 157.763 10.7146 157.763 11.0925C158.186 10.9626 158.609 10.8327 159.044 10.6989C160.797 10.2534 162.335 10.4216 164.099 10.7221C164.099 10.2331 164.099 9.74418 164.099 9.24042C164.468 9.24042 164.837 9.24042 165.217 9.24042C165.217 30.1425 165.217 51.0447 165.217 72.5802C163.618 72.7024 162.02 72.8247 160.372 72.9506C160.249 81.1403 160.126 89.33 159.999 97.7679C161.721 97.7679 163.443 97.7679 165.217 97.7679C165.217 120.748 165.217 143.728 165.217 167.405C162.422 167.96 162.422 167.96 159.627 168.516C159.126 168.698 158.628 168.89 158.136 169.095C156.97 169.547 156.048 169.745 154.782 169.627C154.674 169.864 154.566 170.101 154.455 170.345C154.036 171.109 154.036 171.109 153.291 171.479C152.421 171.494 151.551 171.495 150.682 171.479C150.682 171.724 150.682 171.968 150.682 172.22C150.19 172.22 149.698 172.22 149.191 172.22C149.068 172.464 148.945 172.709 148.818 172.961C148.595 172.884 148.372 172.808 148.143 172.729C147.221 172.477 147.221 172.477 146.209 173.331C145.208 173.377 145.208 173.377 144.346 173.331C144.346 173.698 144.346 174.065 144.346 174.442C143.818 174.39 143.29 174.335 142.762 174.28C142.468 174.25 142.174 174.22 141.871 174.189C141.057 174.081 140.292 173.916 139.5 173.702C139.378 173.946 139.255 174.191 139.128 174.442C138.912 174.421 138.695 174.399 138.473 174.377C136.715 174.242 136.715 174.242 135.118 174.855C134.935 175.024 134.751 175.194 134.562 175.368C133.537 176.294 133.537 176.294 132.466 176.41C132.204 176.372 131.943 176.334 131.674 176.294C131.586 176.533 131.499 176.772 131.409 177.018C130.928 177.776 130.928 177.776 130.122 178.002C129.819 178.019 129.516 178.036 129.204 178.054C128.9 178.075 128.595 178.096 128.281 178.118C128.048 178.127 127.814 178.137 127.574 178.146C127.451 178.635 127.328 179.124 127.201 179.628C125.725 179.628 124.249 179.628 122.729 179.628C122.729 179.873 122.729 180.117 122.729 180.369C122.114 180.491 121.499 180.613 120.865 180.739C120.742 181.106 120.619 181.473 120.492 181.851C119.877 181.851 119.262 181.851 118.629 181.851C118.629 182.462 118.629 183.073 118.629 183.703C118.014 183.703 117.399 183.703 116.765 183.703C116.765 184.192 116.765 184.68 116.765 185.184C116.396 185.062 116.027 184.94 115.647 184.814C115.647 183.714 115.647 182.614 115.647 181.48C114.54 181.602 113.433 181.725 112.293 181.851C112.293 181.606 112.293 181.362 112.293 181.11C111.924 181.354 111.555 181.599 111.175 181.851C110.558 181.993 109.936 182.12 109.311 182.221C109.188 182.588 109.065 182.954 108.938 183.332C108.446 183.332 107.954 183.332 107.448 183.332C107.448 183.821 107.448 184.31 107.448 184.814C107.237 184.863 107.026 184.912 106.808 184.963C106.535 185.028 106.262 185.094 105.98 185.161C105.708 185.226 105.435 185.29 105.155 185.356C104.466 185.495 104.466 185.495 104.093 185.925C103.472 185.94 102.851 185.941 102.23 185.925C102.353 186.536 102.476 187.147 102.602 187.777C101.495 187.655 100.388 187.533 99.248 187.407C99.248 187.651 99.248 187.896 99.248 188.147C99.6169 188.147 99.9859 188.147 100.366 188.147C100.366 188.636 100.366 189.125 100.366 189.629C99.3073 190.155 98.5567 190.116 97.3844 190C96.4992 189.305 96.4992 189.305 95.8936 188.518C95.8936 188.273 95.8936 188.029 95.8936 187.777C95.6322 187.899 95.3709 188.022 95.1016 188.147C93.9331 188.551 93.0216 188.575 91.7938 188.518C91.7477 188.862 91.7015 189.205 91.654 189.56C91.0484 190.74 91.0484 190.74 90.1952 191.083C89.5289 191.254 88.8578 191.407 88.1832 191.542C87.2587 191.775 87.2587 191.775 86.8321 192.624C86.7053 192.975 86.7053 192.975 86.5759 193.333C86.2299 193.326 85.884 193.318 85.5276 193.31C83.6313 193.306 81.7519 193.514 79.8671 193.704C79.8671 193.948 79.8671 194.193 79.8671 194.444C79.5289 194.437 79.1906 194.429 78.8422 194.421C77.8445 194.44 77.083 194.526 76.14 194.815C76.14 194.57 76.14 194.326 76.14 194.074C75.4021 194.196 74.6641 194.318 73.9038 194.444C73.9038 193.711 73.9038 192.978 73.9038 192.222C73.4964 192.291 73.0889 192.359 72.6692 192.43C71.2948 192.592 71.2948 192.592 70.1767 192.222C70.0537 192.589 69.9307 192.955 69.804 193.333C69.435 193.333 69.066 193.333 68.6859 193.333C68.7118 193.11 68.7377 192.886 68.7645 192.656C68.8276 191.73 68.8428 190.916 68.6859 190C67.6778 189.126 67.6778 189.126 66.4496 188.518C66.2113 188.197 65.973 187.876 65.7275 187.546C64.721 186.394 63.8077 186.332 62.3498 185.925C61.255 185.045 61.255 185.045 60.4863 184.073C60.4863 183.584 60.4863 183.095 60.4863 182.591C60.2403 182.591 59.9943 182.591 59.7408 182.591C59.7408 181.491 59.7408 180.391 59.7408 179.258C59.3719 179.135 59.0029 179.013 58.6227 178.887C58.5074 178.589 58.3921 178.291 58.2733 177.984C57.9645 176.983 57.9645 176.983 57.0853 176.549C56.7394 176.423 56.7394 176.423 56.3865 176.294C56.3865 176.05 56.3865 175.805 56.3865 175.554C56.0175 175.554 55.6485 175.554 55.2683 175.554C55.3913 174.942 55.5143 174.331 55.641 173.702C55.3951 173.702 55.1491 173.702 54.8956 173.702C54.8572 173.32 54.8188 172.938 54.7792 172.544C54.5176 171.079 54.227 170.126 53.4048 168.886C52.1848 168.078 51.4507 167.775 49.9805 167.775C49.6346 167.775 49.2887 167.775 48.9323 167.775C48.5596 167.405 48.1869 167.034 47.8142 166.664C46.8101 166.286 45.903 166.109 44.8325 165.923C44.5865 166.167 44.3405 166.412 44.0871 166.664C42.9937 166.749 42.9937 166.749 41.6878 166.733C41.2578 166.731 40.8278 166.729 40.3847 166.726C39.2419 166.664 39.2419 166.664 38.1237 166.293C37.8778 165.927 37.6318 165.56 37.3783 165.182C37.0324 165.075 36.6865 164.968 36.3301 164.858C34.929 164.367 34.2587 163.678 33.2785 162.589C33.7705 162.589 34.2625 162.589 34.7694 162.589C34.7694 162.1 34.7694 161.611 34.7694 161.108C34.1544 161.108 33.5394 161.108 32.9058 161.108C32.7675 160.661 32.7675 160.661 32.6263 160.205C32.2639 159.192 32.2639 159.192 31.3684 158.955C31.1378 158.932 30.9072 158.909 30.6696 158.885C30.6696 158.396 30.6696 157.907 30.6696 157.404C28.588 157.477 28.588 157.477 26.9425 158.515C24.586 158.64 24.586 158.64 23.5881 158.144C23.9091 153.502 23.9091 153.502 24.7062 151.477C25.0752 151.355 25.4442 151.233 25.8244 151.107C26.2056 150.33 26.2056 150.33 26.4533 149.417C26.5938 148.958 26.5938 148.958 26.7372 148.489C26.8049 148.253 26.8727 148.017 26.9425 147.773C27.3115 147.773 27.6804 147.773 28.0606 147.773C28.0606 147.391 28.0606 147.009 28.0606 146.615C28.1918 145.632 28.3274 145.274 29.0826 144.604C29.621 144.242 30.1607 143.881 30.7016 143.522C31.7604 142.684 32.0217 141.593 32.5331 140.365C33.7356 138.83 34.9538 137.316 36.9823 137.054C37.5473 137.043 37.5473 137.043 38.1237 137.031C38.9851 136.175 38.6292 133.733 38.6566 132.508C38.7251 130.766 38.8501 129.556 39.9873 128.141C40.2333 128.019 40.4793 127.897 40.7327 127.771C40.9663 126.969 41.1629 126.157 41.3384 125.34C41.4354 124.897 41.5325 124.453 41.6324 123.996C41.7045 123.653 41.7766 123.309 41.8508 122.956C42.5888 122.833 43.3268 122.711 44.0871 122.585C44.2101 122.219 44.3331 121.852 44.4598 121.474C44.8749 121.436 45.29 121.398 45.7177 121.358C46.1635 121.274 46.6094 121.19 47.0687 121.104C47.3147 120.737 47.5607 120.37 47.8142 119.992C49.1032 119.43 50.2254 119.239 51.6111 119.182C53.9306 118.963 55.7236 117.714 57.5046 116.288C58.0115 115.554 58.5101 114.814 58.9954 114.066C59.7333 113.619 60.4721 113.271 61.2681 112.939C62.0047 112.624 62.0047 112.624 62.5012 112.008C63.5304 111.081 64.8545 111.157 66.1919 111C67.4204 110.672 67.8446 110.181 68.6859 109.251C69.5038 108.601 70.3389 107.978 71.1769 107.354C72.1565 106.564 73.0168 105.697 73.9038 104.806C74.5686 104.208 75.2365 103.614 75.9071 103.023C77.4365 101.657 78.802 100.259 80.0768 98.6563C80.6125 98.1383 80.6125 98.1383 81.7307 98.1383C82.4766 95.6119 82.4107 92.7792 81.3579 90.3598C81.112 90.3598 80.866 90.3598 80.6125 90.3598C80.279 89.3508 79.9543 88.3403 79.6342 87.3271C79.539 87.0422 79.4439 86.7574 79.3459 86.464C78.6779 84.3158 78.6779 84.3158 79.0664 82.9328C79.2076 82.6945 79.3489 82.4563 79.4944 82.2108C80.1094 82.333 80.7243 82.4553 81.3579 82.5812C81.4778 80.2486 81.4778 80.2486 80.6125 78.1363C80.6125 77.8918 80.6125 77.6474 80.6125 77.3955C80.3435 77.3267 80.0744 77.258 79.7972 77.1871C77.7401 76.1422 76.895 74.3067 76.2099 72.2098C75.792 70.694 75.735 69.3384 75.7673 67.7649C75.5213 67.3982 75.2753 67.0315 75.0219 66.6537C74.6644 66.5964 74.6644 66.5964 74.2998 66.5379C73.5311 66.2833 73.5311 66.2833 72.9385 65.3804C72.2736 63.711 72.2183 62.2513 72.18 60.4725C72.161 59.8459 72.1406 59.2194 72.1188 58.5929C72.1123 58.3181 72.1058 58.0432 72.099 57.76C72.0639 56.9453 72.0639 56.9453 71.6675 55.9118C71.6016 55.3812 71.5496 54.8489 71.5074 54.3159C71.48 54.0086 71.4526 53.7014 71.4244 53.3848C71.3692 52.7407 71.3168 52.0963 71.2671 51.4517C71.1107 49.7534 70.9875 48.7004 69.804 47.3924C69.804 47.0257 69.804 46.659 69.804 46.2812C69.4657 46.2048 69.1275 46.1284 68.779 46.0497C67.2748 45.4172 66.8439 44.7253 66.0769 43.318C66.0769 43.0735 66.0769 42.829 66.0769 42.5771C65.5234 42.3938 65.5234 42.3938 64.9588 42.2067C64.5714 41.1839 64.5156 40.1678 64.4929 39.0814C64.4833 38.8069 64.4737 38.5323 64.4638 38.2494C64.7559 36.1996 66.1304 35.0693 67.6842 33.8263C68.0287 33.5465 68.3732 33.2667 68.7281 32.9784C70.5989 31.6349 72.4448 30.9233 74.6492 30.3537C74.6492 30.1092 74.6492 29.8647 74.6492 29.6129C76.0787 28.1813 77.1702 27.9125 79.1683 27.8071C79.6228 27.7775 80.0773 27.7479 80.5456 27.7174C81.7307 27.7608 81.7307 27.7608 82.8488 28.5016C82.8488 28.7461 82.8488 28.9906 82.8488 29.2425C84.2017 29.2425 85.5546 29.2425 86.9486 29.2425C87.0024 28.8299 87.0562 28.4174 87.1116 27.9923C87.3213 26.6496 87.3213 26.6496 87.694 25.9088C87.94 25.9088 88.186 25.9088 88.4394 25.9088C88.3899 25.6629 88.3404 25.417 88.2895 25.1636C88.091 24.1773 87.8925 23.191 87.694 22.2047C87.6166 21.8662 87.5393 21.5276 87.4596 21.1788C87.3911 20.7699 87.3911 20.7699 87.3213 20.3527C87.9585 19.7193 88.8268 19.8606 89.6973 19.7971C90.8695 19.711 91.7924 19.6123 92.9119 19.2414C92.8889 18.8289 92.8658 18.4164 92.842 17.9913C92.8651 17.5482 92.8882 17.1051 92.9119 16.6486C94.5341 15.5738 96.0862 15.7629 98.0003 15.7009C99.2364 15.6432 99.2364 15.6432 99.9963 14.9716C101.085 14.1721 101.992 14.3544 103.324 14.3798C104.712 14.3596 104.712 14.3596 105.957 14.0557C106.685 13.2338 107.011 12.4878 107.421 11.4773C107.82 10.7221 107.82 10.7221 109.148 10.3053C110.182 10.3427 110.945 10.4314 111.92 10.7221C112.541 10.7361 113.163 10.7392 113.784 10.7221C113.784 10.4776 113.784 10.2331 113.784 9.98124C115.26 9.98124 116.735 9.98124 118.256 9.98124C118.379 10.4702 118.502 10.9591 118.629 11.4629C118.998 11.5851 119.367 11.7073 119.747 11.8333C119.747 11.4666 119.747 11.0999 119.747 10.7221C122.288 10.1097 124.167 10.1312 126.456 11.4629C126.456 10.8517 126.456 10.2405 126.456 9.61083C126.825 9.61083 127.194 9.61083 127.574 9.61083C127.574 8.75519 127.574 7.89955 127.574 7.01798C128.645 7.27263 128.645 7.27263 129.81 7.75879C130.079 8.36761 130.329 8.98503 130.555 9.61083C131.253 9.92313 131.253 9.92313 132.046 9.98124C132.543 10.1047 133.04 10.2282 133.537 10.3516C133.537 11.0851 133.537 11.8185 133.537 12.5741C134.152 12.6963 134.767 12.8186 135.401 12.9445C135.401 13.3112 135.401 13.6779 135.401 14.0557C136.262 14.0557 137.123 14.0557 138.01 14.0557C138.01 13.689 138.01 13.3223 138.01 12.9445C138.502 13.0667 138.994 13.189 139.5 13.3149C139.5 12.9482 139.5 12.5815 139.5 12.2037C139.746 12.2037 139.992 12.2037 140.246 12.2037C140.115 11.9898 139.985 11.7759 139.85 11.5555C139.5 10.7221 139.5 10.7221 139.873 9.24042C141.103 9.11819 142.333 8.99596 143.6 8.87002C143.723 8.25884 143.846 7.64767 143.973 7.01798C144.342 7.01798 144.711 7.01798 145.091 7.01798C144.968 7.62915 144.845 8.24032 144.718 8.87002C146.162 8.32594 146.572 7.57467 147.327 6.27716Z"/>
</mask>
<path d="M147.327 6.27716C147.573 6.27716 147.819 6.27716 148.073 6.27716C148.492 8.0366 148.492 8.0366 148.073 8.87002C148.319 8.87002 148.565 8.87002 148.818 8.87002C148.818 9.23672 148.818 9.60342 148.818 9.98124C149.057 9.86665 149.295 9.75205 149.54 9.63398C151.025 9.12213 152.477 8.99831 154.036 8.87002C154.09 8.64083 154.144 8.41164 154.199 8.1755C154.409 7.38838 154.409 7.38838 154.782 6.64757C155.028 6.64757 155.274 6.64757 155.527 6.64757C155.527 7.13651 155.527 7.62545 155.527 8.1292C155.773 8.1292 156.019 8.1292 156.272 8.1292C156.272 8.37367 156.272 8.61814 156.272 8.87002C156.518 8.87002 156.764 8.87002 157.018 8.87002C157.018 9.23672 157.018 9.60342 157.018 9.98124C157.264 9.98124 157.51 9.98124 157.763 9.98124C157.763 10.3479 157.763 10.7146 157.763 11.0925C158.186 10.9626 158.609 10.8327 159.044 10.6989C160.797 10.2534 162.335 10.4216 164.099 10.7221C164.099 10.2331 164.099 9.74418 164.099 9.24042C164.468 9.24042 164.837 9.24042 165.217 9.24042C165.217 30.1425 165.217 51.0447 165.217 72.5802C163.618 72.7024 162.02 72.8247 160.372 72.9506C160.249 81.1403 160.126 89.33 159.999 97.7679C161.721 97.7679 163.443 97.7679 165.217 97.7679C165.217 120.748 165.217 143.728 165.217 167.405C162.422 167.96 162.422 167.96 159.627 168.516C159.126 168.698 158.628 168.89 158.136 169.095C156.97 169.547 156.048 169.745 154.782 169.627C154.674 169.864 154.566 170.101 154.455 170.345C154.036 171.109 154.036 171.109 153.291 171.479C152.421 171.494 151.551 171.495 150.682 171.479C150.682 171.724 150.682 171.968 150.682 172.22C150.19 172.22 149.698 172.22 149.191 172.22C149.068 172.464 148.945 172.709 148.818 172.961C148.595 172.884 148.372 172.808 148.143 172.729C147.221 172.477 147.221 172.477 146.209 173.331C145.208 173.377 145.208 173.377 144.346 173.331C144.346 173.698 144.346 174.065 144.346 174.442C143.818 174.39 143.29 174.335 142.762 174.28C142.468 174.25 142.174 174.22 141.871 174.189C141.057 174.081 140.292 173.916 139.5 173.702C139.378 173.946 139.255 174.191 139.128 174.442C138.912 174.421 138.695 174.399 138.473 174.377C136.715 174.242 136.715 174.242 135.118 174.855C134.935 175.024 134.751 175.194 134.562 175.368C133.537 176.294 133.537 176.294 132.466 176.41C132.204 176.372 131.943 176.334 131.674 176.294C131.586 176.533 131.499 176.772 131.409 177.018C130.928 177.776 130.928 177.776 130.122 178.002C129.819 178.019 129.516 178.036 129.204 178.054C128.9 178.075 128.595 178.096 128.281 178.118C128.048 178.127 127.814 178.137 127.574 178.146C127.451 178.635 127.328 179.124 127.201 179.628C125.725 179.628 124.249 179.628 122.729 179.628C122.729 179.873 122.729 180.117 122.729 180.369C122.114 180.491 121.499 180.613 120.865 180.739C120.742 181.106 120.619 181.473 120.492 181.851C119.877 181.851 119.262 181.851 118.629 181.851C118.629 182.462 118.629 183.073 118.629 183.703C118.014 183.703 117.399 183.703 116.765 183.703C116.765 184.192 116.765 184.68 116.765 185.184C116.396 185.062 116.027 184.94 115.647 184.814C115.647 183.714 115.647 182.614 115.647 181.48C114.54 181.602 113.433 181.725 112.293 181.851C112.293 181.606 112.293 181.362 112.293 181.11C111.924 181.354 111.555 181.599 111.175 181.851C110.558 181.993 109.936 182.12 109.311 182.221C109.188 182.588 109.065 182.954 108.938 183.332C108.446 183.332 107.954 183.332 107.448 183.332C107.448 183.821 107.448 184.31 107.448 184.814C107.237 184.863 107.026 184.912 106.808 184.963C106.535 185.028 106.262 185.094 105.98 185.161C105.708 185.226 105.435 185.29 105.155 185.356C104.466 185.495 104.466 185.495 104.093 185.925C103.472 185.94 102.851 185.941 102.23 185.925C102.353 186.536 102.476 187.147 102.602 187.777C101.495 187.655 100.388 187.533 99.248 187.407C99.248 187.651 99.248 187.896 99.248 188.147C99.6169 188.147 99.9859 188.147 100.366 188.147C100.366 188.636 100.366 189.125 100.366 189.629C99.3073 190.155 98.5567 190.116 97.3844 190C96.4992 189.305 96.4992 189.305 95.8936 188.518C95.8936 188.273 95.8936 188.029 95.8936 187.777C95.6322 187.899 95.3709 188.022 95.1016 188.147C93.9331 188.551 93.0216 188.575 91.7938 188.518C91.7477 188.862 91.7015 189.205 91.654 189.56C91.0484 190.74 91.0484 190.74 90.1952 191.083C89.5289 191.254 88.8578 191.407 88.1832 191.542C87.2587 191.775 87.2587 191.775 86.8321 192.624C86.7053 192.975 86.7053 192.975 86.5759 193.333C86.2299 193.326 85.884 193.318 85.5276 193.31C83.6313 193.306 81.7519 193.514 79.8671 193.704C79.8671 193.948 79.8671 194.193 79.8671 194.444C79.5289 194.437 79.1906 194.429 78.8422 194.421C77.8445 194.44 77.083 194.526 76.14 194.815C76.14 194.57 76.14 194.326 76.14 194.074C75.4021 194.196 74.6641 194.318 73.9038 194.444C73.9038 193.711 73.9038 192.978 73.9038 192.222C73.4964 192.291 73.0889 192.359 72.6692 192.43C71.2948 192.592 71.2948 192.592 70.1767 192.222C70.0537 192.589 69.9307 192.955 69.804 193.333C69.435 193.333 69.066 193.333 68.6859 193.333C68.7118 193.11 68.7377 192.886 68.7645 192.656C68.8276 191.73 68.8428 190.916 68.6859 190C67.6778 189.126 67.6778 189.126 66.4496 188.518C66.2113 188.197 65.973 187.876 65.7275 187.546C64.721 186.394 63.8077 186.332 62.3498 185.925C61.255 185.045 61.255 185.045 60.4863 184.073C60.4863 183.584 60.4863 183.095 60.4863 182.591C60.2403 182.591 59.9943 182.591 59.7408 182.591C59.7408 181.491 59.7408 180.391 59.7408 179.258C59.3719 179.135 59.0029 179.013 58.6227 178.887C58.5074 178.589 58.3921 178.291 58.2733 177.984C57.9645 176.983 57.9645 176.983 57.0853 176.549C56.7394 176.423 56.7394 176.423 56.3865 176.294C56.3865 176.05 56.3865 175.805 56.3865 175.554C56.0175 175.554 55.6485 175.554 55.2683 175.554C55.3913 174.942 55.5143 174.331 55.641 173.702C55.3951 173.702 55.1491 173.702 54.8956 173.702C54.8572 173.32 54.8188 172.938 54.7792 172.544C54.5176 171.079 54.227 170.126 53.4048 168.886C52.1848 168.078 51.4507 167.775 49.9805 167.775C49.6346 167.775 49.2887 167.775 48.9323 167.775C48.5596 167.405 48.1869 167.034 47.8142 166.664C46.8101 166.286 45.903 166.109 44.8325 165.923C44.5865 166.167 44.3405 166.412 44.0871 166.664C42.9937 166.749 42.9937 166.749 41.6878 166.733C41.2578 166.731 40.8278 166.729 40.3847 166.726C39.2419 166.664 39.2419 166.664 38.1237 166.293C37.8778 165.927 37.6318 165.56 37.3783 165.182C37.0324 165.075 36.6865 164.968 36.3301 164.858C34.929 164.367 34.2587 163.678 33.2785 162.589C33.7705 162.589 34.2625 162.589 34.7694 162.589C34.7694 162.1 34.7694 161.611 34.7694 161.108C34.1544 161.108 33.5394 161.108 32.9058 161.108C32.7675 160.661 32.7675 160.661 32.6263 160.205C32.2639 159.192 32.2639 159.192 31.3684 158.955C31.1378 158.932 30.9072 158.909 30.6696 158.885C30.6696 158.396 30.6696 157.907 30.6696 157.404C28.588 157.477 28.588 157.477 26.9425 158.515C24.586 158.64 24.586 158.64 23.5881 158.144C23.9091 153.502 23.9091 153.502 24.7062 151.477C25.0752 151.355 25.4442 151.233 25.8244 151.107C26.2056 150.33 26.2056 150.33 26.4533 149.417C26.5938 148.958 26.5938 148.958 26.7372 148.489C26.8049 148.253 26.8727 148.017 26.9425 147.773C27.3115 147.773 27.6804 147.773 28.0606 147.773C28.0606 147.391 28.0606 147.009 28.0606 146.615C28.1918 145.632 28.3274 145.274 29.0826 144.604C29.621 144.242 30.1607 143.881 30.7016 143.522C31.7604 142.684 32.0217 141.593 32.5331 140.365C33.7356 138.83 34.9538 137.316 36.9823 137.054C37.5473 137.043 37.5473 137.043 38.1237 137.031C38.9851 136.175 38.6292 133.733 38.6566 132.508C38.7251 130.766 38.8501 129.556 39.9873 128.141C40.2333 128.019 40.4793 127.897 40.7327 127.771C40.9663 126.969 41.1629 126.157 41.3384 125.34C41.4354 124.897 41.5325 124.453 41.6324 123.996C41.7045 123.653 41.7766 123.309 41.8508 122.956C42.5888 122.833 43.3268 122.711 44.0871 122.585C44.2101 122.219 44.3331 121.852 44.4598 121.474C44.8749 121.436 45.29 121.398 45.7177 121.358C46.1635 121.274 46.6094 121.19 47.0687 121.104C47.3147 120.737 47.5607 120.37 47.8142 119.992C49.1032 119.43 50.2254 119.239 51.6111 119.182C53.9306 118.963 55.7236 117.714 57.5046 116.288C58.0115 115.554 58.5101 114.814 58.9954 114.066C59.7333 113.619 60.4721 113.271 61.2681 112.939C62.0047 112.624 62.0047 112.624 62.5012 112.008C63.5304 111.081 64.8545 111.157 66.1919 111C67.4204 110.672 67.8446 110.181 68.6859 109.251C69.5038 108.601 70.3389 107.978 71.1769 107.354C72.1565 106.564 73.0168 105.697 73.9038 104.806C74.5686 104.208 75.2365 103.614 75.9071 103.023C77.4365 101.657 78.802 100.259 80.0768 98.6563C80.6125 98.1383 80.6125 98.1383 81.7307 98.1383C82.4766 95.6119 82.4107 92.7792 81.3579 90.3598C81.112 90.3598 80.866 90.3598 80.6125 90.3598C80.279 89.3508 79.9543 88.3403 79.6342 87.3271C79.539 87.0422 79.4439 86.7574 79.3459 86.464C78.6779 84.3158 78.6779 84.3158 79.0664 82.9328C79.2076 82.6945 79.3489 82.4563 79.4944 82.2108C80.1094 82.333 80.7243 82.4553 81.3579 82.5812C81.4778 80.2486 81.4778 80.2486 80.6125 78.1363C80.6125 77.8918 80.6125 77.6474 80.6125 77.3955C80.3435 77.3267 80.0744 77.258 79.7972 77.1871C77.7401 76.1422 76.895 74.3067 76.2099 72.2098C75.792 70.694 75.735 69.3384 75.7673 67.7649C75.5213 67.3982 75.2753 67.0315 75.0219 66.6537C74.6644 66.5964 74.6644 66.5964 74.2998 66.5379C73.5311 66.2833 73.5311 66.2833 72.9385 65.3804C72.2736 63.711 72.2183 62.2513 72.18 60.4725C72.161 59.8459 72.1406 59.2194 72.1188 58.5929C72.1123 58.3181 72.1058 58.0432 72.099 57.76C72.0639 56.9453 72.0639 56.9453 71.6675 55.9118C71.6016 55.3812 71.5496 54.8489 71.5074 54.3159C71.48 54.0086 71.4526 53.7014 71.4244 53.3848C71.3692 52.7407 71.3168 52.0963 71.2671 51.4517C71.1107 49.7534 70.9875 48.7004 69.804 47.3924C69.804 47.0257 69.804 46.659 69.804 46.2812C69.4657 46.2048 69.1275 46.1284 68.779 46.0497C67.2748 45.4172 66.8439 44.7253 66.0769 43.318C66.0769 43.0735 66.0769 42.829 66.0769 42.5771C65.5234 42.3938 65.5234 42.3938 64.9588 42.2067C64.5714 41.1839 64.5156 40.1678 64.4929 39.0814C64.4833 38.8069 64.4737 38.5323 64.4638 38.2494C64.7559 36.1996 66.1304 35.0693 67.6842 33.8263C68.0287 33.5465 68.3732 33.2667 68.7281 32.9784C70.5989 31.6349 72.4448 30.9233 74.6492 30.3537C74.6492 30.1092 74.6492 29.8647 74.6492 29.6129C76.0787 28.1813 77.1702 27.9125 79.1683 27.8071C79.6228 27.7775 80.0773 27.7479 80.5456 27.7174C81.7307 27.7608 81.7307 27.7608 82.8488 28.5016C82.8488 28.7461 82.8488 28.9906 82.8488 29.2425C84.2017 29.2425 85.5546 29.2425 86.9486 29.2425C87.0024 28.8299 87.0562 28.4174 87.1116 27.9923C87.3213 26.6496 87.3213 26.6496 87.694 25.9088C87.94 25.9088 88.186 25.9088 88.4394 25.9088C88.3899 25.6629 88.3404 25.417 88.2895 25.1636C88.091 24.1773 87.8925 23.191 87.694 22.2047C87.6166 21.8662 87.5393 21.5276 87.4596 21.1788C87.3911 20.7699 87.3911 20.7699 87.3213 20.3527C87.9585 19.7193 88.8268 19.8606 89.6973 19.7971C90.8695 19.711 91.7924 19.6123 92.9119 19.2414C92.8889 18.8289 92.8658 18.4164 92.842 17.9913C92.8651 17.5482 92.8882 17.1051 92.9119 16.6486C94.5341 15.5738 96.0862 15.7629 98.0003 15.7009C99.2364 15.6432 99.2364 15.6432 99.9963 14.9716C101.085 14.1721 101.992 14.3544 103.324 14.3798C104.712 14.3596 104.712 14.3596 105.957 14.0557C106.685 13.2338 107.011 12.4878 107.421 11.4773C107.82 10.7221 107.82 10.7221 109.148 10.3053C110.182 10.3427 110.945 10.4314 111.92 10.7221C112.541 10.7361 113.163 10.7392 113.784 10.7221C113.784 10.4776 113.784 10.2331 113.784 9.98124C115.26 9.98124 116.735 9.98124 118.256 9.98124C118.379 10.4702 118.502 10.9591 118.629 11.4629C118.998 11.5851 119.367 11.7073 119.747 11.8333C119.747 11.4666 119.747 11.0999 119.747 10.7221C122.288 10.1097 124.167 10.1312 126.456 11.4629C126.456 10.8517 126.456 10.2405 126.456 9.61083C126.825 9.61083 127.194 9.61083 127.574 9.61083C127.574 8.75519 127.574 7.89955 127.574 7.01798C128.645 7.27263 128.645 7.27263 129.81 7.75879C130.079 8.36761 130.329 8.98503 130.555 9.61083C131.253 9.92313 131.253 9.92313 132.046 9.98124C132.543 10.1047 133.04 10.2282 133.537 10.3516C133.537 11.0851 133.537 11.8185 133.537 12.5741C134.152 12.6963 134.767 12.8186 135.401 12.9445C135.401 13.3112 135.401 13.6779 135.401 14.0557C136.262 14.0557 137.123 14.0557 138.01 14.0557C138.01 13.689 138.01 13.3223 138.01 12.9445C138.502 13.0667 138.994 13.189 139.5 13.3149C139.5 12.9482 139.5 12.5815 139.5 12.2037C139.746 12.2037 139.992 12.2037 140.246 12.2037C140.115 11.9898 139.985 11.7759 139.85 11.5555C139.5 10.7221 139.5 10.7221 139.873 9.24042C141.103 9.11819 142.333 8.99596 143.6 8.87002C143.723 8.25884 143.846 7.64767 143.973 7.01798C144.342 7.01798 144.711 7.01798 145.091 7.01798C144.968 7.62915 144.845 8.24032 144.718 8.87002C146.162 8.32594 146.572 7.57467 147.327 6.27716Z" fill="#5F87D6" stroke="#031B31" stroke-width="2" mask="url(#path-1-inside-1_3_71)"/>
<path d="M55.0229 41.0653L54.6322 40.9784C54.1855 40.8785 54.1715 40.8739 53.7436 40.7782C51.1863 39.7234 49.4633 37.8727 48.2885 35.3719C47.8099 33.3962 47.6435 31.4107 47.9213 29.4188C48.3704 28.7119 48.8552 28.193 49.4994 27.5799L49.5121 27.5692L49.5229 27.5565C50.2984 26.7127 50.4577 25.8543 50.5219 24.9276H51.2123L51.2875 24.5174C51.3552 24.1473 51.3552 24.1468 51.4242 23.7694L51.4301 23.7401C51.431 23.7353 51.4312 23.7302 51.432 23.7254C51.4329 23.7207 51.4341 23.7156 51.435 23.7108C51.4358 23.7062 51.4371 23.7017 51.4379 23.6971C51.4388 23.6923 51.4399 23.6873 51.4408 23.6825C51.4417 23.6777 51.4419 23.6726 51.4428 23.6678L51.4486 23.6385C51.4495 23.634 51.4498 23.6294 51.4506 23.6249L51.4594 23.5809C51.4602 23.5762 51.4605 23.571 51.4613 23.5663C51.4622 23.5617 51.4634 23.5572 51.4643 23.5526C51.4651 23.5478 51.4663 23.5427 51.4672 23.5379C51.4681 23.5331 51.4683 23.5281 51.4691 23.5233L51.475 23.494C51.4758 23.4895 51.4761 23.4849 51.477 23.4803L51.4857 23.4364C51.4866 23.4317 51.4868 23.4265 51.4877 23.4217C51.4885 23.4172 51.4898 23.4126 51.4906 23.4081C51.4915 23.4033 51.4927 23.3982 51.4936 23.3934C51.4944 23.3886 51.4946 23.3836 51.4955 23.3788L51.5014 23.3495C51.5022 23.3449 51.5035 23.3404 51.5043 23.3358C51.5052 23.3311 51.5054 23.3259 51.5063 23.3212L51.5121 23.2919C51.513 23.2871 51.5132 23.2819 51.5141 23.2772C51.5149 23.2726 51.5162 23.2681 51.517 23.2635L51.5229 23.2342C51.5237 23.2295 51.5239 23.2244 51.5248 23.2196C51.5257 23.2148 51.5269 23.2097 51.5277 23.2049C51.5286 23.2004 51.5298 23.1959 51.5307 23.1913C51.5315 23.1865 51.5318 23.1814 51.5326 23.1766L51.5385 23.1473C51.5393 23.1426 51.5396 23.1374 51.5404 23.1327C51.5413 23.1281 51.5425 23.1236 51.5434 23.119L51.5492 23.0897C51.5501 23.0849 51.5503 23.0799 51.5512 23.0751C51.5521 23.0703 51.5532 23.0652 51.5541 23.0604C51.5549 23.0558 51.5562 23.0513 51.557 23.0467C51.5579 23.042 51.5581 23.0368 51.559 23.0321L51.5678 22.9881C51.5686 22.9836 51.5689 22.979 51.5697 22.9745L51.5756 22.9452C51.5765 22.9404 51.5767 22.9353 51.5775 22.9305C51.5784 22.9257 51.5796 22.9207 51.5805 22.9159C51.5813 22.9113 51.5826 22.9068 51.5834 22.9022C51.5843 22.8974 51.5855 22.8923 51.5863 22.8876C51.5872 22.8828 51.5874 22.8777 51.5883 22.8729L51.5941 22.8436C51.595 22.8391 51.5953 22.8345 51.5961 22.8299L51.602 22.8006C51.6028 22.7958 51.603 22.7908 51.6039 22.786C51.6048 22.7812 51.606 22.7761 51.6068 22.7713C51.6077 22.7668 51.6089 22.7623 51.6098 22.7577C51.6106 22.7529 51.6118 22.7478 51.6127 22.743C51.6136 22.7382 51.6138 22.7332 51.6147 22.7284L51.6205 22.6991C51.6213 22.6946 51.6216 22.6899 51.6225 22.6854L51.6313 22.6415C51.6321 22.6367 51.6323 22.6316 51.6332 22.6268C51.634 22.6222 51.6353 22.6177 51.6361 22.6131C51.637 22.6084 51.6382 22.6033 51.6391 22.5985C51.6399 22.5937 51.6401 22.5886 51.641 22.5838L51.6469 22.5546C51.6477 22.55 51.648 22.5454 51.6488 22.5409L51.6576 22.4969C51.6585 22.4922 51.6587 22.487 51.6596 22.4823C51.6604 22.4777 51.6617 22.4732 51.6625 22.4686C51.6634 22.4639 51.6646 22.4587 51.6654 22.454C51.6663 22.4492 51.6665 22.4441 51.6674 22.4393L51.6732 22.41C51.6741 22.4054 51.6753 22.4009 51.6762 22.3963C51.677 22.3916 51.6773 22.3864 51.6781 22.3817L51.684 22.3524C51.6849 22.3476 51.6851 22.3425 51.6859 22.3378C51.6868 22.3332 51.688 22.3287 51.6889 22.3241L51.6947 22.2948C51.6956 22.29 51.6958 22.285 51.6967 22.2801L51.7025 22.2508C51.7034 22.2463 51.7037 22.2417 51.7045 22.2372L51.7104 22.2079C51.7112 22.2031 51.7114 22.198 51.7123 22.1932C51.7132 22.1885 51.7144 22.1833 51.7152 22.1786C51.7161 22.174 51.7173 22.1695 51.7182 22.1649C51.719 22.1601 51.7202 22.1551 51.7211 22.1503C51.722 22.1454 51.7222 22.1404 51.7231 22.1356L51.7289 22.1063C51.7297 22.1018 51.73 22.0972 51.7309 22.0926L51.7397 22.0487C51.7405 22.044 51.7407 22.0388 51.7416 22.034C51.7424 22.0295 51.7437 22.025 51.7445 22.0204C51.7454 22.0156 51.7466 22.0105 51.7475 22.0057C51.7483 22.0009 51.7485 21.9959 51.7494 21.9911L51.7553 21.9618C51.7561 21.9572 51.7574 21.9527 51.7582 21.9481C51.7591 21.9433 51.7593 21.9382 51.7602 21.9335L51.766 21.9042C51.7669 21.8994 51.7671 21.8942 51.768 21.8895C51.7688 21.8849 51.7701 21.8804 51.7709 21.8758C51.7718 21.8711 51.773 21.866 51.7738 21.8612C51.7747 21.8564 51.7749 21.8513 51.7758 21.8465L51.7816 21.8172C51.7825 21.8127 51.7837 21.8082 51.7846 21.8036C51.7854 21.7988 51.7857 21.7937 51.7865 21.7889L51.7924 21.7596C51.7933 21.7549 51.7935 21.7497 51.7943 21.745C51.7952 21.7404 51.7964 21.7359 51.7973 21.7313L51.8031 21.702C51.804 21.6972 51.8042 21.6921 51.8051 21.6874C51.806 21.6826 51.8071 21.6775 51.808 21.6727C51.8089 21.6681 51.8101 21.6636 51.8109 21.659C51.8118 21.6543 51.812 21.6491 51.8129 21.6444L51.8217 21.6004C51.8225 21.5959 51.8228 21.5913 51.8236 21.5868L51.8295 21.5575C51.8304 21.5527 51.8306 21.5476 51.8315 21.5428C51.8323 21.5381 51.8335 21.533 51.8344 21.5282C51.8352 21.5236 51.8365 21.5191 51.8373 21.5145C51.8382 21.5098 51.8384 21.5046 51.8393 21.4999L51.8481 21.4559C51.8489 21.4514 51.8492 21.4468 51.85 21.4422L51.8559 21.4129C51.8567 21.4081 51.8569 21.4031 51.8578 21.3983C51.8587 21.3935 51.8599 21.3884 51.8607 21.3837C51.8616 21.3791 51.8628 21.3746 51.8637 21.37C51.8646 21.3652 51.8657 21.3601 51.8666 21.3553C51.8675 21.3505 51.8677 21.3455 51.8686 21.3407L51.8744 21.3114C51.8752 21.3069 51.8755 21.3022 51.8764 21.2977L51.8852 21.2538C51.886 21.249 51.8862 21.2439 51.8871 21.2391C51.888 21.2345 51.8892 21.23 51.89 21.2254C51.8909 21.2207 51.8921 21.2156 51.893 21.2108C51.8939 21.206 51.8941 21.2009 51.8949 21.1962L51.9008 21.1669C51.9016 21.1623 51.9019 21.1577 51.9027 21.1532L51.9115 21.1092C51.9124 21.1045 51.9126 21.0993 51.9135 21.0946C51.9143 21.09 51.9156 21.0855 51.9164 21.0809C51.9173 21.0762 51.9185 21.071 51.9193 21.0663C51.9202 21.0615 51.9204 21.0564 51.9213 21.0516L51.9272 21.0223C51.928 21.0177 51.9292 21.0132 51.9301 21.0087C51.9309 21.0039 51.9312 20.9987 51.932 20.994L51.9379 20.9647C51.9388 20.9599 51.939 20.9548 51.9398 20.9501C51.9407 20.9455 51.9419 20.941 51.9428 20.9364C51.9436 20.9316 51.9448 20.9265 51.9457 20.9217C51.9466 20.917 51.9468 20.9119 51.9477 20.9071L51.9535 20.8778C51.9544 20.8732 51.9556 20.8687 51.9565 20.8641C51.9573 20.8594 51.9575 20.8542 51.9584 20.8495L51.9643 20.8202C51.9651 20.8154 51.9653 20.8103 51.9662 20.8055C51.9671 20.8009 51.9683 20.7964 51.9691 20.7919L51.975 20.7626C51.9759 20.7577 51.9761 20.7527 51.977 20.7479L51.9828 20.7186C51.9836 20.7141 51.9839 20.7095 51.9848 20.7049L51.9936 20.661C51.9944 20.6563 51.9947 20.651 51.9955 20.6463C51.9964 20.6418 51.9976 20.6373 51.9984 20.6327C51.9993 20.6279 52.0005 20.6228 52.0014 20.618C52.0023 20.6132 52.0024 20.6082 52.0033 20.6034L52.0092 20.5741C52.01 20.5696 52.0103 20.5649 52.0111 20.5604L52.0199 20.5165C52.0208 20.5118 52.021 20.5065 52.0219 20.5018C52.0227 20.4972 52.024 20.4927 52.0248 20.4881C52.0257 20.4834 52.0269 20.4783 52.0277 20.4735C52.0286 20.4687 52.0288 20.4637 52.0297 20.4588L52.0356 20.4296C52.0364 20.425 52.0376 20.4205 52.0385 20.4159C52.0394 20.4111 52.0396 20.406 52.0404 20.4012L52.0463 20.3719C52.0472 20.3672 52.0474 20.362 52.0482 20.3573C52.0491 20.3527 52.0503 20.3482 52.0512 20.3436L52.057 20.3143C52.0579 20.3095 52.0581 20.3044 52.059 20.2997C52.0599 20.2949 52.0611 20.2898 52.0619 20.285C52.0628 20.2804 52.064 20.2759 52.0648 20.2713C52.0657 20.2666 52.0659 20.2614 52.0668 20.2567L52.0727 20.2274C52.0735 20.2227 52.0737 20.2175 52.0746 20.2128C52.0755 20.2082 52.0767 20.2037 52.0775 20.1991L52.0834 20.1698C52.0843 20.165 52.0845 20.1599 52.0854 20.1551C52.0862 20.1504 52.0874 20.1453 52.0883 20.1405C52.0891 20.1359 52.0904 20.1314 52.0912 20.1268C52.0921 20.1221 52.0923 20.1169 52.0932 20.1122L52.102 20.0682C52.1028 20.0637 52.1031 20.0591 52.1039 20.0546L52.1098 20.0253C52.1106 20.0205 52.1108 20.0154 52.1117 20.0106C52.1126 20.0058 52.1138 20.0007 52.1147 19.996C52.1155 19.9914 52.1167 19.9869 52.1176 19.9823C52.1185 19.9775 52.1196 19.9724 52.1205 19.9676C52.1214 19.9628 52.1216 19.9578 52.1225 19.953L52.1283 19.9237C52.1292 19.9192 52.1295 19.9145 52.1303 19.91L52.1361 19.8807C52.137 19.8759 52.1372 19.8709 52.1381 19.8661C52.139 19.8613 52.1401 19.8562 52.141 19.8514C52.1419 19.8468 52.1431 19.8423 52.144 19.8378C52.1448 19.833 52.146 19.8279 52.1469 19.8231C52.1478 19.8183 52.148 19.8133 52.1488 19.8085L52.1547 19.7792C52.1555 19.7746 52.1558 19.77 52.1566 19.7655L52.1654 19.7215C52.1663 19.7168 52.1665 19.7116 52.1674 19.7069C52.1682 19.7023 52.1695 19.6978 52.1703 19.6932C52.1712 19.6885 52.1724 19.6833 52.1732 19.6786C52.1741 19.6738 52.1743 19.6687 52.1752 19.6639L52.1811 19.6346C52.1819 19.63 52.1832 19.6255 52.184 19.621C52.1849 19.6162 52.1851 19.611 52.1859 19.6063L52.1918 19.577C52.1927 19.5723 52.1929 19.5671 52.1938 19.5624C52.1946 19.5578 52.1958 19.5533 52.1967 19.5487C52.1976 19.5439 52.1987 19.5388 52.1996 19.534C52.2005 19.5293 52.2007 19.5242 52.2016 19.5194L52.2074 19.4901C52.2083 19.4855 52.2095 19.481 52.2104 19.4764C52.2112 19.4717 52.2114 19.4665 52.2123 19.4618L52.2182 19.4325C52.219 19.4277 52.2193 19.4226 52.2201 19.4178C52.221 19.4132 52.2222 19.4087 52.2231 19.4042L52.2289 19.3749C52.2298 19.37 52.23 19.365 52.2309 19.3602C52.2317 19.3554 52.2329 19.3504 52.2338 19.3456C52.2346 19.341 52.2359 19.3365 52.2367 19.3319C52.2376 19.3272 52.2378 19.322 52.2387 19.3172L52.2445 19.2879C52.2454 19.2832 52.2456 19.2781 52.2465 19.2733C52.2473 19.2687 52.2486 19.2642 52.2494 19.2596L52.2553 19.2303C52.2562 19.2255 52.2564 19.2205 52.2572 19.2157C52.2581 19.2109 52.2593 19.2058 52.2602 19.201C52.261 19.1965 52.2623 19.1919 52.2631 19.1874C52.264 19.1827 52.2642 19.1774 52.265 19.1727L52.2738 19.1288C52.2747 19.1241 52.2749 19.1188 52.2758 19.1141C52.2766 19.1095 52.2779 19.105 52.2787 19.1004C52.2796 19.0956 52.2808 19.0906 52.2816 19.0858C52.2825 19.081 52.2827 19.076 52.2836 19.0712L52.2895 19.0419C52.2903 19.0373 52.2916 19.0328 52.2924 19.0282C52.2933 19.0234 52.2935 19.0183 52.2943 19.0135L52.3002 18.9842C52.3011 18.9795 52.3013 18.9743 52.3022 18.9696C52.303 18.965 52.3042 18.9605 52.3051 18.9559C52.306 18.9511 52.3071 18.9461 52.308 18.9413C52.3089 18.9365 52.3091 18.9314 52.31 18.9266L52.3158 18.8973C52.3167 18.8927 52.3179 18.8882 52.3188 18.8837C52.3196 18.8789 52.3198 18.8738 52.3207 18.869L52.3266 18.8397C52.3274 18.835 52.3277 18.8298 52.3285 18.8251C52.3294 18.8205 52.3306 18.816 52.3315 18.8114L52.3373 18.7821C52.3382 18.7773 52.3384 18.7722 52.3393 18.7674C52.3401 18.7627 52.3413 18.7575 52.3422 18.7528C52.343 18.7482 52.3443 18.7437 52.3451 18.7391C52.346 18.7344 52.3462 18.7292 52.3471 18.7245L52.3559 18.6805C52.3567 18.676 52.357 18.6714 52.3578 18.6669L52.3637 18.6376C52.3646 18.6328 52.3648 18.6277 52.3656 18.6229C52.3665 18.6181 52.3677 18.613 52.3686 18.6083C52.3694 18.6037 52.3707 18.5992 52.3715 18.5946C52.3724 18.5899 52.3726 18.5847 52.3734 18.5799L52.3822 18.536C52.3831 18.5315 52.3834 18.5268 52.3842 18.5223L52.39 18.493C52.3909 18.4882 52.3911 18.4832 52.392 18.4784C52.3929 18.4736 52.3941 18.4685 52.3949 18.4637C52.3958 18.4591 52.397 18.4546 52.3979 18.4501C52.3987 18.4453 52.3999 18.4402 52.4008 18.4354C52.4017 18.4306 52.4019 18.4256 52.4027 18.4208L52.4086 18.3915C52.4094 18.3869 52.4097 18.3823 52.4106 18.3778L52.4193 18.3338C52.4202 18.3291 52.4204 18.3239 52.4213 18.3192C52.4221 18.3146 52.4234 18.3101 52.4242 18.3055C52.4251 18.3008 52.4263 18.2957 52.4272 18.2909C52.428 18.2861 52.4282 18.281 52.4291 18.2762L52.435 18.2469C52.4358 18.2424 52.4361 18.2378 52.4369 18.2333L52.4457 18.1893C52.4466 18.1846 52.4468 18.1794 52.4477 18.1747C52.4485 18.1701 52.4498 18.1656 52.4506 18.161C52.4515 18.1562 52.4527 18.1511 52.4535 18.1463C52.4544 18.1416 52.4546 18.1365 52.4555 18.1317L52.4613 18.1024C52.4622 18.0978 52.4634 18.0933 52.4643 18.0887C52.4651 18.084 52.4654 18.0788 52.4662 18.0741L52.4721 18.0448C52.4729 18.04 52.4732 18.0349 52.474 18.0301C52.4749 18.0256 52.4761 18.021 52.477 18.0165L52.4828 17.9872C52.4837 17.9824 52.4839 17.9773 52.4848 17.9725C52.4856 17.9677 52.4868 17.9627 52.4877 17.9579C52.4885 17.9533 52.4898 17.9488 52.4906 17.9442C52.4915 17.9395 52.4917 17.9343 52.4926 17.9296L52.4984 17.9003C52.4993 17.8955 52.4995 17.8904 52.5004 17.8856C52.5012 17.881 52.5025 17.8765 52.5033 17.8719L52.5092 17.8426C52.5101 17.8378 52.5103 17.8328 52.5111 17.828C52.512 17.8232 52.5132 17.8181 52.5141 17.8133C52.5149 17.8088 52.5162 17.8042 52.517 17.7997C52.5179 17.795 52.5181 17.7897 52.519 17.785L52.5277 17.7411C52.5286 17.7365 52.5289 17.7319 52.5297 17.7274L52.5356 17.6981C52.5364 17.6933 52.5366 17.6883 52.5375 17.6835C52.5384 17.6787 52.5396 17.6736 52.5404 17.6688C52.5413 17.6642 52.5425 17.6597 52.5434 17.6551C52.5442 17.6504 52.5445 17.6452 52.5453 17.6405L52.5541 17.5965C52.555 17.5918 52.5552 17.5866 52.5561 17.5819C52.5569 17.5773 52.5582 17.5728 52.559 17.5682C52.5599 17.5634 52.561 17.5584 52.5619 17.5536C52.5628 17.5488 52.563 17.5437 52.5639 17.5389L52.5697 17.5096C52.5706 17.505 52.5718 17.5005 52.5727 17.496C52.5735 17.4912 52.5737 17.4861 52.5746 17.4813L52.5805 17.452C52.5813 17.4473 52.5816 17.4421 52.5824 17.4374C52.5833 17.4328 52.5845 17.4283 52.5854 17.4237L52.5912 17.3944C52.5921 17.3896 52.5923 17.3845 52.5932 17.3797C52.594 17.375 52.5952 17.3698 52.5961 17.3651C52.5969 17.3605 52.5982 17.356 52.599 17.3514C52.5999 17.3467 52.6001 17.3415 52.601 17.3368L52.6068 17.3075C52.6077 17.3028 52.6079 17.2976 52.6088 17.2928C52.6096 17.2882 52.6109 17.2837 52.6117 17.2792L52.6176 17.2499C52.6185 17.2451 52.6187 17.24 52.6195 17.2352C52.6204 17.2305 52.6216 17.2253 52.6225 17.2206C52.6233 17.216 52.6246 17.2115 52.6254 17.2069C52.6263 17.2021 52.6265 17.197 52.6273 17.1922L52.6361 17.1483C52.637 17.1438 52.6373 17.1392 52.6381 17.1346L52.644 17.1053C52.6448 17.1005 52.645 17.0955 52.6459 17.0907C52.6468 17.0859 52.648 17.0808 52.6488 17.076C52.6497 17.0715 52.6509 17.0669 52.6518 17.0624C52.6526 17.0576 52.6538 17.0525 52.6547 17.0477C52.6556 17.0429 52.6558 17.0379 52.6566 17.0331L52.6625 17.0038C52.6633 16.9992 52.6636 16.9946 52.6645 16.9901L52.6703 16.9608C52.6712 16.956 52.6714 16.951 52.6723 16.9462C52.6731 16.9414 52.6743 16.9363 52.6752 16.9315C52.676 16.9269 52.6773 16.9224 52.6781 16.9178C52.679 16.9131 52.6802 16.908 52.6811 16.9032C52.6819 16.8984 52.6821 16.8933 52.683 16.8885L52.6889 16.8592C52.6897 16.8547 52.69 16.8501 52.6908 16.8456C52.6917 16.8408 52.6929 16.8357 52.6938 16.8309C52.6946 16.8261 52.6948 16.821 52.6957 16.8163C52.8449 16.8296 52.9953 16.8436 53.1479 16.8573H53.1518C55.1951 17.0231 57.2261 17.1695 59.3041 17.121L59.3031 17.12C59.7511 17.1107 59.7513 17.1119 60.2084 17.1024H60.2113C60.8025 17.0871 61.3938 17.0655 61.9848 17.037L61.9838 17.036C63.0453 17.0099 63.4665 17.006 63.7641 17.0848C64.0146 17.1513 64.1812 17.2776 64.6938 17.7118C64.9917 18.063 65.0007 18.0743 65.3227 18.454L65.3949 18.5389L65.4965 18.5848C65.9036 18.771 66.1342 18.8774 66.3725 18.9618C66.6109 19.0462 66.8539 19.1067 67.2807 19.2157C68.274 19.4992 68.8528 19.7309 69.6772 20.2547V21.5712L70.1537 21.5926C70.6422 21.6147 70.6608 21.6157 71.1234 21.6366C71.7205 21.7967 71.9215 21.8578 72.0912 21.9715C72.2682 22.0901 72.4261 22.2762 72.8549 22.8055C73.7287 24.4278 73.9706 25.8023 73.7856 27.6356C73.4632 28.4149 73.1067 28.8768 72.6615 29.2303C72.1841 29.6094 71.5849 29.8845 70.7201 30.2665L70.7104 30.2713L70.7016 30.2753C68.7034 31.26 67.6318 31.7851 66.7416 32.5126C65.8499 33.2413 65.1491 34.1661 63.8393 35.8846L63.7856 35.9549L63.7592 36.0399C62.9297 38.7228 63.0307 41.3252 64.2475 43.8768C64.3615 44.2198 64.4053 44.3566 64.4301 44.6561C64.4539 44.944 64.4567 45.3616 64.4574 46.1512H60.6137V45.5497L60.2709 45.4364C59.9482 45.3295 59.6247 45.2226 59.2943 45.1131C59.0486 44.8011 58.8023 44.4873 58.5492 44.1659V44.1649L58.3373 43.909C57.3567 42.7766 56.3359 42.3249 55.0229 41.8544V41.0653Z" fill="#5F87D6" stroke="#031B31"/>
<path d="M119.161 68.7432L114.638 61.9582C114.073 60.9069 113.13 59.4108 113.13 57.8914C113.13 54.5607 115.831 51.8603 119.161 51.8603C122.492 51.8603 125.193 54.5607 125.193 57.8914C125.193 59.4108 124.418 60.9069 123.685 61.9582L119.161 68.7432Z" fill="#225DD3"/>
<path d="M119.161 48.8448C114.165 48.8448 110.115 52.8954 110.115 57.8914C110.115 59.8586 110.76 61.6638 111.832 63.1422C111.851 63.1776 111.854 63.2172 111.876 63.2511L117.907 72.2977C118.187 72.7173 118.658 72.9691 119.161 72.9691C119.665 72.9691 120.136 72.7173 120.416 72.2977L126.447 63.2511C126.469 63.2172 126.472 63.1776 126.491 63.1422C127.563 61.6638 128.208 59.8586 128.208 57.8914C128.208 52.8954 124.157 48.8448 119.161 48.8448ZM123.685 61.9582L119.161 68.7432L114.638 61.9582C114.073 60.9069 113.13 59.4108 113.13 57.8914C113.13 54.5607 115.831 51.8603 119.161 51.8603C122.492 51.8603 125.193 54.5607 125.193 57.8914C125.193 59.4108 124.418 60.9069 123.685 61.9582Z" fill="#031B31"/>
<path d="M119.161 60.9069C120.827 60.9069 122.177 59.5568 122.177 57.8914C122.177 56.2259 120.827 54.8758 119.161 54.8758C117.496 54.8758 116.146 56.2259 116.146 57.8914C116.146 59.5568 117.496 60.9069 119.161 60.9069Z" fill="#F7C615"/>
<path d="M134.984 55.1198L130.461 48.3349C129.895 47.2836 128.953 45.7875 128.953 44.2681C128.953 40.9374 131.653 38.237 134.984 38.237C138.314 38.237 141.015 40.9374 141.015 44.2681C141.015 45.7875 140.24 47.2836 139.507 48.3349L134.984 55.1198Z" fill="#225DD3"/>
<path d="M134.984 35.2215C129.988 35.2215 125.937 39.2721 125.937 44.2681C125.937 46.2353 126.582 48.0405 127.654 49.5189C127.673 49.5543 127.676 49.5939 127.698 49.6278L133.729 58.6744C134.009 59.094 134.48 59.3458 134.984 59.3458C135.487 59.3458 135.959 59.094 136.238 58.6744L142.269 49.6278C142.292 49.5939 142.294 49.5543 142.313 49.5189C143.385 48.0405 144.03 46.2353 144.03 44.2681C144.03 39.2721 139.98 35.2215 134.984 35.2215ZM139.507 48.3349L134.984 55.1199L130.46 48.3349C129.895 47.2836 128.953 45.7875 128.953 44.2681C128.953 40.9374 131.653 38.237 134.984 38.237C138.314 38.237 141.015 40.9374 141.015 44.2681C141.015 45.7875 140.24 47.2836 139.507 48.3349Z" fill="#031B31"/>
<path d="M134.984 47.2836C136.649 47.2836 137.999 45.9335 137.999 44.2681C137.999 42.6026 136.649 41.2525 134.984 41.2525C133.318 41.2525 131.968 42.6026 131.968 44.2681C131.968 45.9335 133.318 47.2836 134.984 47.2836Z" fill="#F7C615"/>
<path d="M102.168 92.9885L97.6445 86.2035C97.0791 85.1522 96.1367 83.6561 96.1367 82.1367C96.1367 78.806 98.8372 76.1056 102.168 76.1056C105.498 76.1056 108.199 78.806 108.199 82.1367C108.199 83.6561 107.424 85.1522 106.691 86.2035L102.168 92.9885Z" fill="#225DD3"/>
<path d="M102.168 73.0901C97.1718 73.0901 93.1212 77.1408 93.1212 82.1367C93.1212 84.104 93.7661 85.9092 94.8382 87.3876C94.8574 87.423 94.8604 87.4626 94.8823 87.4965L100.913 96.5431C101.193 96.9626 101.664 97.2144 102.168 97.2144C102.671 97.2144 103.143 96.9626 103.422 96.5431L109.453 87.4965C109.476 87.4626 109.478 87.423 109.497 87.3876C110.569 85.9092 111.214 84.104 111.214 82.1367C111.214 77.1408 107.164 73.0901 102.168 73.0901ZM106.691 86.2036L102.168 92.9885L97.6445 86.2036C97.0791 85.1523 96.1367 83.6562 96.1367 82.1367C96.1367 78.8061 98.8371 76.1057 102.168 76.1057C105.498 76.1057 108.199 78.8061 108.199 82.1367C108.199 83.6562 107.424 85.1523 106.691 86.2036Z" fill="#031B31"/>
<path d="M102.168 85.1522C103.833 85.1522 105.183 83.8021 105.183 82.1367C105.183 80.4713 103.833 79.1212 102.168 79.1212C100.502 79.1212 99.1523 80.4713 99.1523 82.1367C99.1523 83.8021 100.502 85.1522 102.168 85.1522Z" fill="#F7C615"/>
<path d="M98.1133 62.4935L93.59 55.7086C93.0245 54.6573 92.0822 53.1612 92.0822 51.6417C92.0822 48.3111 94.7826 45.6107 98.1133 45.6107C101.444 45.6107 104.144 48.3111 104.144 51.6417C104.144 53.1612 103.37 54.6573 102.637 55.7086L98.1133 62.4935Z" fill="#225DD3"/>
<path d="M98.1133 42.5951C93.1173 42.5951 89.0667 46.6457 89.0667 51.6417C89.0667 53.609 89.7116 55.4142 90.7836 56.8925C90.8029 56.928 90.8059 56.9676 90.8277 57.0015L96.8588 66.0481C97.1385 66.4676 97.6097 66.7194 98.1133 66.7194C98.6169 66.7194 99.0881 66.4676 99.3677 66.0481L105.399 57.0015C105.421 56.9676 105.424 56.928 105.443 56.8925C106.515 55.4142 107.16 53.609 107.16 51.6417C107.16 46.6457 103.109 42.5951 98.1133 42.5951ZM102.637 55.7086L98.1133 62.4935L93.59 55.7086C93.0246 54.6573 92.0822 53.1612 92.0822 51.6417C92.0822 48.3111 94.7826 45.6107 98.1133 45.6107C101.444 45.6107 104.144 48.3111 104.144 51.6417C104.144 53.1612 103.37 54.6573 102.637 55.7086Z" fill="#031B31"/>
<path d="M98.1133 54.6573C99.7787 54.6573 101.129 53.3072 101.129 51.6418C101.129 49.9763 99.7787 48.6262 98.1133 48.6262C96.4478 48.6262 95.0977 49.9763 95.0977 51.6418C95.0977 53.3072 96.4478 54.6573 98.1133 54.6573Z" fill="#F7C615"/>
</svg>
