<svg width="101" height="100" viewBox="0 0 101 100" fill="none" xmlns="http://www.w3.org/2000/svg">
<g clip-path="url(#clip0_4_19)">
<circle cx="50.4862" cy="50.1483" r="49.8312" fill="#225DD3"/>
<path d="M26.8824 14.3243C26.9734 14.353 27.0643 14.3818 27.158 14.4114C28.8275 14.9974 30.2064 16.3831 31.0118 17.932C31.3764 18.7026 31.6696 19.4995 31.7286 20.3551C31.7407 20.4967 31.7407 20.4967 31.753 20.6411C31.7913 21.4712 31.6681 22.1949 31.4863 23.0003C31.134 24.5685 31.0301 26.1578 30.9136 27.7577C30.9016 27.9129 30.9016 27.9129 30.8894 28.0713C30.8744 28.2668 30.8605 28.4623 30.8479 28.6579C30.8051 29.2073 30.7404 29.7433 30.3286 30.1551C30.2825 30.4852 30.2429 30.8141 30.207 31.1453C30.1952 31.2512 30.1833 31.3571 30.1711 31.4661C30.145 31.6995 30.1191 31.933 30.0935 32.1664C30.0523 32.541 30.0105 32.9156 29.9686 33.2902C29.907 33.8416 29.8456 34.3931 29.7845 34.9446C29.6258 36.374 29.4657 37.8034 29.3051 39.2327C29.2472 39.7486 29.1895 40.2645 29.132 40.7804C29.0958 41.1051 29.0594 41.4297 29.0229 41.7543C29.0059 41.9061 28.989 42.0579 28.9722 42.2098C28.949 42.4187 28.9255 42.6276 28.902 42.8365C28.8888 42.9539 28.8757 43.0713 28.8622 43.1923C28.8245 43.4811 28.7743 43.7628 28.7132 44.0474C28.8465 44.0385 28.9797 44.0296 29.1171 44.0205C30.2173 44.0257 31.1636 44.4734 31.944 45.232C32.9427 46.3068 33.1496 47.5152 33.1488 48.9272C33.1489 49.0526 33.1489 49.178 33.149 49.3073C33.1434 50.2275 33.0805 51.1115 32.9132 52.0167C32.9986 52.0614 32.9986 52.0614 33.0857 52.107C33.3491 52.245 33.6124 52.3832 33.8757 52.5215C33.9652 52.5683 34.0547 52.6152 34.1468 52.6634C34.7456 52.9779 35.3389 53.3009 35.9286 53.632C36.2785 53.2902 36.6272 52.9473 36.975 52.6034C37.0934 52.4866 37.2121 52.3702 37.331 52.254C37.5024 52.0866 37.6726 51.9182 37.8427 51.7495C37.8957 51.6981 37.9488 51.6467 38.0035 51.5938C38.3074 51.29 38.4924 51.0278 38.6209 50.6167C38.5743 50.571 38.5276 50.5253 38.4796 50.4783C38.4196 50.4151 38.3596 50.3519 38.2978 50.2868C38.2079 50.195 38.2079 50.195 38.1161 50.1013C37.9057 49.7463 37.9241 49.5165 37.9748 49.109C38.1028 48.8088 38.2716 48.5452 38.4526 48.2743C38.5014 48.1991 38.5502 48.1238 38.6005 48.0463C39.0306 47.3938 39.5051 46.7883 40.0209 46.2013C40.0982 46.1109 40.1756 46.0205 40.2552 45.9274C41.9651 43.9685 43.9592 42.6698 46.4825 42.0013C46.5624 41.9797 46.6424 41.9582 46.7248 41.936C47.1815 41.8705 47.6373 41.8855 48.0979 41.8936C48.0778 41.8375 48.0578 41.7814 48.0372 41.7236C47.6557 40.6442 47.3031 39.5625 47.0411 38.4474C47.0202 38.3623 46.9993 38.2772 46.9777 38.1895C46.5498 36.2803 46.5526 34.2991 46.5562 32.3533C46.5565 31.9549 46.554 31.5567 46.5513 31.1584C46.551 30.9019 46.5509 30.6454 46.551 30.389C46.5501 30.2715 46.5491 30.154 46.548 30.033C46.5528 29.2506 46.6139 28.5006 47.103 27.8607C47.1714 27.8049 47.2398 27.7491 47.3104 27.6916C47.3774 27.6341 47.4445 27.5767 47.5135 27.5175C47.7553 27.3672 47.9388 27.3032 48.2077 27.2226C48.5528 27.0992 48.7041 26.9928 48.8786 26.669C48.944 26.5241 49.0067 26.378 49.0671 26.231C49.1384 26.0747 49.2103 25.9186 49.2829 25.7628C49.3185 25.6858 49.354 25.6087 49.3906 25.5293C49.8672 24.5498 50.5702 23.7117 51.3286 22.9397C51.4146 22.8511 51.5005 22.7625 51.589 22.6713C53.1633 21.1422 55.5138 19.9233 57.7431 19.9108C57.9024 19.9142 58.0617 19.9183 58.221 19.9243C58.2121 19.791 58.2032 19.6578 58.194 19.5204C58.2003 18.1819 58.9211 16.9666 59.8161 16.0137C61.2137 14.7019 62.9584 14.2743 64.8192 14.3016C67.4808 14.3886 69.5436 15.6831 71.5155 17.3468C72.7777 18.391 73.8034 18.868 75.4518 18.7397C76.1572 18.5645 76.7152 18.2144 77.2825 17.7704C77.5607 18.3268 77.4288 19.1238 77.2825 19.7089C76.8938 20.8462 76.1214 21.5645 75.1287 22.1858C74.984 22.2921 74.8401 22.3994 74.6979 22.5089C76.079 23.2621 76.079 23.2621 77.6056 23.5858C77.6843 23.5944 77.763 23.6031 77.8441 23.6119C78.4983 23.6521 79.0663 23.4566 79.6816 23.2493C79.9748 23.1551 79.9748 23.1551 80.1902 23.1551C80.1368 24.8117 79.6934 26.2025 78.5479 27.4358C77.5279 28.381 76.285 28.992 74.8796 28.9974C74.7113 28.9907 74.5429 28.9826 74.3748 28.9705C74.8645 29.5213 75.401 29.8151 76.0979 30.0474C76.3423 30.0577 76.587 30.0614 76.8316 30.0608C76.9611 30.0611 77.0906 30.0614 77.224 30.0617C77.5767 30.0485 77.9057 30.0065 78.2518 29.9397C77.5678 30.8973 76.5494 31.3209 75.4518 31.6628C75.3539 31.6938 75.3539 31.6938 75.254 31.7255C73.6181 32.0414 71.969 31.6027 70.5538 30.7709C69.1668 29.8248 68.3306 28.5956 67.6031 27.1129C67.1488 26.2014 66.568 25.4398 65.8469 24.7233C65.7588 24.6346 65.6706 24.5459 65.5798 24.4545C65.3564 24.2566 65.171 24.1315 64.8979 24.0166C64.9423 24.0576 64.9867 24.0985 65.0325 24.1407C66.7206 25.8627 66.9817 28.2549 66.9851 30.5384C66.9667 32.1153 66.6862 33.5387 66.2323 35.0429C65.9705 35.9569 65.7709 36.9263 66.1296 37.8416C66.3713 38.2523 66.6947 38.4671 67.0993 38.707C67.4106 38.9004 67.6824 39.1256 67.9671 39.3561C68.4491 39.713 68.4491 39.713 69.0239 39.7397C69.1016 39.7225 69.1793 39.7053 69.2594 39.6875C70.6398 39.4029 72.0425 39.7178 73.2453 40.4124C73.7139 40.7427 74.1169 41.1624 74.3748 41.6782C74.615 41.761 74.8579 41.8359 75.1017 41.907C76.4345 42.3258 77.4716 43.0803 78.4671 44.0474C78.586 44.1544 78.586 44.1544 78.7073 44.2636C79.956 45.4261 80.7934 46.9726 81.5902 48.4628C81.6601 48.5928 81.6601 48.5928 81.7314 48.7255C81.878 48.9988 82.0237 49.2725 82.1691 49.5465C82.214 49.631 82.2589 49.7156 82.3052 49.8028C83.0949 51.307 83.0949 51.307 82.9902 51.909C82.721 52.2051 82.721 52.2051 82.4518 52.4474C82.4291 52.6675 82.4291 52.6675 82.575 52.8147C83.0595 53.2946 83.5753 53.7221 84.1063 54.1495C84.4121 54.4041 84.6888 54.6742 84.9649 54.9601C85.1538 55.1495 85.3513 55.3227 85.5547 55.4965C87.3931 57.094 89.1586 59.1858 89.3625 61.7233C89.4317 62.9008 89.3287 63.9329 88.9133 65.0474C88.8731 65.1603 88.8328 65.2732 88.7913 65.3895C88.1408 67.0848 87.0122 68.3335 85.3809 69.1099C84.8672 69.315 84.4144 69.3688 83.8631 69.3694C83.7424 69.3696 83.6217 69.3697 83.4974 69.3699C83.3722 69.3695 83.2471 69.369 83.1181 69.3686C82.9942 69.369 82.8703 69.3694 82.7427 69.3699C82.097 69.3691 81.4747 69.3464 80.8364 69.2475C80.8597 69.3631 80.883 69.4787 80.9071 69.5979C80.9374 69.7525 80.9677 69.9072 80.9979 70.0619C81.0133 70.1377 81.0287 70.2136 81.0446 70.2918C81.1389 70.7787 81.1751 71.2284 81.1595 71.7244C81.2216 71.751 81.2838 71.7777 81.3479 71.8051C81.86 72.0896 82.1354 72.4743 82.3441 73.0167C82.4447 73.7711 82.2364 74.3305 81.8056 74.9552C81.5281 75.2214 81.2389 75.4936 80.8364 75.4936C80.8311 75.5541 80.8257 75.6145 80.8202 75.6768C80.7456 76.4755 80.634 77.267 80.5175 78.0606C80.4967 78.2036 80.4759 78.3466 80.4551 78.4896C80.4006 78.8644 80.3457 79.2393 80.2908 79.6141C80.2361 79.9885 80.1816 80.3629 80.1271 80.7373C80.0637 81.1733 80.0001 81.6093 79.9358 82.0451C79.8439 82.6677 79.7529 83.2904 79.6676 83.9139C79.6538 84.0127 79.64 84.1115 79.6257 84.2133C79.601 84.3896 79.5771 84.5661 79.5543 84.7427C79.4616 85.3949 79.3035 85.9399 78.8575 86.4446C77.7611 87.255 76.0061 87.3523 74.6979 87.5552C74.5917 87.5718 74.4855 87.5883 74.376 87.6054C70.8637 88.1315 65.7847 88.4955 62.656 86.4585C62.2685 86.1585 62.1806 85.985 61.9902 85.509C61.9902 85.0826 61.9902 84.6561 61.9902 84.2167C54.7048 84.2167 47.4194 84.2167 39.9132 84.2167C40.1825 83.4088 40.4802 82.6607 40.8286 81.8879C40.8729 81.7894 40.8729 81.7894 40.918 81.689C42.1597 78.9338 43.4745 76.2031 44.962 73.5715C45.0938 73.3181 45.2075 73.0725 45.2979 72.8013C45.2289 72.585 45.1565 72.3698 45.0825 72.1551C45.0497 71.8004 45.0524 71.4477 45.0555 71.0917C45.0547 70.9991 45.0539 70.9065 45.053 70.8111C45.0544 70.3675 45.0777 69.9708 45.1986 69.5428C45.3558 68.9046 45.1706 68.3954 44.9668 67.7835C44.9213 67.6456 44.8759 67.5076 44.8304 67.3697C44.8067 67.2982 44.783 67.2267 44.7585 67.1531C44.3894 66.0384 44.0324 64.9218 43.7229 63.7888C43.6962 63.6924 43.6696 63.5961 43.6422 63.4968C43.5339 63.0917 43.4671 62.78 43.4671 62.3551C42.9736 62.7177 42.4805 63.0807 41.988 63.4447C41.6358 63.7049 41.2825 63.9635 40.9279 64.2204C39.9501 64.9332 39.9501 64.9332 39.119 65.8076C38.4789 66.5724 37.7025 67.3257 36.6784 67.4415C34.7616 67.5883 33.3418 67.0009 31.8657 65.7723C31.5991 65.5359 31.3399 65.2937 31.0824 65.0474C31.0126 64.9844 30.9428 64.9214 30.8708 64.8565C30.4458 64.4602 30.175 64.0504 29.8898 63.5469C29.6166 63.1119 29.3047 62.7129 28.9892 62.308C28.3609 61.5 27.7684 60.6913 27.3132 59.7705C27.0721 61.5692 26.849 63.3694 26.646 65.1728C26.6231 65.3755 26.6002 65.5782 26.5772 65.7809C26.4993 66.4697 26.4216 67.1586 26.344 67.8475C26.2835 68.3834 26.2231 68.9193 26.1626 69.4553C26.1469 69.5944 26.1313 69.7335 26.1151 69.8768C25.9841 71.0384 25.8527 72.2 25.7212 73.3616C25.6363 74.1121 25.5515 74.8627 25.4671 75.6133C25.3918 76.2827 25.3162 76.952 25.2403 77.6214C25.2005 77.9714 25.161 78.3214 25.1218 78.6715C25.0785 79.0579 25.0346 79.4443 24.9906 79.8306C24.9781 79.9432 24.9656 80.0557 24.9528 80.1717C24.7415 82.0085 24.7415 82.0085 24.4228 82.4368C24.3109 82.5216 24.3109 82.5216 24.1969 82.6081C24.1226 82.6671 24.0483 82.7261 23.9718 82.7868C23.5327 83.0712 23.0822 83.0842 22.5747 83.0321C21.9636 82.8164 21.5725 82.4276 21.2824 81.8475C21.232 81.1049 21.312 80.3687 21.402 79.6325C21.4149 79.5234 21.4277 79.4143 21.4409 79.302C21.4835 78.9405 21.5271 78.5792 21.5706 78.2179C21.6012 77.9595 21.6318 77.7012 21.6624 77.4428C21.7361 76.8201 21.8104 76.1975 21.8849 75.5749C21.9798 74.7821 22.0738 73.9892 22.1678 73.1963C22.2024 72.9044 22.2371 72.6124 22.2717 72.3204C22.2846 72.2117 22.2846 72.2117 22.2977 72.1008C22.3589 71.585 22.4203 71.0692 22.4816 70.5534C22.7066 68.6628 22.9295 66.772 23.1502 64.8809C23.1641 64.7622 23.1779 64.6436 23.1922 64.5213C23.2977 63.6178 23.403 62.7142 23.5083 61.8106C23.5805 61.1909 23.6528 60.5712 23.7252 59.9515C23.757 59.6789 23.7887 59.4062 23.8204 59.1336C23.8395 58.9702 23.8586 58.8069 23.8777 58.6435C23.9021 58.4343 23.9021 58.4343 23.927 58.2208C23.9739 57.839 24.0267 57.4588 24.0824 57.0782C24.0225 57.0559 23.9625 57.0335 23.9007 57.0105C22.7402 56.542 22.0041 55.7625 21.47 54.6396C21.1135 53.7283 20.9848 52.5508 21.229 51.5871C21.3004 51.2978 21.2997 51.0112 21.3083 50.7145C21.3343 49.8677 21.4456 49.1613 21.7309 48.3572C21.828 48.0063 21.8317 47.7281 21.8142 47.3657C21.7878 46.5969 22.0419 46.0642 22.5137 45.4676C23.1996 44.7835 24.2378 44.627 25.1594 44.4782C25.1663 44.4167 25.1732 44.3553 25.1803 44.2919C25.525 41.2219 25.8746 38.1527 26.2433 35.0855C26.3665 34.0609 26.4883 33.0361 26.6102 32.0113C26.668 31.5258 26.7258 31.0403 26.7836 30.5547C26.8029 30.3924 26.8222 30.2301 26.8416 30.0677C26.855 29.9544 26.8685 29.8411 26.8824 29.7243C26.8136 29.6954 26.7447 29.6666 26.6738 29.6368C26.4517 29.5089 26.4517 29.5089 26.344 29.1858C26.2853 28.2494 26.238 27.0286 26.6671 26.1705C26.596 26.1705 26.5249 26.1705 26.4517 26.1705C26.4458 26.2322 26.44 26.2939 26.434 26.3574C26.2739 27.9913 26.0376 29.6069 25.7651 31.2253C25.7424 31.3631 25.7424 31.3631 25.7192 31.5038C25.1805 34.7545 24.2755 38.5662 21.4353 40.6164C20.9998 40.9162 20.5519 41.1921 20.0978 41.4628C20.0188 41.5108 19.9398 41.5589 19.8584 41.6083C18.952 42.1125 17.8906 42.2687 16.867 42.2166C16.867 42.1456 16.867 42.0745 16.867 42.0013C16.948 41.9373 17.0289 41.8733 17.1123 41.8073C17.8385 41.2207 18.2507 40.2704 18.5901 39.4166C18.5028 39.4816 18.4155 39.5466 18.3255 39.6135C17.584 40.1534 16.8984 40.5668 16.0055 40.8166C15.9301 40.8407 15.8547 40.8647 15.7771 40.8894C14.1726 41.3353 12.5043 41.0138 11.071 40.2348C10.8211 40.0516 10.7308 39.918 10.6209 39.632C10.7303 39.5836 10.8397 39.5351 10.9524 39.4852C12.6908 38.6852 13.7331 37.6165 14.7132 35.9705C14.5901 36.025 14.5901 36.025 14.4646 36.0807C12.935 36.7414 11.5008 37.0004 9.87796 36.4357C8.5745 35.8809 7.62661 35.0147 7.06702 33.7089C7.06702 33.6734 7.06702 33.6379 7.06702 33.6012C7.21153 33.5952 7.21153 33.5952 7.35896 33.589C9.18756 33.4896 10.5227 32.8906 11.8055 31.5551C13.7902 29.2469 14.4564 26.339 15.1788 23.4554C15.761 21.1512 16.5164 18.9772 18.0517 17.1243C18.1255 17.0316 18.1994 16.9388 18.2754 16.8433C20.324 14.4002 23.8272 13.2598 26.8824 14.3243Z" fill="#031B31"/>
<path d="M61.5594 47.5628C61.8838 47.8872 61.8966 48.1754 61.909 48.6141C61.9124 48.716 61.9157 48.8179 61.9192 48.9228C61.9226 49.0315 61.9261 49.1402 61.9296 49.2522C62.0217 51.5435 62.2782 53.4554 63.8075 55.2561C64.0364 55.532 64.0364 55.532 64.0364 55.7474C64.0969 55.7745 64.1574 55.8016 64.2198 55.8295C64.5039 55.9827 64.7307 56.1669 64.9787 56.3734C65.4358 56.7458 65.8987 57.0625 66.4056 57.3628C65.6513 59.4856 64.7471 61.4699 63.3473 63.2502C61.4004 65.6896 61.4004 65.6896 60.3205 68.5557C60.2597 68.8761 60.1944 69.1309 60.0517 69.4244C59.301 69.9311 58.3121 70.1683 57.4536 70.434C57.3208 70.4752 57.1879 70.5163 57.051 70.5587C55.9895 70.8805 54.9169 71.1379 53.8325 71.3696C53.7193 71.3941 53.7193 71.3941 53.6039 71.4192C52.1145 71.7391 51.3176 71.834 49.9825 71.033C49.8768 70.9726 49.7712 70.9121 49.6623 70.8498C47.7588 69.7409 47.7588 69.7409 47.4248 68.7917C47.3998 68.7226 47.3748 68.6535 47.3491 68.5824C47.2712 68.3617 47.199 68.1399 47.1286 67.9167C47.1054 67.843 47.0821 67.7693 47.0581 67.6933C46.916 67.2353 46.7844 66.7748 46.6553 66.313C46.5934 66.0972 46.5276 65.8831 46.4598 65.669C45.0174 61.0754 43.96 55.5874 46.2347 51.1039C46.7731 50.0921 47.4675 49.1898 48.2056 48.3167C48.4651 48.6455 48.6687 48.9873 48.8719 49.3532C49.4902 50.4183 50.1834 51.386 51.3286 51.9109C52.023 52.0556 52.6722 51.9771 53.3546 51.8099C53.4332 51.7907 53.5119 51.7715 53.5929 51.7517C56.5422 50.9976 59.2134 49.4848 61.5594 47.5628Z" fill="#ABCBE4"/>
<path d="M27.4614 15.9887C28.7404 16.8281 29.8478 18.0799 30.1874 19.6141C30.3503 20.9293 30.2579 22.2367 29.6826 23.4397C29.647 23.4397 29.6115 23.4397 29.5749 23.4397C29.5643 23.3408 29.5538 23.242 29.5429 23.1402C29.41 22.0497 29.2467 21.2661 28.3903 20.532C27.6079 19.9687 26.9718 19.9002 26.021 19.9935C24.8431 20.3456 24.0749 21.2668 23.5067 22.3144C22.6903 24.0186 22.4438 25.8429 22.1495 27.6914C21.5353 31.5401 20.7208 35.8076 17.4056 38.3013C16.4852 38.8651 15.3854 39.3599 14.2825 39.2705C14.367 39.1728 14.4514 39.075 14.5383 38.9743C14.6262 38.8713 14.6262 38.8713 14.7158 38.7661C14.8727 38.5823 15.0304 38.3993 15.1887 38.2167C16.886 36.2297 17.9704 33.5976 17.9576 30.958C17.958 30.8711 17.9584 30.7843 17.9588 30.6948C17.9587 30.6113 17.9585 30.5278 17.9584 30.4418C17.9582 30.3287 17.9582 30.3287 17.958 30.2133C17.951 29.9847 17.951 29.9847 17.8364 29.6859C17.8075 29.7797 17.7786 29.8735 17.7489 29.9702C17.064 32.052 15.5692 33.9411 13.5935 34.9426C12.6463 35.375 11.4106 35.4877 10.4018 35.1891C10.1778 35.089 9.96769 34.9847 9.75946 34.8551C9.75946 34.784 9.75946 34.7129 9.75946 34.6397C9.93521 34.567 9.93521 34.567 10.1145 34.4929C11.2276 34.0135 12.0579 33.4805 12.8825 32.5936C12.9685 32.5017 13.0544 32.4098 13.1429 32.3151C15.0665 30.1101 15.6829 27.3021 16.3746 24.5413C17.1305 21.5314 18.1025 17.9288 20.9524 16.206C23.014 15.0577 25.3349 14.7869 27.4614 15.9887Z" fill="#E89901"/>
<path d="M51.1134 52.5167C51.2211 52.732 51.2211 52.732 51.129 53.0505C51.0814 53.189 51.0336 53.3274 50.9855 53.4657C50.7544 54.1668 50.5834 54.8672 50.447 55.5926C50.4304 55.6801 50.4138 55.7676 50.3967 55.8578C50.3448 56.1436 50.2981 56.4299 50.2518 56.7167C50.2322 56.8255 50.2126 56.9343 50.1923 57.0465C49.9718 58.4179 50.0128 59.7941 50.023 61.1792C50.0241 61.4364 50.0251 61.6937 50.0259 61.9509C50.0283 62.5754 50.0319 63.1999 50.0365 63.8244C50.4099 63.8116 50.7833 63.7971 51.1567 63.7823C51.3133 63.777 51.3133 63.777 51.473 63.7715C55.0381 63.6252 58.162 61.6931 60.5534 59.1369C61.496 58.1031 62.3288 56.9739 63.0328 55.7659C63.2015 55.4884 63.3931 55.2389 63.6057 54.9936C64.0365 55.5051 64.1848 55.6705 64.1848 55.6705C64.4057 55.866 64.7308 56.1669 64.9788 56.3734C65.4359 56.7458 65.8989 57.0625 66.4057 57.3628C65.6515 59.4856 64.7472 61.4699 63.3474 63.2502C61.4006 65.6896 61.4006 65.6896 60.3207 68.5557C60.2598 68.8761 60.1946 69.1309 60.0519 69.4244C59.3012 69.9311 58.3122 70.1683 57.4538 70.434C57.3209 70.4752 57.188 70.5163 57.0511 70.5587C55.9896 70.8805 54.9171 71.1379 53.8326 71.3696C53.7195 71.3941 53.7195 71.3941 53.604 71.4192C52.1146 71.7391 51.3178 71.834 49.9826 71.033C49.877 70.9726 49.7713 70.9121 49.6625 70.8498C47.7589 69.7409 47.7589 69.7409 47.4249 68.7917C47.3999 68.7226 47.375 68.6535 47.3492 68.5824C47.2713 68.3617 47.1991 68.1399 47.1288 67.9167C47.1055 67.843 47.0822 67.7693 47.0583 67.6933C46.9162 67.2353 46.7845 66.7748 46.6554 66.313C46.5935 66.0972 46.5277 65.8831 46.4599 65.669C46.1483 64.6755 45.9103 63.6705 45.6884 62.6532C45.6439 62.4523 45.6439 62.4523 45.5986 62.2473C45.5585 62.0589 45.5585 62.0589 45.5176 61.8666C45.4813 61.6971 45.4813 61.6971 45.4442 61.5242C45.4057 61.2398 45.4057 61.2398 45.5134 60.9167C45.5889 60.9791 45.6644 61.0416 45.7422 61.106C47.4023 62.5448 47.4023 62.5448 49.3903 63.3936C49.3548 63.287 49.3192 63.1804 49.2826 63.0705C49.0412 59.4987 49.587 55.9117 51.0057 52.6244C51.0412 52.5888 51.0768 52.5533 51.1134 52.5167Z" fill="#719BBE"/>
<path d="M83.3133 58.7628C83.3881 58.811 83.463 58.8592 83.5401 58.9088C84.6781 59.7052 85.3682 60.858 85.6826 62.209C85.845 63.7062 85.6509 65.1715 84.7844 66.4338C84.4148 66.8278 84.1084 66.9654 83.5729 66.9828C83.3809 66.9818 83.1889 66.9789 82.997 66.9744C82.8971 66.9732 82.7972 66.972 82.6942 66.9708C81.8929 66.9581 81.0959 66.9149 80.2979 66.8398C80.3157 66.7398 80.3335 66.6399 80.3518 66.5369C80.4753 65.6224 80.4599 64.8875 80.0691 64.0393C79.9749 63.8244 79.9749 63.8244 79.9749 63.609C79.9038 63.609 79.9072 63.4768 79.834 63.4768C79.834 63.4768 79.834 63.4768 79.8595 63.9354C79.8566 64.543 79.6912 65.2385 79.2938 65.7204C78.9482 66.0297 78.5883 66.185 78.1441 66.3013C78.1441 66.0881 78.1441 65.8748 78.1441 65.6552C78.0829 65.7515 78.0216 65.8478 77.9586 65.9471C76.2215 68.6723 76.2215 68.6723 75.562 68.8287C75.1452 68.8599 74.9292 68.7895 74.5902 68.5494C74.3274 68.1716 74.3335 68.0472 74.3748 67.5936C74.4629 67.2641 74.5756 66.9451 74.6912 66.6244C74.8824 66.0868 75.0566 65.5785 75.1287 65.009C74.5064 66.1027 73.9077 67.1923 73.4056 68.3475C72.9013 68.266 72.5433 68.1085 72.221 67.7013C72.0088 66.8919 72.2444 66.2182 72.4768 65.433C72.7909 64.373 72.7909 64.373 72.9748 63.2859C72.3569 64.5249 71.8579 65.7737 71.4272 67.0896C71.3595 67.2705 71.3595 67.2705 71.2518 67.3782C70.7902 67.3605 70.5559 67.3182 70.195 67.0215C69.73 66.4502 69.73 66.4502 69.7731 65.9946C69.8871 65.2641 70.0919 64.5481 70.2735 63.8322C70.3022 63.7162 70.3308 63.6002 70.3604 63.4807C70.3867 63.3761 70.4131 63.2715 70.4403 63.1637C70.501 62.8388 70.5079 62.5387 70.4979 62.209C69.8712 63.4777 69.3219 64.7403 68.8825 66.0859C68.336 66.0178 68.0271 65.9064 67.6298 65.5294C67.4248 65.2548 67.3945 65.0084 67.4228 64.6712C67.7254 63.1089 68.293 60.7837 69.4875 59.6786C70.2356 59.1805 71.1996 59.4117 72.025 59.5747C72.1167 59.5923 72.2085 59.6099 72.3031 59.628C72.4967 59.6654 72.6902 59.7033 72.8836 59.7416C73.172 59.7984 73.4608 59.8531 73.7497 59.9075C74.701 60.0909 75.6329 60.3057 76.5577 60.5957C76.6386 60.621 76.7194 60.6463 76.8027 60.6724C77.9197 61.0374 78.9832 61.5356 79.8672 62.3167C79.3395 61.2653 78.7492 60.4565 77.821 59.7321C78.2699 59.3349 78.7422 59.0971 79.2816 58.8503C79.4035 58.793 79.4035 58.793 79.5279 58.7344C80.6991 58.1906 82.1838 58.0317 83.3133 58.7628Z" fill="#F2C213"/>
<path d="M48.0978 33.3474C48.1636 33.4011 48.2294 33.4548 48.2972 33.5101C49.3961 34.2841 50.4633 34.1961 51.7594 34.1618C51.9817 34.1585 52.204 34.1555 52.4263 34.1527C54.4414 34.1215 56.4557 34.0488 58.4457 33.7133C58.7403 33.673 59.002 33.6394 59.2978 33.6704C59.5937 33.7015 59.4694 34.3419 59.7286 34.532C60.0527 34.7061 60.3717 34.8201 60.7248 34.9224C60.8208 34.9504 60.9169 34.9784 61.0159 35.0073C61.0886 35.0282 61.1614 35.049 61.2363 35.0704C60.8693 37.0387 59.9245 38.6252 58.6517 40.132C58.5857 40.2106 58.5198 40.2891 58.4519 40.3701C56.996 41.9492 54.9684 43.0143 52.9776 43.7397C52.8261 43.7964 52.8261 43.7964 52.6715 43.8542C51.9234 44.1133 51.2556 44.1602 50.4671 44.1166C50.0587 43.1789 49.7105 42.2292 49.3969 41.256C49.3737 41.1845 49.3506 41.113 49.3267 41.0394C48.6255 38.8604 48.0689 36.6576 48.0911 34.357C48.0916 34.2591 48.0921 34.1612 48.0926 34.0604C48.0938 33.8227 48.0956 33.585 48.0978 33.3474Z" fill="#E89800"/>
<path d="M75.7432 44.5648C77.1645 45.6072 78.2932 47.0888 79.1134 48.6398C79.1134 48.7109 79.1134 48.782 79.1134 48.8552C79.0435 48.8562 78.9737 48.8572 78.9017 48.8582C76.2011 48.907 74.1845 49.4736 72.0124 51.0877C70.8432 51.9542 69.8017 52.2524 68.3441 52.086C67.3373 51.8204 66.7136 51.0674 66.1768 50.2148C65.8934 49.0408 66.5746 47.6948 67.1364 46.6757C68.1252 45.1101 69.4651 43.9618 71.2846 43.5177C72.9255 43.2513 74.3838 43.6399 75.7432 44.5648Z" fill="#ABCBE4"/>
<path d="M62.2057 24.1935C63.3911 25.1193 64.1743 26.4392 64.4268 27.9291C64.5286 28.9027 64.4588 29.8072 64.2518 30.7628C64.1807 30.6895 64.1097 30.6162 64.0364 30.5406C63.1255 29.5773 63.1255 29.5773 61.9095 29.2147C61.3519 29.227 60.9376 29.3633 60.4826 29.6858C60.3493 29.8358 60.3493 29.8358 60.2134 29.9887C59.9441 30.2243 59.9441 30.2243 59.5554 30.2028C59.0682 30.126 58.6079 29.9879 58.1403 29.8339C58.0522 29.8054 57.9641 29.7768 57.8734 29.7474C57.594 29.6562 57.3152 29.5635 57.0364 29.4704C56.9012 29.4258 56.9012 29.4258 56.7631 29.3802C55.7539 29.0453 54.7612 28.6823 53.7855 28.2589C53.6606 28.2057 53.6606 28.2057 53.5332 28.1515C53.3325 28.0618 53.1376 27.9594 52.9441 27.8551C52.8364 27.532 52.8364 27.532 52.9407 27.2518C53.8327 25.4907 55.1246 24.0127 57.0028 23.2849C58.7648 22.7546 60.6918 23.1985 62.2057 24.1935Z" fill="#0572B1"/>
<path d="M69.486 59.6873C69.7347 59.7583 70.2719 60.0131 70.548 60.1378C70.919 60.3571 71.4499 60.7016 71.8542 60.9631C72.0996 61.1218 72.4377 61.3388 72.609 61.4103C72.6801 61.437 72.7512 61.4636 72.8244 61.4911C73.4898 61.7683 74.1209 62.1144 74.7562 62.4536C74.8244 62.49 74.8926 62.5264 74.9628 62.5639C75.3468 62.7691 75.7302 62.9751 76.1133 63.1818C76.2756 63.2689 76.438 63.356 76.6004 63.443C76.676 63.4841 76.7516 63.5251 76.8294 63.5674C77.5508 63.9865 77.5508 63.9865 78.35 64.0606C78.4256 64.03 78.5013 63.9995 78.5792 63.968C78.7021 63.9212 78.7021 63.9212 78.8274 63.8734C78.9077 63.8424 78.9879 63.8115 79.0706 63.7796C79.3208 63.7031 79.5723 63.6339 79.8244 63.5642C79.9614 64.2489 79.9395 64.7677 79.6091 65.395C79.2626 65.8148 78.5917 66.3353 78.0702 66.4719C78.0702 66.2587 78.0702 66.1101 78.0702 65.8904C78.009 65.9867 78.1943 65.6953 78.1312 65.7946C76.601 68.6575 75.7984 68.7666 75.7984 68.7666C75.7064 68.8126 75.1769 68.9949 74.606 68.5629C74.2659 68.1537 74.3198 67.8704 74.4305 67.4347C74.5185 67.1052 74.6231 66.8211 74.7388 66.5004C74.93 65.9628 74.9782 65.7825 75.1 65.2055C74.4778 66.2992 74.0803 67.0398 73.5783 68.195C73.0739 68.1135 72.7159 67.956 72.3937 67.5488C72.1815 66.7394 72.4171 66.0657 72.6494 65.2805C72.9636 64.2205 72.9636 64.2205 73.1475 63.1334C72.5296 64.3724 72.0306 65.6212 71.5999 66.9371C71.5321 67.118 71.5321 67.118 71.4244 67.2257C70.9629 67.208 70.7286 67.1657 70.3677 66.869C69.9026 66.2977 69.9026 66.2977 69.9458 65.8421C70.0598 65.1116 70.2646 64.3956 70.4462 63.6797C70.4748 63.5637 70.5035 63.4477 70.533 63.3282C70.5594 63.2236 70.5858 63.119 70.613 63.0112C70.6736 62.6863 70.6806 62.3862 70.6706 62.0565C70.0439 63.3252 69.4945 64.5878 69.0552 65.9334C68.5086 65.8653 68.1997 65.7539 67.8024 65.3769C67.5975 65.1023 67.5671 64.8559 67.5955 64.5187C67.9219 62.8335 68.5363 61.1185 69.486 59.6873Z" fill="#E69901"/>
<path d="M71.5748 41.532C71.779 41.7002 71.9393 41.8693 72.1133 42.0705C71.9977 42.0844 71.9977 42.0844 71.8798 42.0987C70.1122 42.3479 68.4972 43.1027 67.3504 44.5012C66.3377 45.8887 65.8063 47.3378 65.9748 49.0705C66.1301 49.9855 66.5654 50.8037 67.2604 51.4263C67.9189 51.8832 68.4576 52.0368 69.246 52.0253C69.3272 52.0242 69.4085 52.0231 69.4922 52.0219C70.134 52.001 70.5994 51.9003 71.1441 51.5474C71.2014 51.5104 71.2588 51.4734 71.3179 51.4352C71.6634 51.2108 72.0056 50.9818 72.3463 50.7503C74.1416 49.5317 75.7488 48.8089 77.9354 48.8417C78.0594 48.8426 78.1835 48.8436 78.3113 48.8446C78.6145 48.8471 78.9178 48.8507 79.221 48.8551C79.329 49.0502 79.4366 49.2454 79.5441 49.4407C79.604 49.5494 79.664 49.6581 79.7258 49.7701C79.8671 50.0397 79.8671 50.0397 79.8671 50.1474C79.7875 50.1479 79.7079 50.1483 79.6259 50.1488C77.4222 50.1476 77.4222 50.1476 75.3441 50.7936C75.2589 50.8339 75.1738 50.8742 75.0861 50.9158C73.982 51.4473 72.9474 52.0428 71.9501 52.7542C70.6795 53.6555 69.4856 54.1426 67.9133 54.0244C66.6656 53.8104 65.5637 53.0757 64.7902 52.0859C64.4934 51.606 64.2561 51.0974 64.0363 50.5782C63.995 50.4817 63.9536 50.3852 63.911 50.2858C63.5228 48.7601 63.7507 47.0544 64.3594 45.6243C64.4377 45.4309 64.4377 45.4309 64.5176 45.2335C65.3779 43.3125 66.9847 42.0483 68.9162 41.283C69.8361 41.1115 70.7339 41.0965 71.5748 41.532Z" fill="#F4C815"/>
<path d="M27.457 16.0102C28.5865 16.7515 29.9992 18.0809 30.1827 19.5961C30.1886 19.6443 29.8099 19.063 29.2666 18.51C29.1475 18.3421 28.3522 17.7804 28.3522 17.7804C27.0643 16.8209 25.648 16.5699 24.0782 16.7842C23.6039 16.9053 23.2075 17.0762 22.7859 17.3227C22.6978 17.3732 22.6098 17.4237 22.5191 17.4758C21.7297 17.9669 21.1152 18.5739 20.632 19.3688C20.5836 19.4449 20.5351 19.521 20.4852 19.5994C19.658 20.9245 19.2426 22.1445 18.9547 23.6632C18.8771 24.0509 18.7704 24.4288 18.6603 24.8081C18.6105 24.9878 18.5664 25.1692 18.5282 25.3517C17.8842 28.363 16.0967 31.6779 13.4974 33.416C12.777 33.841 12.0876 34.004 11.2628 34.1227C11.5667 33.814 11.872 33.5179 12.2051 33.241C15.0505 30.7479 15.8122 27.0048 16.6608 23.4813C17.3161 20.7852 18.4265 18.0465 20.7397 16.3534C22.8286 15.0907 25.2597 14.7683 27.457 16.0102Z" fill="#F6C715"/>
<path d="M68.7748 17.1934C69.2439 17.5174 69.6657 17.8789 70.0793 18.2703C71.3942 19.5011 72.8378 20.0333 74.5902 20.3165C74.3277 20.6343 74.1345 20.6993 73.7287 20.7473C72.5296 20.8242 71.5307 20.7214 70.3902 20.3165C70.4477 20.378 70.5052 20.4395 70.5644 20.5029C71.036 21.0161 71.4741 21.5358 71.8912 22.0934C72.7806 23.2643 73.7063 24.0823 75.021 24.7319C75.1026 24.7731 75.1842 24.8144 75.2683 24.8568C76.0613 25.1872 76.9793 25.0811 77.821 25.055C77.2747 25.6541 76.6302 25.8731 75.8308 25.9548C74.1705 25.9928 72.957 25.3947 71.7519 24.275C71.2312 23.732 70.7769 23.1354 70.3153 22.5421C68.7334 20.5208 66.7064 19.2669 64.144 18.9165C64.1796 18.8454 64.2151 18.7743 64.2517 18.7011C64.8808 18.5042 65.4804 18.4441 66.1364 18.4184C66.2249 18.4143 66.3135 18.4101 66.4047 18.4058C66.6204 18.3958 66.8361 18.3868 67.0517 18.378C65.5546 17.7575 64.0044 17.3965 62.4312 18.0299C61.6034 18.3927 60.8397 18.7884 60.1901 19.428C60.0517 19.5627 60.0517 19.5627 59.944 19.5627C59.8885 18.6151 60.4224 17.8977 61.021 17.2002C61.3547 16.8469 61.6649 16.5611 62.0979 16.3319C62.1717 16.292 62.2456 16.2522 62.3217 16.2111C64.4223 15.2566 66.9137 16.0797 68.7748 17.1934Z" fill="#ABCBE4"/>
<path d="M26.9901 18.055C27.2457 18.1855 27.6362 18.4125 27.6362 18.4858C27.3099 18.4314 27.9561 18.5391 27.6362 18.4858C27.6362 18.4492 27.6362 18.5213 27.6362 18.4858C27.5592 18.4808 27.4821 18.4758 27.4028 18.4706C26.2279 18.4281 25.1198 18.6459 24.2098 19.4306C22.4423 21.2329 21.7783 23.3934 21.3892 25.8295C21.3106 26.3204 21.2284 26.8107 21.1461 27.301C21.122 27.4444 21.122 27.4444 21.0975 27.5907C20.8238 29.2098 20.4771 30.8092 19.9901 32.3781C19.9676 32.4592 19.9451 32.5403 19.9219 32.6238C19.668 33.4853 19.216 34.2756 18.8055 35.0704C18.6066 35.4554 18.5358 35.769 18.1054 36.1844C17.5008 36.7677 17.1638 37.1025 16.5439 37.4397C16.1737 37.5272 15.9555 37.5762 15.6795 37.5964C15.8987 37.2737 16.1436 36.8988 16.3409 36.6083C17.2773 35.0704 17.8921 33.0982 17.9537 31.3211C17.9582 31.1968 17.9518 31.0307 17.9565 30.9027C17.9607 30.7746 17.9751 30.2081 17.9441 30.0724C17.8606 29.7062 17.8351 29.6894 17.8351 29.6894C17.7985 29.6894 17.8707 29.6894 17.8351 29.6894C17.8351 29.6894 18.2304 29.9292 18.267 30.332C18.2881 30.2463 18.3092 30.1606 18.3309 30.0724C18.4521 29.5843 18.5746 29.0965 18.6978 28.6089C18.7284 28.4876 18.759 28.3662 18.7906 28.2413C19.0417 27.2496 19.2983 26.2595 19.5593 25.2704C19.5914 25.1479 19.6235 25.0254 19.6566 24.8992C20.2583 22.6285 21.0627 20.0753 23.0055 18.5935C23.0611 18.5428 23.1168 18.4921 23.1741 18.4399C24.1672 17.5962 25.8547 17.4752 26.9901 18.055Z" fill="#F7C615"/>
<path d="M32.2671 53.5936C33.5795 53.9955 34.9106 54.8367 35.6123 56.0436C36.2281 57.2269 36.0105 58.7281 35.6267 59.9517C35.2285 61.1252 34.6471 62.004 33.5258 62.5725C32.9998 62.792 32.5058 62.7897 31.9441 62.7475C32.0151 62.6742 32.0862 62.6009 32.1594 62.5254C32.4326 62.1242 32.4322 61.9337 32.3748 61.4552C32.1977 61.2127 32.0429 61.0329 31.8296 60.8292C31.7195 60.7166 31.6099 60.6036 31.5007 60.4902C31.4203 60.4071 31.4203 60.4071 31.3384 60.3224C30.9884 59.9456 30.7131 59.5176 30.4364 59.0859C30.3984 59.0274 30.3604 58.9688 30.3213 58.9084C29.5748 57.7521 29.5748 57.7521 29.5748 57.3629C29.7566 57.2203 29.7566 57.2203 30.0056 57.0734C31.2039 56.3022 31.8449 55.3244 32.1998 53.9369C32.2332 53.767 32.2332 53.767 32.2671 53.5936Z" fill="#E79901"/>
<path d="M26.7748 45.8396C26.7257 46.0237 26.6763 46.2076 26.6268 46.3916C26.5855 46.5452 26.5855 46.5452 26.5435 46.702C26.5132 46.8084 26.4829 46.9147 26.4518 47.0243C26.4155 47.1963 26.4155 47.1963 26.3786 47.3717C26.2364 47.6704 26.2364 47.6704 25.9083 47.8202C25.7766 47.8507 25.645 47.8813 25.5095 47.9127C25.379 47.9444 25.2485 47.976 25.114 48.0086C24.9869 48.0392 24.3913 48.108 24.2603 48.1395C24.0442 48.2089 23.9952 48.3044 23.9952 48.4085C24.4256 48.4623 24.8329 48.4848 25.2941 48.4848C25.534 48.5004 25.7738 48.5159 26.021 48.532C25.9855 49.1361 25.9499 49.7403 25.9133 50.3627C25.3091 50.4338 24.705 50.5049 24.0825 50.5781C24.0825 50.6492 24.0825 50.7203 24.0825 50.7935C24.2886 50.8391 24.4947 50.8846 24.7008 50.9302C24.8774 50.9694 25.0539 51.0089 25.2304 51.0487C25.6338 51.1394 26.0365 51.2273 26.4425 51.3059C27.4457 51.5065 27.4457 51.5065 27.7845 51.7964C27.9595 52.0858 27.9595 52.0858 27.9595 52.4223C27.8036 52.8704 27.8036 52.8704 27.5287 53.055C27.2557 53.043 27.015 53.0148 26.7479 52.9675C26.1354 52.8751 25.537 52.8144 24.9171 52.8127C24.7231 52.8119 24.7231 52.8119 24.5251 52.811C24.2075 52.8382 24.0267 52.8883 23.7594 53.055C24.3566 53.4225 24.9487 53.4688 25.6373 53.5397C27.0493 53.6854 27.0493 53.6854 27.6364 54.0243C27.7373 54.4214 27.7373 54.4214 27.7441 54.7781C26.9446 55.3654 26.3313 55.5222 25.3479 55.4916C25.2349 55.4923 25.1219 55.493 25.0055 55.4937C24.3618 55.4847 23.9336 55.4429 23.4364 54.9935C23.2631 54.7857 23.2631 54.7857 23.1402 54.5762C23.0777 54.4733 23.0777 54.4733 23.014 54.3684C22.7138 53.757 22.6486 53.2326 22.6556 52.5637C22.6548 52.4838 22.6539 52.4039 22.6531 52.3216C22.6547 51.8591 22.7241 51.5475 22.8979 51.1166C22.902 50.8586 22.8967 50.6003 22.8844 50.3425C22.8662 49.7132 22.9618 49.2705 23.234 48.7053C23.3939 48.2305 23.3427 47.7557 23.3123 47.2611C23.331 46.8671 23.4104 46.6867 23.6518 46.3781C24.597 45.8966 25.7286 45.8223 26.7748 45.8396Z" fill="#F2C213"/>
<path d="M46.7114 75.1165L48.744 76.7474C48.6821 77.4397 48.5136 78.0487 48.2931 78.7061C47.9107 79.8762 47.5666 81.0541 47.2363 82.2398C47.2099 82.3344 47.1834 82.4291 47.1562 82.5267C47.0026 83.077 46.8501 83.6276 46.6979 84.1782C45.4896 84.1782 44.2812 84.1782 43.0363 84.1782C43.1574 83.4517 43.1574 83.4517 43.3203 83.0782C43.3731 82.9553 43.3731 82.9553 43.4269 82.8299C43.4646 82.744 43.5023 82.6581 43.5411 82.5696C43.62 82.3861 43.6989 82.2025 43.7775 82.0189C43.8164 81.9284 43.8554 81.838 43.8954 81.7448C44.0477 81.3869 44.192 81.0263 44.3354 80.6647C44.6564 79.856 44.9869 79.0514 45.3198 78.2475C45.3959 78.0631 45.4713 77.8783 45.5465 77.6935C45.9017 76.826 46.31 75.9633 46.7114 75.1165Z" fill="#719BBE"/>
<path d="M78.0478 52.8027C78.8339 52.7437 79.2834 53.1032 79.8672 53.5935C80.1235 53.8223 80.376 54.0544 80.6278 54.2881C81.1006 54.6986 81.6038 55.0662 82.1093 55.4353C82.2969 55.573 82.4823 55.7137 82.6672 55.8551C82.6672 55.8906 82.6672 55.9262 82.6672 55.9628C82.5461 55.9708 82.4249 55.9789 82.3 55.9872C80.1978 56.1551 78.5569 56.9653 76.9595 58.332C76.6474 58.1892 76.4119 58.031 76.1586 57.8003C75.7553 57.4396 75.3463 57.0866 74.9336 56.7368C74.8729 56.6851 74.8123 56.6334 74.7498 56.5801C74.4881 56.3584 74.0145 55.9806 73.7288 55.7901C73.7258 55.8691 73.7318 55.7111 73.7288 55.7901C73.7398 55.3383 73.8465 55.0489 74.1528 54.731C75.2662 53.7099 76.5529 53.0467 78.0478 52.8027Z" fill="#719BBE"/>
<path d="M51.6854 28.9319C54.032 30.0672 56.4795 30.8911 58.9748 31.6243C58.9748 31.6953 58.9748 31.7664 58.9748 31.8396C56.4539 32.1757 54.0105 32.2224 51.4767 32.0685C51.3356 32.0601 51.1944 32.0516 51.049 32.043C49.2229 31.9189 49.2229 31.9189 48.5892 31.4089C48.5183 31.3533 48.4473 31.2978 48.3742 31.2406C48.1666 31.0501 48.104 30.9321 48.076 30.6517C48.0497 29.2671 48.0497 29.2671 48.4209 28.7166C49.6471 27.9026 50.4992 28.339 51.6854 28.9319Z" fill="#E89800"/>
<path d="M62.5286 75.9936C62.6714 76.0343 62.8143 76.0749 62.9572 76.1156C63.0416 76.1396 63.1259 76.1636 63.2129 76.1883C63.3875 76.2381 63.5214 76.2885 63.7366 76.3383C63.7366 76.3383 65.1194 76.6507 65.199 76.6733C65.2036 76.7793 65.2302 76.8517 65.235 76.9609C65.3015 78.3518 65.4275 79.7357 65.5608 81.1216C65.5981 81.5095 65.6348 81.8975 65.6714 82.2854C65.6951 82.5342 65.7188 82.7831 65.7425 83.0319C65.7534 83.1468 65.7643 83.2616 65.7755 83.38C65.8292 83.9359 65.8931 84.4873 65.9747 85.0398C65.9812 85.2169 65.9842 85.3943 65.9815 85.5715C65.9805 85.6546 65.9795 85.7378 65.9785 85.8235C65.9773 85.8847 65.976 85.9969 65.9747 86.06C65.7009 85.993 65.4017 85.9295 65.1281 85.8619C65.2072 85.8813 65.0513 85.8432 65.1281 85.8619C64.6819 85.7514 63.8334 85.5318 63.6055 85.3628C63.5897 85.2312 63.5513 85.1173 63.535 84.9817C63.5107 84.7826 63.4515 84.2443 63.427 84.0452C63.441 84.1592 63.4134 83.9345 63.427 84.0452C63.3267 83.2415 63.2339 82.4255 63.1209 81.6235C63.0919 81.4162 63.0628 81.2089 63.0338 81.0016C62.9905 80.6917 62.9468 80.3819 62.9022 80.0722C62.7061 78.7122 62.5762 77.3671 62.5286 75.9936Z" fill="#005A9C"/>
<path d="M30.2277 45.8397C30.8888 46.2003 31.3806 46.657 31.639 47.3726C31.7377 47.8193 31.7658 48.2246 31.7623 48.6801C31.7614 48.8068 31.7614 48.8068 31.7604 48.9361C31.7287 50.5018 31.316 51.9598 30.8397 53.4422C30.7839 53.6221 30.732 53.8031 30.6831 53.9849C30.4128 54.9763 29.8485 55.6307 28.9892 56.1984C28.8626 56.2628 28.736 56.3272 28.6055 56.3936C28.5345 56.358 28.4634 56.3225 28.3902 56.2859C28.4368 56.2037 28.4834 56.1215 28.5315 56.0368C28.689 55.724 28.7806 55.4132 28.868 55.0743C29.2458 53.6246 29.2458 53.6246 29.6326 53.1939C29.8468 52.8588 29.835 52.6097 29.8415 52.2138C29.844 52.1086 29.844 52.1086 29.8466 52.0014C29.8517 51.7783 29.8547 51.5552 29.8575 51.332C29.8614 51.1089 29.8658 50.8858 29.8707 50.6627C29.8749 50.4602 29.8779 50.2577 29.8809 50.0553C29.8949 49.7757 29.9301 49.5524 30.0055 49.2859C30.0181 49.0663 30.0244 48.8462 30.0257 48.6263C30.0273 48.5127 30.0288 48.3991 30.0304 48.2821C30.0353 47.9771 30.0353 47.9771 29.7902 47.7782C29.7641 47.8406 29.738 47.9031 29.7111 47.9675C29.3933 48.7081 29.0466 49.4361 28.3902 49.932C28.0615 49.9815 27.7498 49.9796 27.4209 49.932C27.2258 49.7369 27.2763 49.4628 27.2661 49.1984C27.2705 48.4855 27.4033 47.8556 27.6027 47.1724C27.6289 47.0793 27.6551 46.9862 27.6822 46.8902C27.8496 46.3529 27.9938 46.0321 28.4978 45.732C29.135 45.5196 29.6254 45.5661 30.2277 45.8397Z" fill="#E79A02"/>
<path d="M25.3748 57.3629C25.6261 57.3584 25.8774 57.3585 26.1287 57.3629C26.182 57.4162 26.182 57.4162 26.2364 57.4706C26.2259 58.6901 26.0194 59.9175 25.866 61.125C25.7815 61.7921 25.6986 62.4593 25.6163 63.1266C25.6072 63.2006 25.598 63.2747 25.5886 63.3509C25.2537 66.0747 24.9494 68.8021 24.6396 71.5288C24.578 72.0716 24.5162 72.6144 24.4544 73.1571C24.4367 73.3126 24.4367 73.3126 24.4187 73.4713C24.2743 74.7389 24.1275 76.006 23.9633 77.2713C23.8804 77.9123 23.8135 78.5541 23.7527 79.1976C23.6792 79.967 23.5815 80.7262 23.4364 81.486C23.1851 81.4906 22.9338 81.4905 22.6825 81.486C22.647 81.4505 22.6114 81.415 22.5748 81.3784C22.5784 81.0913 22.5894 80.8086 22.6068 80.5223C22.6145 80.3914 22.6145 80.3914 22.6224 80.2578C22.6759 79.4256 22.7763 78.6027 22.8899 77.7769C22.9527 77.3185 23.0126 76.8597 23.0725 76.4009C23.085 76.3051 23.0975 76.2093 23.1104 76.1105C23.2445 75.0747 23.3576 74.0369 23.47 72.9985C23.7166 70.7285 23.9902 68.4621 24.2671 66.1956C24.3133 65.8175 24.3595 65.4394 24.4056 65.0613C24.4192 64.9496 24.4192 64.9496 24.4331 64.8356C24.5636 63.7658 24.6913 62.6957 24.8162 61.6252C24.8388 61.4317 24.8388 61.4317 24.8618 61.2342C24.9322 60.6306 25.0022 60.0269 25.0717 59.4231C25.0963 59.2112 25.1209 58.9993 25.1456 58.7873C25.1564 58.692 25.1672 58.5967 25.1784 58.4984C25.1886 58.4112 25.1988 58.3239 25.2093 58.234C25.2222 58.1212 25.2222 58.1212 25.2355 58.0062C25.2682 57.7869 25.3176 57.577 25.3748 57.3629Z" fill="#A06A34"/>
<path d="M65.199 76.6668C65.9588 76.8049 66.7185 76.9826 67.8531 77.0748C67.8531 77.0382 67.8531 77.1104 67.8531 77.0748C67.8423 77.6607 67.8226 79.3618 67.8526 79.9467C67.8574 80.0422 67.8622 80.1376 67.8672 80.236C67.8772 80.4357 67.8874 80.6353 67.8976 80.835C68.0495 83.8235 68.0495 83.8235 68.0224 85.2657C68.0161 85.6172 68.0234 85.9776 68.1356 86.3143C67.5827 86.3324 65.9701 86.0557 65.9701 86.0557C66.6156 86.2169 65.891 86.0403 65.9701 86.0557C65.7275 83.8878 65.5049 81.6723 65.3017 79.5004C65.2921 79.3995 65.2826 79.2985 65.2728 79.1945C65.2456 78.9063 65.2189 78.618 65.1923 78.3297C65.1842 78.2443 65.1762 78.159 65.1679 78.0711C65.1277 77.6281 65.1907 77.1123 65.199 76.6668Z" fill="#0979B6"/>
<path d="M85.6827 62.2091C85.7457 63.7528 85.6923 65.1114 84.7845 66.4339C84.4149 66.8279 84.1085 66.9655 83.573 66.9829C83.381 66.9819 83.189 66.979 82.9971 66.9744C82.8972 66.9733 82.7973 66.9721 82.6943 66.9709C81.893 66.9581 81.096 66.9149 80.2981 66.8398C80.3158 66.7399 80.3336 66.6399 80.3519 66.5369C80.4749 65.6264 80.4633 64.8928 80.0692 64.0499C79.975 63.8244 79.975 63.8244 79.975 63.5014C80.9252 63.0662 81.8718 62.7843 82.8894 62.5523C83.0292 62.5185 83.1689 62.4847 83.3086 62.4507C84.1134 62.264 84.8565 62.1598 85.6827 62.2091Z" fill="#E79901"/>
<path d="M27.6363 21.5013C27.6363 21.5368 27.6363 21.5724 27.6363 21.609C27.5661 21.6158 27.4958 21.6226 27.4234 21.6296C26.9386 21.6975 26.5476 21.7615 26.2026 22.1273C25.025 23.7527 24.9417 26.0996 24.6815 28.0234C23.5078 36.7002 23.5078 36.7002 20.6363 38.9475C20.8078 38.4297 20.9815 37.913 21.1605 37.3977C22.244 34.2553 22.7389 31.0561 23.1764 27.7711C23.7429 23.5644 23.7429 23.5644 25.2738 22.1941C26.0369 21.6295 26.688 21.4105 27.6363 21.5013Z" fill="#E89B02"/>
<path d="M46.698 70.8243C47.0443 70.9513 47.3157 71.0814 47.5999 71.3156C48.0102 71.6315 48.4371 71.9079 48.8788 72.1772C48.9416 72.2163 49.0044 72.2555 49.0691 72.2958C50.2381 72.9992 51.2388 73.2818 52.6076 73.2541C52.6811 73.2534 52.7546 73.2527 52.8303 73.252C54.358 73.2375 55.8471 73.0491 57.3553 72.812C57.7866 72.7471 58.218 72.6991 58.6519 72.6551C58.7585 73.2414 58.7585 73.2414 58.8672 73.8397C58.2638 74.0763 57.6652 74.2686 57.0365 74.4252C56.9453 74.448 56.8541 74.4709 56.7602 74.4943C55.6081 74.7727 54.4385 74.9547 53.2672 75.132C53.1317 75.1528 52.9962 75.1736 52.8567 75.1951C50.9631 75.4411 49.6148 74.7211 48.1123 73.6117C46.871 72.6356 46.871 72.6356 46.698 72.1166C46.6906 71.8946 46.6889 71.6724 46.6913 71.4502C46.6922 71.3332 46.6932 71.2162 46.6942 71.0956C46.6955 71.0061 46.6967 70.9165 46.698 70.8243Z" fill="#E69A02"/>
<path d="M69.4209 68.6705C69.6697 68.7416 69.9185 68.8127 70.1748 68.8859C70.3583 68.9045 70.5424 68.9186 70.7267 68.9263C71.2133 68.9674 71.4263 69.09 71.7902 69.4244C72.2371 69.661 72.5723 69.7606 73.0758 69.7946C73.4621 69.8214 73.7167 69.8837 74.0517 70.0773C74.6264 70.3941 75.1957 70.3714 75.8244 70.2237C76.2787 70.0818 76.6647 69.8959 77.0671 69.6398C77.1382 69.6398 77.2093 69.6398 77.2825 69.6398C77.5443 70.3956 77.712 71.1074 77.821 71.9013C77.3406 71.9237 76.9023 71.88 76.4277 71.8003C73.801 71.3823 71.0808 71.5692 68.4315 71.6253C68.2772 71.6285 68.2772 71.6285 68.1197 71.6317C66.8281 71.6587 65.5407 71.7067 64.2517 71.7936C64.2517 71.5804 64.2517 71.3672 64.2517 71.1475C65.8345 70.6607 67.4584 70.695 69.0979 70.7167C69.2045 70.0415 69.3111 69.3662 69.4209 68.6705Z" fill="#015395"/>
<path d="M71.5749 41.5321C71.7791 41.7002 71.9393 41.8693 72.1134 42.0705C71.9978 42.0845 71.9978 42.0845 71.8799 42.0987C70.1123 42.348 68.4973 43.1028 67.3505 44.5012C66.3377 45.8887 65.8064 47.3378 65.9749 49.0705C66.1302 49.9855 66.5654 50.8037 67.2605 51.4263C67.9726 51.9205 68.501 51.995 69.3589 52.0208C70.2689 51.9392 70.2617 51.917 70.3347 51.917C69.7509 52.2765 69.4191 52.7275 67.9134 52.6244C67.3939 52.4826 66.9241 52.3808 66.4393 52.0208C66.4393 52.0208 65.753 51.5528 65.3031 50.4289C64.5814 48.8832 64.8169 47.1034 65.3599 45.5394C65.6691 44.6939 66.0619 43.9647 66.621 43.2551C66.6899 43.1574 66.7588 43.0597 66.8297 42.959L67.2886 42.4578C67.2886 42.4578 67.9455 41.9067 68.1275 41.841C69.3764 41.3167 70.2979 40.8707 71.5749 41.5321Z" fill="#E89A02"/>
<path d="M61.9902 44.3318C62.0969 44.3852 62.0969 44.3852 62.2056 44.4395C59.8396 46.951 55.5239 50.0004 51.9748 50.2549C51.0235 49.8902 50.534 49.0299 50.1171 48.1549C49.8315 47.4729 49.6752 46.7972 49.7133 46.0549C49.8051 46.1715 49.8051 46.1715 49.8988 46.2905C50.4439 46.9637 51.0302 47.6055 51.6518 48.2088C51.6984 48.2754 51.7451 48.342 51.7931 48.4107C52.1081 48.6207 52.4811 48.489 52.8364 48.4242C55.8195 47.7204 58.9798 46.3525 61.5175 44.6287C61.6717 44.5245 61.8305 44.4272 61.9902 44.3318Z" fill="#F1C412"/>
<path d="M46.9403 44.11C47.1443 44.1115 47.1443 44.1115 47.3525 44.1129C47.4564 44.1142 47.5602 44.1154 47.6672 44.1167C47.4255 44.5568 47.1367 44.8968 46.7922 45.261C46.4052 45.6757 46.0283 46.0945 45.6681 46.5331C45.5894 46.628 45.5107 46.723 45.4296 46.8208C45.2527 47.051 45.0995 47.2721 44.9475 47.5175C44.3328 48.4764 44.3328 48.4764 43.7503 48.6242C43.4027 48.6261 43.0703 48.6057 42.7258 48.5598C42.3953 48.5197 42.0644 48.5063 41.7319 48.4905C41.3767 48.4731 41.022 48.4487 40.6672 48.4244C41.8567 46.4661 43.7115 44.8116 45.9452 44.1614C46.2768 44.0923 46.6023 44.1069 46.9403 44.11Z" fill="#ABCBE4"/>
<path d="M28.1748 29.9012C28.4646 29.9202 28.7487 29.9678 29.0364 30.0089C28.762 32.6596 28.4738 35.3085 28.1708 37.9561C28.1173 38.4242 28.064 38.8923 28.0109 39.3605C27.9688 39.7301 27.9267 40.0998 27.8845 40.4695C27.8648 40.6422 27.8451 40.8149 27.8255 40.9876C27.7026 42.0683 27.5689 43.1467 27.421 44.2243C27.1367 44.2243 26.8524 44.2243 26.5594 44.2243C26.6193 42.8725 26.7373 41.5361 26.896 40.1925C26.9192 39.9923 26.9424 39.7919 26.9655 39.5916C27.1094 38.3499 27.2575 37.1086 27.405 35.8672C27.4177 35.7602 27.4177 35.7602 27.4307 35.6511C27.5231 34.8729 27.6158 34.0947 27.7092 33.3167C27.725 33.1845 27.7408 33.0523 27.7571 32.9161C27.7866 32.6692 27.8163 32.4223 27.8461 32.1754C27.9233 31.5281 27.9892 30.8816 28.0386 30.2315C28.0671 30.0089 28.0671 30.0089 28.1748 29.9012Z" fill="#9A6734"/>
<path d="M40.7062 51.6469C41.0872 51.8026 41.4609 51.9675 41.8315 52.1466C41.9061 52.1821 41.9808 52.2175 42.0576 52.2541C42.2405 52.3411 42.4231 52.4289 42.6056 52.5168C42.5412 52.8646 42.4321 53.0621 42.203 53.3295C42.1419 53.402 42.0807 53.4745 42.0178 53.5491C41.9189 53.6645 41.9189 53.6645 41.8181 53.7822C41.2183 54.4938 40.6474 55.2195 40.0999 55.9721C39.7195 56.4906 39.7195 56.4906 39.4825 56.6091C39.4549 56.5389 39.4272 56.4686 39.3988 56.3963C39.0306 55.5558 38.567 55.1821 37.7594 54.7783C37.9598 54.2999 38.3056 53.9687 38.6565 53.5951C38.7103 53.5377 38.7641 53.4804 38.8195 53.4213C38.9028 53.3325 38.9028 53.3325 38.9878 53.2419C39.1645 53.0497 39.3356 52.8535 39.506 52.6556C39.5628 52.5909 39.6196 52.5261 39.6781 52.4594C39.7884 52.3334 39.8974 52.2064 40.0049 52.0781C40.3782 51.6577 40.3782 51.6577 40.7062 51.6469Z" fill="#719BBE"/>
<path d="M48.0978 33.3474C48.1811 33.4005 48.2644 33.4537 48.3502 33.5085C48.9956 33.9054 49.4876 34.1942 50.2517 34.2089C50.2517 34.2444 50.2517 34.28 50.2517 34.3166C49.9674 34.3166 49.6831 34.3166 49.3901 34.3166C49.5902 37.6304 50.0598 40.9562 51.1132 44.1166C50.9 44.1166 50.6868 44.1166 50.4671 44.1166C50.0587 43.1789 49.7105 42.2293 49.3969 41.256C49.3737 41.1845 49.3506 41.113 49.3267 41.0394C48.6255 38.8604 48.0689 36.6576 48.0911 34.357C48.0916 34.2591 48.0921 34.1612 48.0926 34.0604C48.0938 33.8227 48.0956 33.585 48.0978 33.3474Z" fill="#FADB32"/>
<path d="M32.2671 53.5936C33.5795 53.9955 34.9106 54.8367 35.6123 56.0436C35.9276 56.6496 36.0082 57.2525 36.0088 57.9258C36.0101 58.0028 35.9832 58.1514 35.9832 58.1514C35.9399 58.5987 35.9449 58.7385 35.7133 59.0859C35.7133 58.8727 35.7133 58.6595 35.7133 58.4398C35.6567 58.4163 35.6 58.3929 35.5417 58.3687C35.1844 58.1698 34.8896 57.9059 34.5825 57.6388C34.4603 57.5334 34.3381 57.4281 34.2157 57.3229C34.1585 57.2735 34.1013 57.2241 34.0424 57.1732C33.9076 57.0607 33.7661 56.9564 33.6234 56.8543C33.5667 56.8089 33.5101 56.7635 33.4518 56.7167C33.4518 56.6456 33.4518 56.5746 33.4518 56.5013C33.3851 56.4747 33.3185 56.448 33.2498 56.4206C32.9775 56.2604 32.9436 56.1312 32.8056 55.8552C32.6028 55.7358 32.6028 55.7358 32.3748 55.6398C32.0538 55.4288 31.961 55.3676 31.8364 54.9936C31.9201 54.6558 31.9201 54.6558 32.045 54.2734C32.086 54.1464 32.1269 54.0194 32.1691 53.8885C32.2015 53.7912 32.2338 53.6939 32.2671 53.5936Z" fill="#F6C815"/>
<path d="M62.3133 22.4704C61.9324 22.5974 61.8202 22.5477 61.445 22.4301C60.8675 22.2645 60.3279 22.1768 59.7287 22.1474C59.6158 22.1404 59.503 22.1335 59.3867 22.1263C57.0687 22.0476 55.273 23.0374 53.5599 24.5128C52.7586 25.2648 52.1223 26.2204 51.6518 27.2089C51.1187 27.049 51.1187 27.049 50.5748 26.8858C51.1097 25.0234 53.0367 23.4899 54.6671 22.5781C56.8849 21.3749 60.1194 20.9722 62.3133 22.4704Z" fill="#F6DF31"/>
<path d="M69.421 68.6705C69.5231 68.7038 69.6253 68.7372 69.7306 68.7715C70.0655 68.8702 70.3786 68.9049 70.7267 68.9263C71.2133 68.9674 71.4263 69.09 71.7902 69.4244C72.2371 69.661 72.5723 69.7606 73.0758 69.7946C73.4621 69.8214 73.7167 69.8837 74.0517 70.0773C74.6264 70.3941 75.1957 70.3714 75.8244 70.2237C76.2787 70.0818 76.6647 69.8959 77.0671 69.6398C77.1382 69.6398 77.2093 69.6398 77.2825 69.6398C77.3372 69.792 77.3908 69.9447 77.444 70.0975C77.474 70.1824 77.504 70.2674 77.5349 70.3549C77.6056 70.609 77.6056 70.609 77.6056 71.0398C77.5424 71.0338 77.4793 71.0278 77.4142 71.0217C74.6835 70.7744 71.9454 70.756 69.2056 70.7167C69.2221 70.5108 69.2388 70.305 69.2556 70.0991C69.2649 69.9845 69.2742 69.8699 69.2838 69.7518C69.3165 69.3883 69.3636 69.0309 69.421 68.6705Z" fill="#225DD3"/>
<path d="M47.6684 44.1158C47.6318 44.1158 47.704 44.1158 47.6684 44.1158C47.6684 44.1158 47.6246 45.1038 47.6246 45.4699C47.7345 45.4333 47.518 45.5055 47.6246 45.4699C47.6246 45.4699 46.8333 46.3274 46.7354 46.4606C46.6789 46.538 46.6225 46.6153 46.5643 46.695C46.504 46.777 46.4437 46.859 46.3816 46.9436C45.8407 47.6852 45.3123 48.4338 44.7961 49.1928C44.4459 49.7071 44.4459 49.7071 44.3287 49.8243C43.1307 49.9438 41.82 49.9641 40.7963 49.2602C40.6402 49.1243 40.6402 49.1243 40.4518 48.8551C40.4938 48.6229 40.4938 48.6229 40.5595 48.4243C40.7125 48.4353 40.7125 48.4353 40.8686 48.4465C41.2518 48.4721 41.6349 48.488 42.0187 48.5012C42.1838 48.5082 42.3489 48.5177 42.5137 48.5299C43.4759 48.6012 43.8604 48.8322 44.2883 48.2949C44.6678 47.8184 44.9042 47.4684 45.1903 47.0243C45.3439 46.8173 45.433 46.6967 45.544 46.5957C45.594 46.5376 45.6439 46.4795 45.6953 46.4197C45.7441 46.3638 45.7929 46.3079 45.8431 46.2503C45.9233 46.1577 45.9233 46.1577 46.005 46.0632C46.1636 45.8805 46.3229 45.6984 46.4826 45.5166C46.532 45.4602 46.5815 45.4038 46.6324 45.3457C47.2092 44.6897 47.4259 44.3658 47.6684 44.1158Z" fill="#F2C213"/>
<path d="M64.3594 74.3783C65.89 74.4595 65.89 74.4595 66.544 74.5392C68.1227 74.7299 69.6905 74.726 71.2787 74.7148C71.549 74.7138 71.8194 74.7128 72.0897 74.7119C72.7438 74.7095 73.3978 74.706 74.0518 74.7014C74.0162 74.9857 73.9753 75.3597 73.9387 75.6526C73.6062 75.6795 73.4269 75.688 73.0833 75.688C72.9185 75.6895 72.9185 75.6895 72.7504 75.6911C72.6309 75.6916 72.5115 75.692 72.3884 75.6925C72.2638 75.6931 72.1392 75.6937 72.0108 75.6943C71.7451 75.6954 71.4795 75.6961 71.2139 75.6965C70.8173 75.6975 70.4208 75.7008 70.0242 75.7043C68.1109 75.7127 66.245 75.5693 64.3594 75.2398C64.3594 74.9555 64.3594 74.6712 64.3594 74.3783Z" fill="#64B9DB"/>
<path d="M65.9748 64.1473C66.1928 64.5833 66.098 65.0904 65.9748 65.5473C65.7909 65.7701 65.5929 65.9213 65.3627 66.0955C64.0385 67.1875 63.1002 69.3132 62.9318 70.9923C62.8856 71.6179 62.8643 72.2433 62.8517 72.8704C62.219 72.6685 62.219 72.6685 62.0979 72.5474C61.8915 69.9413 62.5192 67.9077 64.144 65.8704C64.1914 65.8079 64.2387 65.7455 64.2875 65.6811C64.7583 65.0796 65.363 64.5983 65.9748 64.1473Z" fill="#959696"/>
<path d="M50.144 35.5013C50.5349 35.5013 50.9259 35.5013 51.3286 35.5013C51.334 35.5869 51.3394 35.6725 51.345 35.7607C51.4689 37.7012 51.6029 39.6197 51.9748 41.5321C51.6194 41.6032 51.264 41.6743 50.8979 41.7475C50.4551 39.6556 50.0871 37.644 50.144 35.5013Z" fill="#04224A"/>
<path d="M51.1133 52.5167C51.221 52.732 51.221 52.732 51.1288 53.0505C51.0813 53.189 51.0334 53.3274 50.9854 53.4657C50.7543 54.1668 50.5833 54.8672 50.4469 55.5926C50.4303 55.6801 50.4137 55.7676 50.3966 55.8578C50.3446 56.1436 50.2975 56.4298 50.2517 56.7167C50.2322 56.8339 50.2127 56.951 50.1927 57.0718C50.0209 58.2042 50.0026 59.3158 50.0094 60.459C50.0097 60.5553 50.0099 60.6516 50.0102 60.7509C50.0167 62.7945 50.0805 64.8433 50.4276 66.8616C50.474 67.2156 50.4733 67.5601 50.4671 67.9167C50.1732 67.6228 50.1368 67.3004 50.0498 66.9071C50.0316 66.8271 50.0133 66.7472 49.9946 66.6648C49.7745 65.6864 49.5733 64.7027 49.3902 63.7167C49.3711 63.6139 49.352 63.5111 49.3323 63.4053C48.8011 59.8382 49.5932 55.8972 51.0056 52.6244C51.0411 52.5888 51.0766 52.5533 51.1133 52.5167Z" fill="#00213F"/>
<path d="M52.7287 35.5013C53.1552 35.5013 53.5816 35.5013 54.021 35.5013C54.1358 35.8458 54.1703 36.1484 54.2061 36.5097C54.2198 36.6476 54.2336 36.7855 54.2478 36.9276C54.2547 36.9998 54.2617 37.072 54.2689 37.1463C54.2898 37.3609 54.3112 37.5755 54.3327 37.79C54.4238 38.7136 54.4982 39.6369 54.5595 40.5629C54.1477 40.7161 53.815 40.8042 53.3749 40.7783C52.7542 37.0418 52.7542 37.0418 52.7287 35.5013Z" fill="#06234A"/>
<path d="M78.2519 76.532C78.5007 76.532 78.7495 76.532 79.0058 76.532C78.9408 77.4343 78.8371 78.3255 78.7067 79.2205C78.679 79.4136 78.679 79.4136 78.6507 79.6105C78.5922 80.0181 78.5331 80.4255 78.474 80.833C78.4348 81.1058 78.3956 81.3786 78.3565 81.6514C78.1835 82.8535 78.0076 84.055 77.8212 85.2551C77.5013 85.3617 77.5013 85.3617 77.175 85.4705C77.1378 84.5613 77.2538 83.6855 77.3832 82.7874C77.4048 82.6341 77.4262 82.4807 77.4477 82.3274C77.5038 81.9265 77.5608 81.5256 77.618 81.1249C77.6759 80.7183 77.7331 80.3116 77.7902 79.9049C77.8546 79.4468 77.9191 78.9888 77.9843 78.5308C78.0788 77.8651 78.1717 77.1996 78.2519 76.532Z" fill="#005294"/>
<path d="M30.2277 45.8397C30.8256 46.1617 31.3149 46.6275 31.621 47.2397C31.6354 47.5275 31.6256 47.8129 31.621 48.1013C31.5855 48.1013 31.5499 48.1013 31.5133 48.1013C31.5133 47.9236 31.5133 47.7459 31.5133 47.5628C31.4353 47.532 31.3573 47.5012 31.2769 47.4694C31.0878 47.3931 30.8997 47.3143 30.7132 47.2321C30.1776 47.0012 29.7372 46.8236 29.1441 46.9166C28.583 47.2536 28.4642 47.6366 28.3027 48.2359C28.2678 48.3562 28.2678 48.3562 28.2323 48.479C28.1755 48.6757 28.1211 48.873 28.0671 49.0705C27.8539 49.0705 27.6407 49.0705 27.421 49.0705C27.421 49.2837 27.421 49.4969 27.421 49.7166C27.3854 49.7166 27.3499 49.7166 27.3133 49.7166C27.2241 48.8113 27.3497 48.0455 27.6027 47.1791C27.629 47.0856 27.6552 46.9921 27.6823 46.8957C27.8493 46.3562 27.9914 46.0327 28.4979 45.732C29.135 45.5196 29.6255 45.5661 30.2277 45.8397Z" fill="#F5C914"/>
<path d="M61.9903 30.655C62.4666 31.0854 62.8612 31.5203 62.899 32.1762C62.8969 32.8252 62.5407 33.2277 62.098 33.6704C61.7075 33.7005 61.4153 33.6979 61.048 33.556C60.6232 33.1902 60.5048 32.7679 60.4355 32.2233C60.5064 31.6455 60.7163 31.1884 61.1153 30.7627C61.4558 30.6025 61.6168 30.5745 61.9903 30.655Z" fill="#E89800"/>
<path d="M63.9287 38.5167C64.4671 39.5522 64.4671 39.5522 64.4671 40.0244C63.3944 41.5083 60.9667 42.7503 59.1902 43.0397C59.0836 43.0042 58.977 42.9687 58.8671 42.9321C58.9622 42.8811 59.0573 42.8302 59.1553 42.7777C60.035 42.2968 60.8043 41.7663 61.5594 41.1013C61.6513 41.0237 61.7432 40.9461 61.8379 40.8661C62.6453 40.1693 63.2941 39.3701 63.9287 38.5167Z" fill="#0575B5"/>
<path d="M28.4978 24.5167C28.693 24.5138 28.8882 24.5118 29.0834 24.51C29.1921 24.5088 29.3008 24.5075 29.4128 24.5062C29.6824 24.5167 29.6824 24.5167 29.7901 24.6244C29.7742 25.5549 29.6748 26.4863 29.5747 27.411C29.5613 27.5367 29.5613 27.5367 29.5477 27.665C29.4803 28.2594 29.4803 28.2594 29.3593 28.5014C28.9684 28.5014 28.5775 28.5014 28.1747 28.5014C28.1547 27.6231 28.2327 26.775 28.3363 25.9033C28.3517 25.7695 28.3671 25.6356 28.3829 25.4978C28.4207 25.1707 28.459 24.8437 28.4978 24.5167Z" fill="#9A6734"/>
<path d="M78.7902 67.9168C79.8584 69.2065 79.8928 71.561 79.9008 73.1601C79.9014 73.2471 79.902 73.3341 79.9026 73.4237C79.895 74.0274 79.9026 74.1558 79.9026 74.1558C79.7604 74.1558 79.3674 74.2707 79.221 74.2707C79.2134 74.1966 79.2059 74.1225 79.1981 74.0461C78.9983 72.1148 78.7709 70.1948 78.144 68.3476C78.3573 68.2054 78.5705 68.0633 78.7902 67.9168Z" fill="#959696"/>
<path d="M37.6518 57.4705C38.1169 57.9357 38.2306 58.4895 38.2407 59.1242C38.239 59.2452 38.239 59.2452 38.2374 59.3686C38.2365 59.4535 38.2356 59.5384 38.2346 59.6259C38.196 60.9815 37.735 62.256 36.7477 63.2127C36.2263 63.6469 35.697 64.001 35.0672 64.2551C34.9605 64.2196 34.8539 64.1841 34.7441 64.1475C34.8065 64.1096 34.869 64.0717 34.9334 64.0326C36.3335 63.1477 37.0646 61.7614 37.4364 60.1628C37.5147 59.8061 37.5617 59.4654 37.5782 59.1006C37.5827 59.0052 37.5872 58.9098 37.5918 58.8114C37.5961 58.7132 37.6003 58.615 37.6047 58.5138C37.6093 58.4135 37.614 58.3132 37.6188 58.2099C37.6301 57.9634 37.6411 57.717 37.6518 57.4705Z" fill="#719BBE"/>
<path d="M78.1442 73.9475C78.1778 74.3042 78.1778 74.3042 78.1442 74.7014C77.0959 75.498 75.264 75.5636 73.9342 75.6526C73.9342 75.3328 73.9442 75.0331 73.9442 74.7035C73.8626 74.7119 74.0233 74.6954 73.9442 74.7035C74.3085 74.6657 74.7176 74.6608 75.5923 74.5192C75.5923 74.5192 77.498 74.1683 78.1442 73.9475Z" fill="#015396"/>
<path d="M49.821 28.3935C49.7989 28.456 49.7769 28.5184 49.7541 28.5828C49.7251 28.6669 49.6961 28.751 49.6662 28.8377C49.6375 28.9202 49.6087 29.0026 49.5791 29.0876C49.4022 29.687 49.3639 30.2906 49.3297 30.9108C49.325 30.9901 49.3204 31.0693 49.3156 31.151C49.3042 31.3446 49.2933 31.5383 49.2825 31.732C48.8016 31.5512 48.3382 31.351 48.0979 30.8704C48.0266 30.1576 47.8499 29.5115 48.421 28.7166C48.87 28.4165 49.2965 28.2187 49.821 28.3935Z" fill="#F9D834"/>
<path d="M60.9134 72.3323C60.9844 72.3323 61.0555 72.3323 61.1287 72.3323C61.1487 72.4297 61.1487 72.4297 61.1691 72.5292C61.2979 73.0392 61.2979 73.0392 61.6121 73.4466C62.4693 73.9 63.5111 74.2321 64.4631 74.3754C64.4276 74.6597 64.4058 74.9386 64.3692 75.2315C63.1298 75.1489 61.9489 74.657 60.9424 73.9186C60.7384 73.6405 60.7706 73.4123 60.7787 73.0727C60.7804 72.9569 60.7821 72.8411 60.7838 72.7218C60.8057 72.44 60.8057 72.44 60.9134 72.3323Z" fill="#005699"/>
<path d="M25.4757 54.4349C25.5741 54.4336 25.6725 54.4323 25.7738 54.4309C26.4548 54.4295 27.082 54.5119 27.744 54.6705C27.3509 55.1089 26.9786 55.391 26.3777 55.4553C26.0361 55.4677 25.6964 55.4684 25.3546 55.4647C25.2369 55.466 25.1193 55.4672 24.9981 55.4685C24.8854 55.4681 24.7728 55.4677 24.6567 55.4672C24.503 55.4667 24.503 55.4667 24.3462 55.4661C24.0421 55.4179 23.9473 55.3388 23.7594 55.1013C23.8305 55.0657 23.9016 55.0302 23.9748 54.9936C24.0814 55.0291 24.188 55.0646 24.2979 55.1013C24.2956 55.0146 24.2934 54.928 24.2911 54.8388C24.3061 54.2233 24.9959 54.4352 25.4757 54.4349Z" fill="#E69701"/>
<path d="M83.5287 57.3629C84.6666 57.528 85.4903 58.128 86.2253 59.001C86.4891 59.3762 86.7097 59.7629 86.9211 60.1696C86.9588 60.2407 86.9966 60.3119 87.0355 60.3852C87.2928 60.9087 87.3343 61.3041 87.298 61.8859C87.0595 61.6474 86.9447 61.4012 86.8012 61.0991C86.0401 59.4969 85.1281 58.305 83.5287 57.4705C83.5287 57.435 83.5287 57.3995 83.5287 57.3629Z" fill="#719BBE"/>
<path d="M25.5901 51.9782C26.3696 51.9324 27.1077 52.0631 27.8517 52.3013C27.8872 52.3724 27.9228 52.4434 27.9594 52.5167C27.7983 52.7893 27.7983 52.7893 27.5286 53.0551C27.2067 53.0684 26.971 53.055 26.6603 53.0013C26.5828 52.9913 26.5053 52.9813 26.4254 52.971C26.1064 52.9236 25.8541 52.8741 25.5885 52.6862C25.4824 52.5167 25.4824 52.5167 25.5161 52.2272C25.5405 52.1451 25.565 52.0629 25.5901 51.9782Z" fill="#E49903"/>
<path d="M70.0671 25.809C70.5097 26.1227 70.9248 26.4377 71.2989 26.832C71.7711 27.3205 72.3264 27.7467 72.9748 27.9628C72.9748 28.0339 72.9748 28.105 72.9748 28.1782C71.9942 28.1346 71.5223 27.8305 70.8546 27.108C70.0671 26.228 70.0671 26.228 70.0671 25.809Z" fill="#ABCBE4"/>
<path d="M27.421 49.0705C27.634 49.0705 27.8471 49.0705 28.0666 49.0705C28.1021 49.177 28.1376 49.2836 28.1742 49.3933C28.1032 49.3933 28.0322 49.3933 27.959 49.3933C27.959 49.3223 27.959 49.2513 27.959 49.1781C27.888 49.2491 27.817 49.3202 27.7438 49.3933C27.7438 49.4999 27.7438 49.6064 27.7438 49.7162C27.6728 49.7162 27.6017 49.7162 27.5286 49.7162C27.4931 49.7872 27.4575 49.8582 27.421 49.9314C27.267 49.6234 27.3564 49.4005 27.421 49.0705Z" fill="#E29603"/>
<g filter="url(#filter0_i_4_19)">
<path d="M45.4187 35.1921C45.0122 28.5514 46.9432 25.5078 47.9595 24.8161C51.2117 29.3815 58.4613 30.5229 61.6797 30.5229L63.2041 34.1545C62.7976 36.2297 64.051 37.4402 64.7286 37.7861C62.696 40.6913 62.5266 44.1846 62.696 45.568L51.0084 50.2372L47.4513 46.6056C47.4513 44.5304 46.0963 38.1319 45.4187 35.1921Z" fill="#ABCBE4"/>
</g>
<path d="M48.3663 24.5261C49.9045 26.6855 52.4155 28.066 54.9874 28.9059C57.5533 29.7439 60.1176 30.0231 61.6797 30.0231H62.0118L62.1407 30.3298L63.6651 33.9606L63.7237 34.1013L63.6944 34.2507C63.3413 36.0534 64.4244 37.0691 64.9561 37.3405L65.4678 37.6022L65.1387 38.0729C63.1965 40.849 63.0333 44.2077 63.1924 45.5075L63.2393 45.8893L62.8819 46.0319L51.1944 50.7018L50.8848 50.8249L50.6514 50.5866L47.0938 46.9557L46.9512 46.8093V46.6052C46.9511 45.6239 46.6241 43.5549 46.1983 41.3161C45.7763 39.0974 45.2694 36.7695 44.9317 35.3044L44.9219 35.2643L44.92 35.2224C44.7136 31.8504 45.098 29.3636 45.6807 27.6149C46.2573 25.8846 47.0432 24.8352 47.6778 24.403L48.0831 24.1276L48.3663 24.5261Z" stroke="#012444"/>
<path d="M50.9327 50.2909C50.4246 47.6969 51.5166 38.201 48.9758 37.1635" stroke="#012444" stroke-width="0.5" stroke-linecap="square" stroke-linejoin="round"/>
<path d="M49.484 36.126V37.7862L45.3171 35.7006L44.9106 34.6734L49.484 36.126Z" fill="#012444"/>
<path d="M49.4841 36.1259V37.7861L61.6797 35.1921L61.1716 34.1545L49.4841 36.1259Z" fill="#012444"/>
<path d="M47.4515 25.3349C47.4515 27.288 49.4841 34.7648 49.4841 36.2297" stroke="#012444" stroke-linecap="round" stroke-linejoin="round"/>
<path d="M56.5904 21.7631L56.0181 21.6791C55.12 21.5481 52.4205 22.147 50.4488 26.5756L50.317 26.8725H49.9918C49.4319 26.8723 48.4131 26.4254 47.5406 25.0893L47.4595 24.9653V24.8159C47.4596 23.6657 47.9048 21.9628 49.2115 20.4897C50.5299 19.0035 52.6923 17.7875 56.0582 17.5727L56.5904 17.5385V21.7631Z" fill="#F7C615" stroke="#012444"/>
<path d="M63.4102 23.8461C63.4484 23.8553 63.4854 23.8692 63.5206 23.8871C64.3084 24.2893 65.492 25.4009 66.4122 26.9819C67.3422 28.5799 68.0346 30.7095 67.7667 33.1713C67.7634 33.2008 67.7575 33.2298 67.7491 33.2582C67.1796 35.1872 66.7587 37.4823 66.8135 39.6684C66.8686 41.8596 67.3996 43.8844 68.6719 45.3422C68.8396 45.5346 68.8352 45.8227 68.6622 46.0102C68.489 46.1976 68.2022 46.2246 67.9971 46.0727L66.3077 44.8217C66.2264 44.7615 66.1648 44.6781 66.1319 44.5825L64.459 39.7123C64.4002 39.5409 64.4386 39.3512 64.5596 39.2162L64.9415 38.7895L64.6631 38.2114C64.4639 38.142 64.2661 38.0207 64.0801 37.8705C63.7716 37.6212 63.4301 37.2445 63.0694 36.7123C62.3475 35.6473 61.5141 33.9123 60.6924 31.186C59.8637 28.4361 59.9752 26.5999 60.6114 25.4252C61.2616 24.225 62.393 23.8325 63.293 23.8325L63.4102 23.8461Z" fill="#ABCBE4" stroke="#012444" stroke-linejoin="round"/>
<g filter="url(#filter1_i_4_19)">
<path d="M56.09 21.1844C53.2443 21.1844 50.839 24.6431 49.9921 26.3724C50.8052 28.8627 59.1389 31.0416 61.6797 30.5228C65.2367 28.4476 64.7286 26.8912 64.7286 25.8536C64.7286 24.816 59.6471 21.1844 56.09 21.1844Z" fill="#ABCBE4"/>
</g>
<path d="M56.0898 20.6844C58.006 20.6844 60.2615 21.6491 62.0019 22.702C62.8808 23.2338 63.6554 23.8041 64.2167 24.3173C64.4963 24.5729 64.734 24.825 64.9062 25.0594C65.0614 25.2708 65.2284 25.553 65.2285 25.8534C65.2285 26.273 65.3675 27.0898 65.0009 27.9882C64.6252 28.9086 63.7592 29.8887 61.9316 30.955C61.8845 30.9824 61.8326 31.0017 61.7792 31.0126C61.0548 31.1604 59.9859 31.1102 58.8232 30.9384C57.6439 30.764 56.312 30.4557 55.037 30.0526C53.7646 29.6503 52.5297 29.1474 51.5517 28.576C50.6036 28.0222 49.7815 27.3386 49.5165 26.5272C49.4763 26.4037 49.4857 26.2689 49.5429 26.1522C49.9853 25.249 50.8281 23.9052 51.9355 22.7792C53.032 21.6642 54.4664 20.6845 56.0898 20.6844Z" stroke="#012444" stroke-linejoin="round"/>
</g>
<defs>
<filter id="filter0_i_4_19" x="44.3633" y="23.4387" width="24.8433" height="31.9745" filterUnits="userSpaceOnUse" color-interpolation-filters="sRGB">
<feFlood flood-opacity="0" result="BackgroundImageFix"/>
<feBlend mode="normal" in="SourceGraphic" in2="BackgroundImageFix" result="shape"/>
<feColorMatrix in="SourceAlpha" type="matrix" values="0 0 0 0 0 0 0 0 0 0 0 0 0 0 0 0 0 0 127 0" result="hardAlpha"/>
<feOffset dx="3" dy="4"/>
<feGaussianBlur stdDeviation="2"/>
<feComposite in2="hardAlpha" operator="arithmetic" k2="-1" k3="1"/>
<feColorMatrix type="matrix" values="0 0 0 0 0 0 0 0 0 0 0 0 0 0 0 0 0 0 0.1 0"/>
<feBlend mode="normal" in2="shape" result="effect1_innerShadow_4_19"/>
</filter>
<filter id="filter1_i_4_19" x="48.9921" y="20.1844" width="20.7632" height="15.4153" filterUnits="userSpaceOnUse" color-interpolation-filters="sRGB">
<feFlood flood-opacity="0" result="BackgroundImageFix"/>
<feBlend mode="normal" in="SourceGraphic" in2="BackgroundImageFix" result="shape"/>
<feColorMatrix in="SourceAlpha" type="matrix" values="0 0 0 0 0 0 0 0 0 0 0 0 0 0 0 0 0 0 127 0" result="hardAlpha"/>
<feOffset dx="5" dy="4"/>
<feGaussianBlur stdDeviation="2"/>
<feComposite in2="hardAlpha" operator="arithmetic" k2="-1" k3="1"/>
<feColorMatrix type="matrix" values="0 0 0 0 0 0 0 0 0 0 0 0 0 0 0 0 0 0 0.1 0"/>
<feBlend mode="normal" in2="shape" result="effect1_innerShadow_4_19"/>
</filter>
<clipPath id="clip0_4_19">
<rect width="101" height="100" fill="white"/>
</clipPath>
</defs>
</svg>
