<svg width="550" height="550" viewBox="0 0 550 550" fill="none" xmlns="http://www.w3.org/2000/svg">
<path d="M276.429 387.852C280.729 387.852 284.215 391.339 284.215 395.639V412.163C284.215 432.058 296.01 450.035 314.259 457.957H314.26C318.204 459.67 320.013 464.254 318.302 468.2C317.032 471.124 314.175 472.891 311.15 472.891C310.128 472.891 309.082 472.687 308.061 472.244L308.058 472.243L306.942 471.746C283.632 461.11 268.642 437.859 268.642 412.163V395.639C268.642 391.339 272.129 387.852 276.429 387.852Z" fill="#2A5637" stroke="black" stroke-width="16"/>
<path d="M282.691 127.754C325.231 91.23 379.072 72.8845 428.407 77.8734L428.408 77.8743C438.159 78.8593 447.419 83.3614 454.437 90.6116V90.6126C458.379 94.6855 461.437 99.4377 463.532 104.768C486.049 162.054 478.521 232.603 442.57 293.43C423.959 324.915 398.801 351.69 369.891 370.941C341.67 389.733 310.584 400.886 280.023 403.478C279.986 403.475 279.947 403.471 279.905 403.468C279.683 403.45 279.342 403.427 278.939 403.427H276.026C275.624 403.427 275.283 403.45 275.06 403.468C275.019 403.471 274.978 403.475 274.941 403.478C244.852 400.924 214.263 390.131 186.405 371.877L185.074 370.998C156.166 351.75 131.006 324.946 112.395 293.459V293.458C76.7232 233.107 69.0321 163.157 90.907 106.116L91.4295 104.771C93.5257 99.4374 96.5824 94.6857 100.524 90.6126L100.523 90.6116C107.542 83.3611 116.802 78.8592 126.554 77.8743L126.555 77.8734C175.892 72.8862 229.728 91.2288 272.268 127.754L277.48 132.229L282.691 127.754ZM275.393 403.517H275.388C275.386 403.517 275.384 403.516 275.382 403.516C275.385 403.516 275.39 403.517 275.393 403.517ZM279.577 403.517H279.573C279.576 403.517 279.578 403.516 279.581 403.516C279.58 403.516 279.578 403.517 279.577 403.517Z" fill="#489B6D" stroke="black" stroke-width="16"/>
<path d="M126.555 77.8737C174.82 72.9948 227.392 90.4428 269.482 125.4V402.925C241.166 399.593 212.58 389.029 186.405 371.878L185.074 370.999C156.166 351.75 131.006 324.945 112.395 293.459C76.7231 233.108 69.0323 163.157 90.907 106.116L91.4295 104.77C93.5257 99.4369 96.5815 94.6851 100.523 90.612C107.542 83.3614 116.802 78.8586 126.554 77.8737H126.555Z" fill="#A2CE86" stroke="black" stroke-width="16"/>
</svg>
