<svg width="800" height="800" viewBox="0 0 800 800" fill="none" xmlns="http://www.w3.org/2000/svg">
<g clip-path="url(#clip0_1_5)">
<path d="M452.371 267.611H348.29C266.606 307.135 151.459 435.853 151.459 554.688C151.459 615.819 168.454 674.052 200.601 723.061C213.776 743.086 239.992 755.603 268.978 755.603H531.549C560.533 755.603 586.884 743.218 599.927 723.061C632.074 674.052 649.069 615.95 649.069 554.688C649.069 435.72 534.052 307.135 452.371 267.611Z" fill="#5F87D6"/>
<path d="M360.937 222.158H438.537C448.945 183.953 474.109 154.571 500.721 123.875C514.16 108.46 527.598 92.6519 539.983 74.997C448.814 32.1794 350.794 32.1794 259.624 74.997C271.744 92.5194 285.447 108.33 298.621 123.875C325.365 154.704 350.529 183.953 360.937 222.158Z" fill="#FFC10D"/>
<path d="M482.541 233.224C482.803 232.961 482.803 232.566 482.278 232.301C490.578 204.108 511.131 180.129 534.582 153.12C553.158 131.514 574.239 107.14 591.233 77.4976C597.424 66.6943 593.605 52.9931 582.67 46.9322C468.839 -15.6475 330.902 -15.6475 217.204 46.9322C206.401 52.8606 202.449 66.8268 208.64 77.4976C225.635 107.14 246.716 131.514 265.292 152.988C288.743 180.127 309.163 203.974 317.596 232.169C316.805 232.697 316.938 232.959 317.728 233.485C224.451 284.866 106.801 422.278 106.801 554.684C106.801 624.642 126.301 691.175 163.19 747.431C184.401 779.84 224.979 799.998 268.72 799.998H531.291C575.031 799.998 615.477 779.84 636.82 747.431C673.71 691.175 693.209 624.644 693.209 554.684C693.468 421.887 575.421 284.08 482.541 233.224ZM531.549 755.603H268.846C239.862 755.603 213.511 743.218 200.468 723.061C168.321 674.052 151.327 615.95 151.327 554.688C151.327 435.853 266.474 307.135 348.288 267.611H452.368C533.92 307.135 648.936 435.853 648.936 554.688C648.936 615.819 631.941 674.052 599.795 723.061C586.619 743.218 560.533 755.603 531.549 755.603ZM539.98 75.1295C527.861 92.6519 514.157 108.462 500.719 124.008C474.238 154.706 448.943 183.82 438.535 222.291H360.935C350.529 184.083 325.365 154.704 298.753 124.006C285.315 108.591 271.876 92.7823 259.757 75.1274C350.925 32.4423 448.812 32.4423 539.98 75.1295Z" fill="#031B31"/>
<path d="M441.567 312.142H359.093C305.605 341.785 238.281 413.851 209.824 487.892H267.662C279.914 487.892 289.927 497.772 289.927 510.157C289.927 522.409 280.047 532.422 267.662 532.422H197.835C196.782 539.932 195.463 553.37 196.386 567.204H231.036C243.288 567.204 253.3 577.084 253.3 589.468C253.3 601.721 243.42 611.733 231.036 611.733H201.787C208.373 643.089 220.495 672.468 237.753 698.817C241.837 705.009 253.826 711.465 268.976 711.465H531.547C546.698 711.465 558.687 705.141 562.771 699.08C589.911 657.053 604.403 607.252 604.403 554.817C604.669 461.543 511.262 350.743 441.567 312.142Z" fill="#326ADB"/>
<path d="M400.199 489.474C378.46 489.474 360.674 471.819 360.674 449.949C360.674 428.21 378.329 410.425 400.199 410.425C421.938 410.425 439.723 428.08 439.723 449.949C439.723 462.202 449.603 472.214 461.988 472.214C474.24 472.214 484.252 462.334 484.252 449.949C484.252 411.348 458.166 378.939 422.463 369.189V352.325C422.463 340.073 412.583 330.06 400.199 330.06C387.814 330.06 377.934 339.94 377.934 352.325V369.189C342.494 378.939 316.145 411.348 316.145 449.949C316.145 496.193 353.825 533.873 400.068 533.873C421.807 533.873 439.593 551.528 439.593 573.397C439.593 595.136 421.938 612.921 400.068 612.921C378.329 612.921 360.544 595.266 360.544 573.397C360.544 561.145 350.664 551.132 338.279 551.132C326.027 551.132 316.015 561.012 316.015 573.397C316.015 611.998 342.1 644.408 377.804 654.157V671.021C377.804 683.274 387.684 693.286 400.068 693.286C412.321 693.286 422.333 683.406 422.333 671.021V654.157C457.773 644.408 484.122 611.998 484.122 573.397C484.12 527.154 446.442 489.474 400.199 489.474Z" fill="#092E51"/>
</g>
<defs>
<clipPath id="clip0_1_5">
<rect width="800" height="800" fill="white"/>
</clipPath>
</defs>
</svg>
