<svg width="400" height="274" viewBox="0 0 400 274" fill="none" xmlns="http://www.w3.org/2000/svg">
<path d="M159.696 93.1545L171.121 98.7971L175.925 101.175L188.653 107.471L195.976 111.061L197.355 111.729C198.358 112.214 199.288 112.837 200.119 113.579L210.197 122.578L230.621 140.81L247.5 155.918V155.918C247.522 155.938 247.545 155.955 247.57 155.969C248.381 156.442 249.157 157.002 249.884 157.652L284.093 188.224C289.903 193.416 290.404 202.336 285.211 208.146C280.019 213.956 271.099 214.456 265.289 209.264L254.59 199.701C254.563 199.677 254.521 199.678 254.494 199.703V199.703V199.703C254.486 199.711 254.487 199.724 254.495 199.732L265.321 209.407C271.131 214.6 271.48 223.69 266.1 229.71C260.719 235.73 251.646 236.402 245.836 231.209V231.209C245.315 230.743 243.908 231.794 244.076 232.473C245.158 236.846 244.132 241.662 240.902 245.275C235.71 251.085 226.79 251.585 220.981 246.393L216.424 242.32C216.417 242.314 216.405 242.315 216.399 242.323V242.323V242.323C216.151 242.598 216.118 243.003 216.291 243.33C216.293 243.334 216.296 243.339 216.298 243.343C216.847 244.347 217.265 245.408 217.547 246.495C218.707 250.918 217.697 255.821 214.425 259.486C210.667 263.688 204.958 265.11 199.893 263.61C199.25 263.421 198.617 263.186 198.001 262.899V262.899C197.988 262.893 197.973 262.897 197.965 262.909L197.939 262.947C197.912 262.989 197.853 262.997 197.816 262.963L197.467 262.654V262.654C197.437 262.627 197.404 262.604 197.369 262.586C196.836 262.309 196.321 261.996 195.821 261.645C195.796 261.629 195.768 261.613 195.742 261.592C195.314 261.289 194.901 260.96 194.504 260.604L184.855 251.978L177.697 245.585L175.189 243.337L174.562 242.779L172 240.489L160.296 230.029C159.394 229.225 158.619 228.328 157.976 227.366C157.961 227.344 157.944 227.325 157.925 227.308V227.308L156.853 226.376L153.746 223.593C153.735 223.583 153.729 223.569 153.729 223.554V223.554C153.729 223.54 153.722 223.526 153.712 223.516L150.651 220.781L150.605 220.734L135.684 207.444L132.576 204.663C132.565 204.653 132.559 204.638 132.559 204.623V204.623C132.559 204.608 132.552 204.593 132.541 204.583L129.435 201.848L114.233 188.254C113.495 187.593 112.892 186.794 112.461 185.902V185.902L112.042 185.108L110.037 181.238L99.4992 160.534L96.5129 154.661C94.1296 149.974 95.0758 144.281 98.8471 140.616L145.659 95.1303C149.296 91.5964 154.762 90.7302 159.313 92.9663L159.696 93.1545Z" fill="#FCEFC7"/>
<path d="M159.696 93.1545L161.911 88.6715L161.901 88.6669L159.696 93.1545ZM171.121 98.7971L173.339 94.3161L173.335 94.3141L171.121 98.7971ZM175.925 101.175L173.707 105.656L173.708 105.657L175.925 101.175ZM188.653 107.471L186.437 111.953C186.442 111.955 186.447 111.958 186.452 111.96L188.653 107.471ZM195.976 111.061L193.775 115.55C193.782 115.554 193.79 115.558 193.797 115.561L195.976 111.061ZM210.197 122.578L206.867 126.308L206.868 126.308L210.197 122.578ZM230.621 140.81L233.956 137.084L233.951 137.08L230.621 140.81ZM249.884 157.652L253.216 153.923L253.216 153.923L249.884 157.652ZM284.093 188.224L287.425 184.496L287.425 184.496L284.093 188.224ZM285.211 208.146L281.483 204.814L281.483 204.814L285.211 208.146ZM265.289 209.264L261.957 212.992L261.957 212.992L265.289 209.264ZM265.321 209.407L268.654 205.68L268.653 205.679L265.321 209.407ZM266.1 229.71L269.828 233.042L269.828 233.042L266.1 229.71ZM240.902 245.275L237.175 241.943L237.174 241.943L240.902 245.275ZM220.981 246.393L217.649 250.121L217.649 250.121L220.981 246.393ZM216.298 243.343L211.877 245.679C211.889 245.7 211.9 245.722 211.912 245.743L216.298 243.343ZM217.547 246.495L212.707 247.751L212.711 247.764L217.547 246.495ZM214.425 259.486L218.152 262.819L218.154 262.816L214.425 259.486ZM199.893 263.61L201.312 258.815C201.308 258.814 201.303 258.813 201.299 258.811L199.893 263.61ZM195.821 261.645L198.695 257.553C198.615 257.497 198.532 257.442 198.449 257.391L195.821 261.645ZM195.742 261.592L198.917 257.73C198.825 257.654 198.73 257.581 198.632 257.512L195.742 261.592ZM194.504 260.604L197.841 256.88L197.836 256.876L194.504 260.604ZM184.855 251.978L188.187 248.25L188.185 248.249L184.855 251.978ZM177.697 245.585L174.361 249.309L174.367 249.314L177.697 245.585ZM175.189 243.337L178.525 239.613C178.522 239.61 178.518 239.607 178.515 239.604L175.189 243.337ZM174.562 242.779L171.229 246.506L171.236 246.512L174.562 242.779ZM172 240.489L175.333 236.761L175.332 236.76L172 240.489ZM160.296 230.029L163.628 226.3L163.622 226.295L160.296 230.029ZM156.853 226.376L153.516 230.1C153.535 230.117 153.554 230.134 153.573 230.151L156.853 226.376ZM150.651 220.781L147.116 224.316C147.182 224.382 147.25 224.446 147.319 224.508L150.651 220.781ZM150.605 220.734L154.14 217.198C154.072 217.13 154.002 217.064 153.93 217L150.605 220.734ZM135.684 207.444L132.349 211.169L132.358 211.177L135.684 207.444ZM129.435 201.848L126.102 205.575C126.111 205.583 126.121 205.592 126.13 205.6L129.435 201.848ZM112.042 185.108L107.602 187.408C107.608 187.419 107.614 187.43 107.62 187.441L112.042 185.108ZM110.037 181.238L105.581 183.506C105.587 183.516 105.592 183.527 105.598 183.537L110.037 181.238ZM99.4992 160.534L95.0422 162.801L95.0432 162.803L99.4992 160.534ZM132.541 204.583L135.845 200.831L132.541 204.583ZM132.576 204.663L129.242 208.388L129.242 208.388L132.576 204.663ZM153.746 223.593L150.409 227.317L153.746 223.593ZM157.976 227.366L153.818 230.143L157.976 227.366ZM114.233 188.254L117.566 184.527L114.233 188.254ZM247.57 155.969L250.086 151.648L247.57 155.969ZM197.939 262.947L193.77 260.187L197.939 262.947ZM197.816 262.963L201.136 259.225L197.816 262.963ZM197.369 262.586L195.065 267.024L197.369 262.586ZM216.424 242.32L213.092 246.048L216.424 242.32ZM200.119 113.579L196.789 117.308L200.119 113.579ZM254.495 199.732L251.163 203.46L254.495 199.732ZM153.712 223.516L150.379 227.244L153.712 223.516ZM216.291 243.33L220.709 240.988L216.291 243.33ZM98.8471 140.616L95.3628 137.03L98.8471 140.616ZM254.59 199.701L257.922 195.973L254.59 199.701ZM197.965 262.909L202.134 265.669L197.965 262.909ZM244.076 232.473L248.93 231.272L244.076 232.473ZM159.696 93.1545L157.482 97.6376L168.907 103.28L171.121 98.7971L173.335 94.3141L161.911 88.6715L159.696 93.1545ZM171.121 98.7971L168.903 103.278L173.707 105.656L175.925 101.175L178.143 96.694L173.339 94.3161L171.121 98.7971ZM175.925 101.175L173.708 105.657L186.437 111.953L188.653 107.471L190.87 102.989L178.142 96.6933L175.925 101.175ZM188.653 107.471L186.452 111.96L193.775 115.55L195.976 111.061L198.177 106.571L190.854 102.981L188.653 107.471ZM195.976 111.061L193.797 115.561L195.176 116.229L197.355 111.729L199.534 107.228L198.154 106.56L195.976 111.061ZM200.119 113.579L196.789 117.308L206.867 126.308L210.197 122.578L213.528 118.849L203.449 109.849L200.119 113.579ZM210.197 122.578L206.868 126.308L227.292 144.54L230.621 140.81L233.951 137.08L213.527 118.848L210.197 122.578ZM230.621 140.81L227.286 144.535L244.165 159.644L247.5 155.918L250.835 152.193L233.956 137.084L230.621 140.81ZM247.57 155.969L245.054 160.29C245.576 160.594 246.079 160.957 246.552 161.38L249.884 157.652L253.216 153.923C252.235 153.047 251.185 152.289 250.086 151.648L247.57 155.969ZM249.884 157.652L246.552 161.38L280.761 191.952L284.093 188.224L287.425 184.496L253.216 153.923L249.884 157.652ZM284.093 188.224L280.761 191.952C284.512 195.304 284.835 201.063 281.483 204.814L285.211 208.146L288.939 211.478C295.972 203.609 295.293 191.528 287.425 184.496L284.093 188.224ZM285.211 208.146L281.483 204.814C278.131 208.565 272.372 208.888 268.621 205.536L265.289 209.264L261.957 212.992C269.826 220.024 281.907 219.347 288.939 211.477L285.211 208.146ZM265.289 209.264L268.621 205.536L257.922 195.973L254.59 199.701L251.258 203.429L261.957 212.992L265.289 209.264ZM254.495 199.732L251.163 203.46L261.99 213.136L265.321 209.407L268.653 205.679L257.827 196.004L254.495 199.732ZM265.321 209.407L261.989 213.135C265.617 216.378 266.024 222.292 262.372 226.378L266.1 229.71L269.828 233.042C276.936 225.088 276.645 212.823 268.654 205.68L265.321 209.407ZM266.1 229.71L262.372 226.378C258.719 230.466 252.795 230.723 249.168 227.481L245.836 231.209L242.504 234.937C250.497 242.081 262.72 240.995 269.828 233.042L266.1 229.71ZM244.076 232.473L239.223 233.674C239.925 236.512 239.256 239.614 237.175 241.943L240.902 245.275L244.63 248.607C249.007 243.71 250.392 237.181 248.93 231.272L244.076 232.473ZM240.902 245.275L237.174 241.943C233.823 245.694 228.064 246.017 224.312 242.665L220.981 246.393L217.649 250.121C225.517 257.152 237.598 256.477 244.631 248.606L240.902 245.275ZM220.981 246.393L224.313 242.665L219.756 238.592L216.424 242.32L213.092 246.048L217.649 250.121L220.981 246.393ZM216.291 243.33L211.873 245.672C211.875 245.674 211.876 245.677 211.877 245.679L216.298 243.343L220.719 241.007C220.715 241.001 220.712 240.994 220.709 240.988L216.291 243.33ZM216.298 243.343L211.912 245.743C212.261 246.382 212.528 247.059 212.707 247.751L217.547 246.495L222.387 245.24C222.002 243.757 221.433 242.311 220.684 240.943L216.298 243.343ZM217.547 246.495L212.711 247.764C213.463 250.633 212.805 253.793 210.696 256.155L214.425 259.486L218.154 262.816C222.59 257.849 223.951 251.202 222.383 245.227L217.547 246.495ZM214.425 259.486L210.698 256.153C208.277 258.86 204.594 259.787 201.312 258.815L199.893 263.61L198.473 268.404C205.322 270.432 213.057 268.516 218.152 262.819L214.425 259.486ZM199.893 263.61L201.299 258.811C200.884 258.69 200.489 258.542 200.115 258.368L198.001 262.899L195.887 267.43C196.745 267.83 197.616 268.153 198.487 268.408L199.893 263.61ZM197.965 262.909L193.796 260.149L193.77 260.187L197.939 262.947L202.109 265.707L202.134 265.669L197.965 262.909ZM197.816 262.963L201.136 259.225L200.788 258.916L197.467 262.654L194.146 266.392L194.495 266.701L197.816 262.963ZM197.369 262.586L199.672 258.148C199.344 257.978 199.019 257.781 198.695 257.553L195.821 261.645L192.948 265.737C193.623 266.211 194.328 266.641 195.065 267.024L197.369 262.586ZM195.821 261.645L198.449 257.391C198.428 257.378 198.387 257.353 198.406 257.365C198.409 257.366 198.439 257.385 198.48 257.411C198.561 257.463 198.725 257.571 198.917 257.73L195.742 261.592L192.567 265.454C192.786 265.634 192.976 265.761 193.084 265.83C193.138 265.864 193.181 265.891 193.198 265.901C193.23 265.921 193.202 265.904 193.194 265.899L195.821 261.645ZM195.742 261.592L198.632 257.512C198.359 257.318 198.096 257.109 197.841 256.88L194.504 260.604L191.167 264.327C191.707 264.811 192.269 265.259 192.853 265.672L195.742 261.592ZM194.504 260.604L197.836 256.876L188.187 248.25L184.855 251.978L181.522 255.705L191.172 264.331L194.504 260.604ZM184.855 251.978L188.185 248.249L181.028 241.856L177.697 245.585L174.367 249.314L181.524 255.707L184.855 251.978ZM177.697 245.585L181.034 241.861L178.525 239.613L175.189 243.337L171.852 247.061L174.361 249.309L177.697 245.585ZM175.189 243.337L178.515 239.604L177.888 239.045L174.562 242.779L171.236 246.512L171.862 247.07L175.189 243.337ZM174.562 242.779L177.894 239.051L175.333 236.761L172 240.489L168.668 244.216L171.229 246.506L174.562 242.779ZM172 240.489L175.332 236.76L163.628 226.3L160.296 230.029L156.964 233.757L168.668 244.217L172 240.489ZM160.296 230.029L163.622 226.295C163.038 225.775 162.542 225.2 162.133 224.588L157.976 227.366L153.818 230.143C154.695 231.456 155.749 232.674 156.97 233.762L160.296 230.029ZM157.925 227.308L161.204 223.534L160.132 222.602L156.853 226.376L153.573 230.151L154.646 231.082L157.925 227.308ZM156.853 226.376L160.189 222.652L157.082 219.869L153.746 223.593L150.409 227.317L153.516 230.1L156.853 226.376ZM153.712 223.516L157.044 219.789L153.984 217.053L150.651 220.781L147.319 224.508L150.379 227.244L153.712 223.516ZM150.651 220.781L154.187 217.245L154.14 217.198L150.605 220.734L147.069 224.269L147.116 224.316L150.651 220.781ZM150.605 220.734L153.93 217L139.009 203.71L135.684 207.444L132.358 211.177L147.279 224.467L150.605 220.734ZM135.684 207.444L139.018 203.718L135.911 200.937L132.576 204.663L129.242 208.388L132.349 211.169L135.684 207.444ZM132.541 204.583L135.845 200.831L132.739 198.095L129.435 201.848L126.13 205.6L129.236 208.335L132.541 204.583ZM129.435 201.848L132.768 198.121L117.566 184.527L114.233 188.254L110.9 191.981L126.102 205.575L129.435 201.848ZM112.461 185.902L116.883 183.568L116.464 182.774L112.042 185.108L107.62 187.441L108.039 188.235L112.461 185.902ZM112.042 185.108L116.482 182.808L114.477 178.938L110.037 181.238L105.598 183.537L107.602 187.408L112.042 185.108ZM110.037 181.238L114.493 178.969L103.955 158.266L99.4992 160.534L95.0432 162.803L105.581 183.506L110.037 181.238ZM99.4992 160.534L103.956 158.268L100.97 152.395L96.5129 154.661L92.0559 156.927L95.0422 162.801L99.4992 160.534ZM98.8471 140.616L102.332 144.202L149.144 98.7163L145.659 95.1303L142.175 91.5443L95.3628 137.03L98.8471 140.616ZM159.313 92.9663L157.108 97.4539L157.492 97.6422L159.696 93.1545L161.901 88.6669L161.518 88.4786L159.313 92.9663ZM145.659 95.1303L149.144 98.7163C151.265 96.6548 154.453 96.1495 157.108 97.4539L159.313 92.9663L161.518 88.4786C155.07 85.3108 147.327 86.538 142.175 91.5443L145.659 95.1303ZM132.559 204.623H137.559C137.559 203.171 136.934 201.79 135.845 200.831L132.541 204.583L129.236 208.335C128.17 207.396 127.559 206.044 127.559 204.623H132.559ZM132.576 204.663L135.911 200.937C136.959 201.875 137.559 203.216 137.559 204.623H132.559H127.559C127.559 206.06 128.171 207.43 129.242 208.388L132.576 204.663ZM153.746 223.593L157.082 219.869C158.13 220.807 158.729 222.148 158.729 223.554H153.729H148.729C148.729 224.99 149.34 226.359 150.409 227.317L153.746 223.593ZM157.976 227.366L162.133 224.588C161.874 224.201 161.562 223.843 161.2 223.529L157.925 227.308L154.65 231.086C154.327 230.806 154.048 230.488 153.818 230.143L157.976 227.366ZM114.233 188.254L117.566 184.527C117.315 184.302 117.11 184.03 116.963 183.726L112.461 185.902L107.959 188.078C108.675 189.558 109.674 190.885 110.9 191.981L114.233 188.254ZM247.5 155.918L244.137 159.618C244.424 159.879 244.732 160.103 245.054 160.29L247.57 155.969L250.086 151.648C250.358 151.807 250.619 151.997 250.863 152.219L247.5 155.918ZM197.939 262.947L193.77 260.187C195.422 257.692 198.9 257.238 201.136 259.225L197.816 262.963L194.495 266.701C196.807 268.755 200.402 268.286 202.109 265.707L197.939 262.947ZM197.467 262.654L200.794 258.921C200.445 258.61 200.066 258.353 199.672 258.148L197.369 262.586L195.065 267.024C194.742 266.856 194.429 266.644 194.14 266.386L197.467 262.654ZM216.424 242.32L219.756 238.592C217.61 236.674 214.293 236.951 212.494 239.199L216.399 242.323L220.303 245.446C218.517 247.678 215.223 247.953 213.092 246.048L216.424 242.32ZM197.355 111.729L195.176 116.229C195.761 116.512 196.304 116.875 196.789 117.308L200.119 113.579L203.449 109.849C202.272 108.798 200.954 107.916 199.534 107.228L197.355 111.729ZM254.494 199.703L250.959 196.168C248.92 198.206 249.014 201.539 251.163 203.46L254.495 199.732L257.827 196.004C259.96 197.91 260.052 201.216 258.03 203.239L254.494 199.703ZM153.729 223.554H158.729C158.729 222.117 158.116 220.747 157.044 219.789L153.712 223.516L150.379 227.244C149.329 226.305 148.729 224.963 148.729 223.554H153.729ZM216.399 242.323L212.684 238.975C210.902 240.952 210.809 243.663 211.873 245.672L216.291 243.33L220.709 240.988C221.427 242.342 221.399 244.243 220.113 245.67L216.399 242.323ZM96.5129 154.661L100.97 152.395C99.5796 149.661 100.132 146.34 102.332 144.202L98.8471 140.616L95.3628 137.03C90.02 142.222 88.6796 150.287 92.0559 156.927L96.5129 154.661ZM254.59 199.701L257.922 195.973C255.932 194.194 252.903 194.263 250.996 196.131L254.494 199.703L257.992 203.276C256.138 205.092 253.193 205.159 251.258 203.429L254.59 199.701ZM198.001 262.899L200.084 258.353C197.924 257.363 195.219 257.999 193.796 260.149L197.965 262.909L202.134 265.669C200.727 267.794 198.052 268.422 195.918 267.444L198.001 262.899ZM245.836 231.209L249.168 227.481C247.366 225.871 245.273 226.01 244.266 226.226C243.198 226.456 242.341 226.941 241.747 227.375C241.139 227.82 240.481 228.449 239.964 229.278C239.512 230.004 238.717 231.63 239.223 233.674L244.076 232.473L248.93 231.272C249.352 232.976 248.669 234.217 248.45 234.569C248.166 235.025 247.861 235.293 247.648 235.448C247.45 235.593 247.032 235.86 246.369 236.003C245.768 236.132 244.045 236.315 242.504 234.937L245.836 231.209Z" fill="#031B31"/>
<mask id="path-3-outside-1_1_11" maskUnits="userSpaceOnUse" x="150.583" y="79.054" width="159" height="110" fill="black">
<rect fill="white" x="150.583" y="79.054" width="159" height="110"/>
<path d="M261.863 109.57L297.267 143.976C298.84 145.504 299.233 147.878 298.238 149.832L292.509 161.075C292.502 161.088 292.499 161.103 292.499 161.118V161.118C292.499 161.133 292.495 161.148 292.489 161.161L285.231 175.451C283.745 178.378 279.889 179.102 277.441 176.915L252.549 154.668C251.835 154.031 251.084 153.459 250.302 152.954C250.049 152.79 249.805 152.611 249.579 152.409L233.289 137.829L233.285 137.826L217.302 123.559C216.395 122.749 215.223 122.287 214.007 122.324C212.705 122.363 211.433 122.451 210.197 122.578C198.123 123.915 189.329 129.122 189.124 129.244C189.119 129.248 189.117 129.246 189.111 129.246V129.246C189.09 129.246 189.074 129.263 189.073 129.283L188.794 141.557C188.607 149.343 182.173 155.5 174.386 155.313C166.933 155.13 161.049 149.342 160.647 142.082C160.631 141.795 160.595 141.508 160.586 141.221C160.583 141.12 160.583 141.015 160.583 140.903L161.282 111.9C161.422 105.698 165.526 100.569 171.121 98.7962C172.566 98.331 174.152 98.0984 175.737 98.1448H175.738L226.332 96.0931V96.0931C226.362 96.0931 226.392 96.0861 226.419 96.0727L231.927 93.3421L237.527 90.5723C239.425 89.6335 241.708 89.9922 243.227 91.4676L261.863 109.57Z"/>
</mask>
<path d="M261.863 109.57L297.267 143.976C298.84 145.504 299.233 147.878 298.238 149.832L292.509 161.075C292.502 161.088 292.499 161.103 292.499 161.118V161.118C292.499 161.133 292.495 161.148 292.489 161.161L285.231 175.451C283.745 178.378 279.889 179.102 277.441 176.915L252.549 154.668C251.835 154.031 251.084 153.459 250.302 152.954C250.049 152.79 249.805 152.611 249.579 152.409L233.289 137.829L233.285 137.826L217.302 123.559C216.395 122.749 215.223 122.287 214.007 122.324C212.705 122.363 211.433 122.451 210.197 122.578C198.123 123.915 189.329 129.122 189.124 129.244C189.119 129.248 189.117 129.246 189.111 129.246V129.246C189.09 129.246 189.074 129.263 189.073 129.283L188.794 141.557C188.607 149.343 182.173 155.5 174.386 155.313C166.933 155.13 161.049 149.342 160.647 142.082C160.631 141.795 160.595 141.508 160.586 141.221C160.583 141.12 160.583 141.015 160.583 140.903L161.282 111.9C161.422 105.698 165.526 100.569 171.121 98.7962C172.566 98.331 174.152 98.0984 175.737 98.1448H175.738L226.332 96.0931V96.0931C226.362 96.0931 226.392 96.0861 226.419 96.0727L231.927 93.3421L237.527 90.5723C239.425 89.6335 241.708 89.9922 243.227 91.4676L261.863 109.57Z" fill="#E3C68C"/>
<path d="M261.863 109.57L268.832 102.398L268.831 102.397L261.863 109.57ZM252.549 154.668L259.212 147.212L259.212 147.212L252.549 154.668ZM233.289 137.829L226.218 144.9C226.348 145.031 226.482 145.158 226.62 145.281L233.289 137.829ZM233.285 137.826L240.356 130.754C240.223 130.621 240.085 130.491 239.944 130.365L233.285 137.826ZM210.197 122.578L209.169 112.631C209.145 112.634 209.121 112.636 209.097 112.639L210.197 122.578ZM188.794 141.557L198.791 141.797L198.791 141.785L188.794 141.557ZM174.386 155.313L174.14 165.31L174.146 165.31L174.386 155.313ZM160.583 140.903L150.586 140.662C150.584 140.742 150.583 140.822 150.583 140.903L160.583 140.903ZM161.282 111.9L171.279 112.141C171.279 112.135 171.279 112.13 171.28 112.125L161.282 111.9ZM171.121 98.7962L174.141 108.329C174.156 108.325 174.17 108.32 174.185 108.315L171.121 98.7962ZM175.737 98.1448L175.444 108.141C175.542 108.143 175.64 108.145 175.737 108.145V98.1448ZM175.738 98.1448V108.145C175.873 108.145 176.008 108.142 176.143 108.137L175.738 98.1448ZM231.927 93.3421L227.493 84.3785L227.485 84.3827L231.927 93.3421ZM226.419 96.0727L230.861 105.032L226.419 96.0727ZM189.124 129.244L194.244 137.834L189.124 129.244ZM214.007 122.324L213.707 112.328L214.007 122.324ZM160.647 142.082L150.662 142.635L160.647 142.082ZM285.231 175.451L294.147 179.979L285.231 175.451ZM277.441 176.915L284.105 169.459L277.441 176.915ZM292.489 161.161L283.573 156.633L292.489 161.161ZM292.509 161.075L301.419 165.615L292.509 161.075ZM250.302 152.954L244.873 161.352L250.302 152.954ZM249.579 152.409L242.91 159.861L249.579 152.409ZM189.073 129.283L199.071 129.511L189.073 129.283ZM297.267 143.976L304.237 136.805L297.267 143.976ZM298.238 149.832L289.328 145.292L298.238 149.832ZM261.863 109.57L254.894 116.741L290.298 151.148L297.267 143.976L304.237 136.805L268.832 102.398L261.863 109.57ZM298.238 149.832L289.328 145.292L283.599 156.535L292.509 161.075L301.419 165.615L307.148 154.372L298.238 149.832ZM292.489 161.161L283.573 156.633L276.315 170.923L285.231 175.451L294.147 179.979L301.405 165.69L292.489 161.161ZM277.441 176.915L284.105 169.459L259.212 147.212L252.549 154.668L245.885 162.125L270.778 184.371L277.441 176.915ZM252.549 154.668L259.212 147.212C258.11 146.227 256.946 145.341 255.732 144.557L250.302 152.954L244.873 161.352C245.221 161.577 245.56 161.834 245.886 162.125L252.549 154.668ZM249.579 152.409L256.248 144.958L239.958 130.378L233.289 137.829L226.62 145.281L242.91 159.861L249.579 152.409ZM233.289 137.829L240.36 130.758L240.356 130.754L233.285 137.826L226.214 144.897L226.218 144.9L233.289 137.829ZM233.285 137.826L239.944 130.365L223.962 116.099L217.302 123.559L210.643 131.019L226.626 145.286L233.285 137.826ZM214.007 122.324L213.707 112.328C212.153 112.375 210.638 112.48 209.169 112.631L210.197 122.578L211.225 132.525C212.228 132.422 213.258 132.351 214.308 132.319L214.007 122.324ZM210.197 122.578L209.097 112.639C194.956 114.204 184.718 120.229 184.005 120.654L189.124 129.244L194.244 137.834C193.94 138.016 201.291 133.625 211.297 132.518L210.197 122.578ZM189.073 129.283L179.076 129.055L178.796 141.329L188.794 141.557L198.791 141.785L199.071 129.511L189.073 129.283ZM188.794 141.557L178.797 141.317C178.742 143.604 176.869 145.369 174.625 145.316L174.386 155.313L174.146 165.31C187.476 165.63 198.472 155.082 198.791 141.797L188.794 141.557ZM174.386 155.313L174.631 145.316C172.385 145.261 170.745 143.579 170.632 141.53L160.647 142.082L150.662 142.635C151.353 155.105 161.48 164.999 174.14 165.31L174.386 155.313ZM160.586 141.221L170.581 140.915C170.582 140.942 170.583 140.962 170.583 140.974C170.583 140.987 170.583 140.993 170.583 140.991C170.583 140.989 170.583 140.981 170.583 140.966C170.583 140.958 170.583 140.95 170.583 140.939C170.583 140.928 170.583 140.917 170.583 140.903L160.583 140.903L150.583 140.903C150.583 140.988 150.582 141.247 150.591 141.526L160.586 141.221ZM160.583 140.903L170.58 141.144L171.279 112.141L161.282 111.9L151.285 111.659L150.586 140.662L160.583 140.903ZM161.282 111.9L171.28 112.125C171.319 110.355 172.472 108.858 174.141 108.329L171.121 98.7962L168.101 89.2631C158.58 92.2793 151.524 101.041 151.285 111.675L161.282 111.9ZM171.121 98.7962L174.185 108.315C174.553 108.197 175.004 108.128 175.444 108.141L175.737 98.1448L176.03 88.1491C173.3 88.0691 170.579 88.4654 168.057 89.2772L171.121 98.7962ZM175.737 98.1448V108.145H175.738V98.1448V88.1448H175.737V98.1448ZM175.738 98.1448L176.143 108.137L226.737 106.085L226.332 96.0931L225.927 86.1013L175.333 88.153L175.738 98.1448ZM226.419 96.0727L230.861 105.032L236.368 102.301L231.927 93.3421L227.485 84.3827L221.977 87.1133L226.419 96.0727ZM231.927 93.3421L236.36 102.306L241.96 99.5359L237.527 90.5723L233.093 81.6087L227.493 84.3785L231.927 93.3421ZM243.227 91.4676L236.26 98.6406L254.896 116.743L261.863 109.57L268.831 102.397L250.195 84.2945L243.227 91.4676ZM226.332 96.0931V106.093C227.903 106.093 229.453 105.73 230.861 105.032L226.419 96.0727L221.977 87.1133C223.331 86.4422 224.821 86.0931 226.332 86.0931V96.0931ZM189.124 129.244L184.005 120.654C184.361 120.442 185.004 120.087 185.866 119.79C186.831 119.458 187.773 119.299 188.643 119.258C189.308 119.226 189.898 119.276 189.756 119.267C189.736 119.266 189.459 119.246 189.111 119.246V129.246V139.246C188.766 139.246 188.491 139.227 188.474 139.226C188.334 139.217 188.926 139.267 189.593 139.235C190.465 139.194 191.409 139.034 192.375 138.702C193.24 138.404 193.885 138.049 194.244 137.834L189.124 129.244ZM217.302 123.559L223.962 116.099C221.292 113.716 217.673 112.209 213.707 112.328L214.007 122.324L214.308 132.319C212.773 132.366 211.498 131.782 210.643 131.019L217.302 123.559ZM160.647 142.082L170.632 141.53C170.622 141.343 170.609 141.18 170.6 141.063C170.592 140.964 170.581 140.835 170.578 140.805C170.573 140.748 170.573 140.743 170.574 140.755C170.575 140.771 170.579 140.829 170.581 140.915L160.586 141.221L150.591 141.526C150.604 141.963 150.636 142.341 150.65 142.498C150.659 142.611 150.661 142.626 150.664 142.671C150.667 142.697 150.665 142.678 150.662 142.635L160.647 142.082ZM285.231 175.451L276.315 170.923C277.802 167.996 281.657 167.271 284.105 169.459L277.441 176.915L270.778 184.371C278.121 190.934 289.688 188.76 294.147 179.979L285.231 175.451ZM292.499 161.118H282.499C282.499 159.559 282.867 158.023 283.573 156.633L292.489 161.161L301.405 165.69C302.124 164.273 302.499 162.707 302.499 161.118H292.499ZM237.527 90.5723L241.96 99.5359C240.062 100.475 237.779 100.116 236.26 98.6406L243.227 91.4676L250.195 84.2945C245.638 79.8684 238.787 78.7925 233.093 81.6087L237.527 90.5723ZM292.509 161.075L283.599 156.535C282.876 157.954 282.499 159.525 282.499 161.118H292.499H302.499C302.499 162.681 302.129 164.222 301.419 165.615L292.509 161.075ZM250.302 152.954L255.732 144.557C255.803 144.602 255.997 144.733 256.248 144.958L249.579 152.409L242.91 159.861C243.612 160.488 244.294 160.977 244.873 161.352L250.302 152.954ZM189.111 129.246V119.246C183.656 119.246 179.2 123.602 179.076 129.055L189.073 129.283L199.071 129.511C198.947 134.923 194.524 139.246 189.111 139.246V129.246ZM297.267 143.976L290.298 151.148C288.726 149.62 288.332 147.245 289.328 145.292L298.238 149.832L307.148 154.372C310.134 148.511 308.954 141.389 304.237 136.805L297.267 143.976Z" fill="#031B31" mask="url(#path-3-outside-1_1_11)"/>
<path d="M357.9 98.571C362.315 103.512 361.889 111.097 356.949 115.513L317.958 150.37L312.409 155.312L303.289 163.487C300.626 165.873 296.533 165.648 294.148 162.984L292.514 161.158C292.504 161.147 292.498 161.133 292.498 161.118V161.118C292.498 161.103 292.493 161.088 292.483 161.077L253.702 117.729L231.926 93.3418V93.3418C228.27 89.2469 228.625 82.9629 232.72 79.3061L239.247 73.4771L244.796 68.4878L283.83 33.6651C288.773 29.2553 296.354 29.6849 300.767 34.625L317.772 53.6597L357.9 98.571Z" fill="white" stroke="#031B31" stroke-width="10" stroke-linecap="round" stroke-linejoin="round"/>
<path opacity="0.07" d="M371.839 86.1161C376.255 91.0592 375.827 98.6463 370.883 103.061L365.893 107.517L317.958 150.37V150.37C314.891 153.101 310.192 152.834 307.454 149.774L266.945 104.486L244.218 79.0424C241.47 75.9658 241.729 71.246 244.796 68.4878V68.4878L305.927 13.838V13.838C306.341 13.4767 306.968 13.5155 307.334 13.9251L318.424 26.3348L331.014 40.4171L371.839 86.1161Z" fill="#0F0F0F" stroke="#031B31" stroke-width="10" stroke-linecap="round" stroke-linejoin="round"/>
<path d="M389.769 94.972C390.438 95.7201 390.375 96.8686 389.628 97.5386V97.5386L329.806 151.027C326.352 154.116 321.049 153.821 317.958 150.37V150.37L272.214 99.2172L244.796 68.4878V68.4878C241.732 65.0639 242.026 59.8039 245.453 56.7427L300.052 7.96258V7.96258C303.709 4.69198 309.325 5.00512 312.595 8.662L336.283 35.1479L389.769 94.972Z" fill="#1F55C3" stroke="#031B31" stroke-width="10" stroke-linecap="round" stroke-linejoin="round"/>
<path d="M158.937 79.4608C162.934 83.0299 163.274 89.1657 159.697 93.1549V93.1549L99.4988 160.535V160.535C95.9221 164.549 89.7654 164.894 85.7619 161.306L79.0751 155.312L73.5261 150.369L34.5344 115.512C29.5944 111.096 29.1687 103.512 33.5834 98.571L90.7164 34.624C95.1297 29.6844 102.711 29.2549 107.654 33.6646L146.688 68.4878L152.237 73.4771L158.937 79.4608Z" fill="white" stroke="#031B31" stroke-width="10" stroke-linecap="round" stroke-linejoin="round"/>
<path opacity="0.07" d="M146.688 68.4878C149.755 71.2456 150.012 75.9652 147.263 79.0402L84.0279 149.772C81.2911 152.834 76.5923 153.101 73.5261 150.37V150.37L25.5906 107.517L20.602 103.062C15.6577 98.6469 15.23 91.059 19.6468 86.116L47.2734 55.1987L82.6973 15.5508C83.8664 14.2423 85.8724 14.1232 87.1881 15.284V15.284L146.688 68.4878V68.4878Z" fill="#0F0F0F" stroke="#031B31" stroke-width="10" stroke-linecap="round" stroke-linejoin="round"/>
<path d="M146.032 56.742C149.458 59.8037 149.752 65.0638 146.688 68.4878V68.4878L73.5261 150.37V150.37C70.435 153.821 65.1319 154.115 61.678 151.027L41.4918 132.977L9.4493 104.325C4.50896 99.9071 4.08512 92.3211 8.50262 87.3807L77.4356 10.2881C81.5094 5.73207 88.5043 5.33841 93.0636 9.40856V9.40856L146.032 56.742Z" fill="#225DD3" stroke="#031B31" stroke-width="10" stroke-linecap="round" stroke-linejoin="round"/>
<path opacity="0.04" d="M219.815 238.492C219.784 239.12 219.726 239.741 219.632 240.364C219.428 241.691 219.083 242.998 218.597 244.258C218.299 245.022 217.954 245.769 217.546 246.496C216.584 248.242 215.314 249.857 213.74 251.263L200.542 263.032C200.138 263.392 199.575 263.525 199.066 263.34C198.728 263.217 198.394 263.081 198.064 262.929C198.026 262.912 197.982 262.921 197.954 262.951V262.951C197.919 262.989 197.86 262.993 197.821 262.958L197.507 262.678C197.474 262.649 197.437 262.623 197.397 262.603C197.079 262.439 196.767 262.261 196.461 262.07C196.079 261.832 195.584 261.858 195.248 262.157L194.685 262.658C194.597 262.737 194.461 262.729 194.382 262.641V262.641C194.315 262.566 194.206 262.548 194.118 262.594C188.527 265.521 181.453 264.404 177.059 259.487C174.472 256.591 173.301 252.927 173.494 249.33C173.597 247.384 174.104 245.46 175.004 243.689C175.109 243.483 175.066 243.23 174.893 243.076V243.076C174.704 242.908 174.418 242.907 174.229 243.076L170.504 246.392C170.186 246.679 169.857 246.946 169.518 247.196C169.517 247.197 169.516 247.199 169.516 247.2V247.2C169.516 247.202 169.515 247.204 169.514 247.205C163.722 251.516 155.485 250.768 150.582 245.274C148.005 242.388 146.828 238.74 147.011 235.154V235.149C147.183 231.766 148.569 228.442 151.13 225.885L143.905 232.321C143.623 232.577 143.33 232.817 143.027 233.042C137.225 237.449 128.918 236.727 123.984 231.202C120.806 227.648 119.76 222.928 120.763 218.612C120.763 218.61 120.764 218.608 120.764 218.606V218.606C120.764 218.605 120.764 218.603 120.764 218.601C121.392 215.863 122.845 213.292 125.102 211.28L132.551 204.641C132.555 204.638 132.555 204.633 132.552 204.63V204.63C132.549 204.627 132.544 204.627 132.541 204.63L124.595 211.709C122.515 213.564 120.042 214.694 117.481 215.106C112.88 215.864 108.008 214.322 104.673 210.59C99.4774 204.777 99.9793 195.858 105.792 190.668L108.431 188.318C109.363 187.488 110.419 186.809 111.561 186.305L140.479 173.527C143.784 172.066 147.621 172.104 150.629 174.107C152.375 175.269 154.052 176.593 154.637 177.698C155.773 179.843 155.461 181.411 155.155 183.102C155.047 183.699 155.537 184.222 156.143 184.222V184.222C161.35 184.222 166.321 186.449 169.787 190.328C170.33 190.935 170.826 191.569 171.273 192.224C173.658 195.72 178.509 198.295 182.74 198.295V198.295C183.132 198.295 183.519 198.306 183.906 198.332C188.684 198.64 193.18 200.815 196.384 204.401C199.991 208.437 201.474 213.644 200.916 218.636C200.875 219.008 201.17 219.336 201.543 219.336V219.336C206.75 219.336 211.722 221.563 215.187 225.442C218.513 229.156 220.035 233.866 219.815 238.492Z" fill="#0F0F0F" stroke="#031B31" stroke-width="10" stroke-linecap="round" stroke-linejoin="round"/>
<path d="M199.614 223.657C204.11 223.035 208.821 224.588 212.072 228.226C215.351 231.89 216.36 236.793 215.194 241.22C215.168 241.314 215.142 241.414 215.11 241.513C214.478 243.751 213.281 245.852 211.535 247.598L211.519 247.615C211.336 247.798 211.147 247.976 210.954 248.148L196.981 260.605L196.976 260.61C196.672 260.877 196.365 261.133 196.046 261.374C195.947 261.447 195.847 261.52 195.742 261.593C195.266 261.934 194.775 262.237 194.268 262.513C188.654 265.54 181.492 264.447 177.059 259.486C174.471 256.59 173.3 252.925 173.493 249.329C173.603 247.254 174.173 245.205 175.188 243.339C175.261 243.203 175.334 243.067 175.417 242.936C175.589 242.633 175.778 242.34 175.981 242.052C176.598 241.159 177.33 240.322 178.177 239.564L192.15 227.107C193.444 225.949 194.892 225.079 196.42 224.488C196.428 224.485 196.434 224.48 196.441 224.475V224.475C196.447 224.472 196.456 224.471 196.463 224.468C197.483 224.073 198.541 223.798 199.614 223.657ZM153.86 188.59C158.461 187.838 163.338 189.38 166.673 193.112C169.254 195.997 170.426 199.651 170.237 203.238C170.201 203.964 170.107 204.689 169.961 205.404C169.96 205.406 169.959 205.407 169.957 205.407V205.407C169.955 205.407 169.954 205.408 169.954 205.41C169.405 208.055 168.085 210.571 166.025 212.587L173.347 206.065C173.399 206.018 173.451 205.972 173.509 205.924C173.738 205.726 173.975 205.532 174.215 205.354C176.63 203.509 179.484 202.563 182.349 202.49C186.358 202.375 190.388 203.964 193.269 207.184C196.516 210.817 197.536 215.673 196.417 220.07C196.136 221.185 195.719 222.269 195.157 223.3C195.153 223.307 195.152 223.315 195.146 223.321V223.321C195.143 223.325 195.14 223.329 195.137 223.333C194.39 224.716 193.393 225.995 192.15 227.107L175.71 241.749L174.9 242.475L174.561 242.779L170.504 246.391C170.186 246.678 169.857 246.945 169.518 247.195C169.516 247.196 169.516 247.198 169.516 247.199V247.199C169.516 247.201 169.515 247.202 169.514 247.203C163.722 251.514 155.485 250.766 150.582 245.273C148.005 242.387 146.828 238.739 147.011 235.153V235.147C147.183 231.765 148.569 228.441 151.13 225.884C151.135 225.879 151.14 225.873 151.146 225.868L151.131 225.882L143.906 232.318C143.624 232.574 143.331 232.815 143.027 233.04C137.225 237.446 128.919 236.724 123.984 231.199C120.807 227.645 119.761 222.925 120.764 218.609C120.764 218.607 120.765 218.605 120.765 218.604V218.604C120.765 218.602 120.765 218.6 120.765 218.599C121.393 215.86 122.846 213.289 125.104 211.277L132.558 204.633L138.114 199.683L146.745 191.993C148.826 190.137 151.299 189.008 153.86 188.59ZM127.439 171.377C133.247 166.185 142.165 166.687 147.361 172.495C150.54 176.054 151.585 180.774 150.576 185.092C149.949 187.827 148.496 190.404 146.243 192.417L138.104 199.667L132.547 204.623L124.595 211.706C122.514 213.561 120.042 214.691 117.481 215.103C112.88 215.861 108.008 214.32 104.673 210.588C99.477 204.775 99.9794 195.856 105.792 190.666L112.022 185.114L119.3 178.627L127.439 171.377Z" fill="#E3C68C"/>
<path d="M199.614 223.657L200.264 228.615C200.276 228.613 200.288 228.611 200.3 228.61L199.614 223.657ZM212.072 228.226L208.344 231.558L208.346 231.56L212.072 228.226ZM215.194 241.22L220.014 242.553C220.019 242.533 220.025 242.513 220.03 242.493L215.194 241.22ZM215.11 241.513L210.342 240.01C210.327 240.058 210.312 240.106 210.299 240.154L215.11 241.513ZM211.535 247.598L215.071 251.134L215.072 251.133L211.535 247.598ZM211.519 247.615L215.054 251.151L215.054 251.15L211.519 247.615ZM210.954 248.148L214.281 251.88L214.285 251.877L210.954 248.148ZM196.981 260.605L200.182 264.446C200.225 264.411 200.267 264.374 200.309 264.337L196.981 260.605ZM196.976 260.61L193.775 256.769C193.741 256.797 193.707 256.826 193.674 256.855L196.976 260.61ZM196.046 261.374L199.016 265.396C199.031 265.385 199.046 265.373 199.061 265.362L196.046 261.374ZM195.742 261.593L192.887 257.489C192.869 257.501 192.852 257.513 192.835 257.526L195.742 261.593ZM194.268 262.513L196.64 266.914C196.648 266.91 196.656 266.906 196.663 266.902L194.268 262.513ZM177.059 259.486L173.33 262.818L173.33 262.818L177.059 259.486ZM173.493 249.329L178.486 249.597L178.486 249.593L173.493 249.329ZM175.188 243.339L179.581 245.726C179.583 245.722 179.586 245.717 179.588 245.712L175.188 243.339ZM175.417 242.936L179.64 245.612C179.683 245.546 179.723 245.478 179.762 245.41L175.417 242.936ZM175.981 242.052L180.062 244.942C180.073 244.926 180.085 244.909 180.096 244.893L175.981 242.052ZM178.177 239.564L174.85 235.832L174.841 235.839L178.177 239.564ZM192.15 227.107L195.478 230.839L195.484 230.834L192.15 227.107ZM153.86 188.59L154.665 193.525L154.668 193.525L153.86 188.59ZM166.673 193.112L162.944 196.443L162.947 196.446L166.673 193.112ZM170.237 203.238L165.244 202.976L165.244 202.986L170.237 203.238ZM166.025 212.587L162.528 209.013C160.587 210.913 160.518 214.014 162.371 215.999C164.224 217.984 167.323 218.127 169.351 216.32L166.025 212.587ZM173.347 206.065L176.672 209.799C176.678 209.794 176.683 209.789 176.689 209.784L173.347 206.065ZM173.509 205.924L176.67 209.798C176.706 209.769 176.742 209.739 176.777 209.708L173.509 205.924ZM174.215 205.354L177.188 209.374C177.209 209.359 177.23 209.343 177.251 209.327L174.215 205.354ZM182.349 202.49L182.476 207.488C182.482 207.488 182.487 207.488 182.492 207.488L182.349 202.49ZM193.269 207.184L196.996 203.852L196.995 203.851L193.269 207.184ZM196.417 220.07L191.571 218.837L191.569 218.847L196.417 220.07ZM175.71 241.749L172.385 238.015C172.38 238.019 172.375 238.023 172.37 238.028L175.71 241.749ZM174.9 242.475L178.232 246.203L178.24 246.196L174.9 242.475ZM174.561 242.779L177.886 246.513L177.892 246.507L174.561 242.779ZM170.504 246.391L167.179 242.657C167.171 242.664 167.163 242.671 167.155 242.678L170.504 246.391ZM150.582 245.273L154.312 241.944L154.312 241.943L150.582 245.273ZM147.011 235.153L152.004 235.408C152.009 235.323 152.011 235.238 152.011 235.153L147.011 235.153ZM147.011 235.147L142.017 234.893C142.013 234.977 142.011 235.062 142.011 235.147H147.011ZM151.13 225.884L154.662 229.423L154.665 229.42L151.13 225.884ZM154.681 229.403C156.634 227.451 156.634 224.285 154.681 222.332C152.728 220.38 149.563 220.38 147.61 222.332L151.146 225.868L154.681 229.403ZM151.131 225.882L154.457 229.616C154.528 229.552 154.598 229.486 154.666 229.418L151.131 225.882ZM143.906 232.318L140.581 228.585C140.569 228.595 140.557 228.606 140.545 228.617L143.906 232.318ZM143.027 233.04L140.05 229.023C140.034 229.034 140.019 229.046 140.003 229.058L143.027 233.04ZM123.984 231.199L127.714 227.868L127.712 227.866L123.984 231.199ZM125.104 211.277L128.43 215.01L128.43 215.01L125.104 211.277ZM132.558 204.633L129.232 200.9L129.231 200.901L132.558 204.633ZM138.114 199.683L141.44 203.417L141.441 203.416L138.114 199.683ZM146.745 191.993L150.071 195.726L150.073 195.724L146.745 191.993ZM127.439 171.377L130.765 175.11L130.772 175.104L127.439 171.377ZM147.361 172.495L151.091 169.164L151.088 169.161L147.361 172.495ZM150.576 185.092L145.707 183.955C145.706 183.962 145.704 183.968 145.703 183.975L150.576 185.092ZM146.243 192.417L149.569 196.15L149.574 196.145L146.243 192.417ZM138.104 199.667L134.778 195.933L134.775 195.935L138.104 199.667ZM132.547 204.623L135.873 208.356L135.875 208.354L132.547 204.623ZM124.595 211.706L121.269 207.972L121.267 207.974L124.595 211.706ZM117.481 215.103L116.685 210.167C116.679 210.168 116.673 210.169 116.668 210.17L117.481 215.103ZM104.673 210.588L108.401 207.256L108.401 207.255L104.673 210.588ZM105.792 190.666L102.466 186.933L102.462 186.936L105.792 190.666ZM112.022 185.114L115.349 188.847L115.35 188.846L112.022 185.114ZM119.3 178.627L115.974 174.893L115.973 174.894L119.3 178.627ZM120.765 218.599L125.639 219.716L120.765 218.599ZM169.514 247.203L166.528 243.192L169.514 247.203ZM120.764 218.609L115.894 217.477L120.764 218.609ZM169.518 247.195L166.549 243.172L169.518 247.195ZM195.137 223.333L190.738 220.956L195.137 223.333ZM195.157 223.3L190.767 220.908L195.157 223.3ZM169.954 205.41L165.058 204.394L169.954 205.41ZM196.463 224.468L198.267 229.131L196.463 224.468ZM169.961 205.404L174.858 206.41L169.961 205.404ZM196.42 224.488L194.616 219.824L194.616 219.824L196.42 224.488ZM199.614 223.657L200.3 228.61C203.218 228.206 206.249 229.214 208.344 231.558L212.072 228.226L215.801 224.895C211.393 219.962 205.003 217.863 198.929 218.704L199.614 223.657ZM212.072 228.226L208.346 231.56C210.457 233.919 211.115 237.075 210.359 239.948L215.194 241.22L220.03 242.493C221.604 236.511 220.244 229.86 215.798 224.892L212.072 228.226ZM215.194 241.22L210.375 239.888C210.371 239.903 210.367 239.917 210.364 239.93C210.36 239.943 210.357 239.953 210.354 239.963C210.349 239.984 210.345 239.998 210.342 240.008C210.336 240.031 210.336 240.027 210.342 240.01L215.11 241.513L219.879 243.017C219.945 242.809 220.003 242.592 220.014 242.553L215.194 241.22ZM215.11 241.513L210.299 240.154C209.894 241.585 209.129 242.933 207.999 244.064L211.535 247.598L215.072 251.133C217.433 248.771 219.062 245.916 219.922 242.873L215.11 241.513ZM211.535 247.598L208 244.063L207.983 244.079L211.519 247.615L215.054 251.15L215.071 251.134L211.535 247.598ZM211.519 247.615L207.983 244.079C207.869 244.194 207.748 244.307 207.623 244.419L210.954 248.148L214.285 251.877C214.546 251.644 214.803 251.402 215.054 251.151L211.519 247.615ZM210.954 248.148L207.627 244.416L193.654 256.873L196.981 260.605L200.309 264.337L214.281 251.88L210.954 248.148ZM196.981 260.605L193.781 256.764L193.775 256.769L196.976 260.61L200.177 264.451L200.182 264.446L196.981 260.605ZM196.976 260.61L193.674 256.855C193.437 257.064 193.226 257.237 193.031 257.385L196.046 261.374L199.061 265.362C199.503 265.028 199.908 264.69 200.277 264.365L196.976 260.61ZM196.046 261.374L193.076 257.352C192.97 257.43 192.925 257.462 192.887 257.489L195.742 261.593L198.598 265.698C198.769 265.578 198.924 265.464 199.016 265.396L196.046 261.374ZM195.742 261.593L192.835 257.526C192.542 257.735 192.225 257.932 191.872 258.125L194.268 262.513L196.663 266.902C197.325 266.541 197.99 266.132 198.65 265.661L195.742 261.593ZM194.268 262.513L191.895 258.112C188.272 260.066 183.645 259.352 180.787 256.154L177.059 259.486L173.33 262.818C179.339 269.542 189.036 271.015 196.64 266.914L194.268 262.513ZM177.059 259.486L180.787 256.154C179.117 254.285 178.361 251.93 178.486 249.597L173.493 249.329L168.5 249.061C168.24 253.921 169.825 258.895 173.33 262.818L177.059 259.486ZM173.493 249.329L178.486 249.593C178.557 248.256 178.925 246.933 179.581 245.726L175.188 243.339L170.794 240.951C169.422 243.476 168.649 246.251 168.5 249.064L173.493 249.329ZM175.188 243.339L179.588 245.712C179.607 245.677 179.62 245.653 179.632 245.631C179.644 245.61 179.651 245.597 179.656 245.588C179.666 245.57 179.659 245.583 179.64 245.612L175.417 242.936L171.194 240.26C171.002 240.563 170.848 240.851 170.787 240.965L175.188 243.339ZM175.417 242.936L179.762 245.41C179.846 245.262 179.945 245.107 180.062 244.942L175.981 242.052L171.901 239.163C171.611 239.573 171.332 240.005 171.072 240.463L175.417 242.936ZM175.981 242.052L180.096 244.893C180.491 244.321 180.962 243.782 181.512 243.289L178.177 239.564L174.841 235.839C173.699 236.862 172.706 237.996 171.867 239.212L175.981 242.052ZM178.177 239.564L181.504 243.296L195.478 230.839L192.15 227.107L188.823 223.375L174.85 235.832L178.177 239.564ZM192.15 227.107L195.485 230.832C196.321 230.084 197.249 229.528 198.224 229.151L196.42 224.488L194.616 219.824C192.536 220.629 190.566 221.814 188.815 223.382L192.15 227.107ZM196.463 224.468L198.267 229.131C198.935 228.873 199.606 228.701 200.264 228.615L199.614 223.657L198.965 218.699C197.477 218.894 196.032 219.273 194.658 219.805L196.463 224.468ZM153.86 188.59L154.668 193.525C157.653 193.036 160.796 194.039 162.944 196.443L166.673 193.112L170.401 189.78C165.88 184.721 159.268 182.639 153.053 183.656L153.86 188.59ZM166.673 193.112L162.947 196.446C164.611 198.306 165.366 200.652 165.244 202.976L170.237 203.238L175.23 203.5C175.485 198.65 173.898 193.688 170.399 189.778L166.673 193.112ZM170.237 203.238L165.244 202.986C165.22 203.453 165.16 203.926 165.063 204.398L169.961 205.404L174.858 206.41C175.055 205.452 175.181 204.474 175.231 203.49L170.237 203.238ZM169.954 205.41L165.058 204.394C164.705 206.095 163.858 207.712 162.528 209.013L166.025 212.587L169.523 216.16C172.313 213.43 174.105 210.015 174.849 206.425L169.954 205.41ZM166.025 212.587L169.351 216.32L176.672 209.799L173.347 206.065L170.021 202.332L162.7 208.853L166.025 212.587ZM173.347 206.065L176.689 209.784C176.7 209.774 176.707 209.768 176.712 209.763C176.717 209.759 176.718 209.758 176.716 209.76C176.712 209.764 176.695 209.778 176.67 209.798L173.509 205.924L170.348 202.051C170.188 202.181 170.057 202.299 170.005 202.346L173.347 206.065ZM173.509 205.924L176.777 209.708C176.95 209.559 177.084 209.451 177.188 209.374L174.215 205.354L171.241 201.334C170.866 201.612 170.527 201.894 170.24 202.141L173.509 205.924ZM174.215 205.354L177.251 209.327C178.8 208.143 180.628 207.536 182.476 207.488L182.349 202.49L182.221 197.492C178.34 197.591 174.46 198.874 171.179 201.381L174.215 205.354ZM182.349 202.49L182.492 207.488C185.09 207.413 187.684 208.441 189.542 210.518L193.269 207.184L196.995 203.851C193.093 199.488 187.625 197.336 182.205 197.492L182.349 202.49ZM193.269 207.184L189.541 210.517C191.632 212.856 192.297 215.984 191.571 218.837L196.417 220.07L201.263 221.303C202.774 215.363 201.4 208.778 196.996 203.852L193.269 207.184ZM196.417 220.07L191.569 218.847C191.386 219.571 191.12 220.26 190.767 220.908L195.157 223.3L199.548 225.693C200.319 224.278 200.885 222.799 201.265 221.293L196.417 220.07ZM195.137 223.333L190.738 220.956C190.264 221.834 189.626 222.657 188.817 223.381L192.15 227.107L195.484 230.834C197.16 229.334 198.517 227.597 199.536 225.71L195.137 223.333ZM192.15 227.107L188.825 223.373L172.385 238.015L175.71 241.749L179.035 245.483L195.476 230.841L192.15 227.107ZM175.71 241.749L172.37 238.028L171.561 238.754L174.9 242.475L178.24 246.196L179.05 245.47L175.71 241.749ZM174.9 242.475L171.569 238.747L171.229 239.051L174.561 242.779L177.892 246.507L178.232 246.203L174.9 242.475ZM174.561 242.779L171.235 239.045L167.179 242.657L170.504 246.391L173.829 250.125L177.886 246.513L174.561 242.779ZM170.504 246.391L167.155 242.678C166.965 242.85 166.764 243.014 166.549 243.172L169.518 247.195L172.487 251.219C172.95 250.876 173.407 250.507 173.853 250.104L170.504 246.391ZM169.514 247.203L166.528 243.192C162.793 245.973 157.474 245.486 154.312 241.944L150.582 245.273L146.852 248.603C153.497 256.047 164.65 257.056 172.499 251.214L169.514 247.203ZM150.582 245.273L154.312 241.943C152.644 240.076 151.886 237.729 152.004 235.408L147.011 235.153L142.017 234.898C141.77 239.749 143.366 244.699 146.853 248.603L150.582 245.273ZM147.011 235.153H152.011V235.147H147.011H142.011V235.153H147.011ZM147.011 235.147L152.004 235.402C152.116 233.212 153.01 231.072 154.662 229.423L151.13 225.884L147.598 222.346C144.128 225.809 142.25 230.318 142.017 234.893L147.011 235.147ZM151.13 225.884L154.665 229.42C154.693 229.393 154.717 229.368 154.737 229.347C154.757 229.326 154.774 229.308 154.788 229.293C154.801 229.279 154.812 229.268 154.818 229.26C154.822 229.257 154.825 229.254 154.826 229.252C154.828 229.25 154.83 229.248 154.83 229.248C154.83 229.247 154.829 229.248 154.828 229.25C154.827 229.251 154.825 229.253 154.822 229.256C154.817 229.262 154.807 229.272 154.795 229.285C154.783 229.298 154.768 229.315 154.749 229.334C154.73 229.354 154.707 229.377 154.681 229.403L151.146 225.868L147.61 222.332C147.583 222.36 147.558 222.385 147.538 222.405C147.518 222.426 147.501 222.445 147.488 222.459C147.475 222.473 147.464 222.485 147.457 222.492C147.454 222.496 147.451 222.499 147.449 222.501C147.447 222.503 147.446 222.504 147.446 222.504C147.445 222.505 147.446 222.504 147.447 222.503C147.448 222.501 147.451 222.499 147.453 222.496C147.459 222.49 147.468 222.48 147.48 222.467C147.492 222.454 147.508 222.438 147.527 222.418C147.545 222.398 147.568 222.375 147.594 222.349L151.13 225.884ZM151.146 225.868L147.61 222.332L147.595 222.347L151.131 225.882L154.666 229.418L154.681 229.403L151.146 225.868ZM151.131 225.882L147.805 222.149L140.581 228.585L143.906 232.318L147.232 236.052L154.457 229.616L151.131 225.882ZM143.906 232.318L140.545 228.617C140.387 228.76 140.222 228.896 140.05 229.023L143.027 233.04L146.005 237.057C146.44 236.734 146.862 236.388 147.268 236.02L143.906 232.318ZM143.027 233.04L140.003 229.058C136.258 231.902 130.895 231.43 127.714 227.868L123.984 231.199L120.255 234.529C126.943 242.018 138.192 242.99 146.051 237.022L143.027 233.04ZM123.984 231.199L127.712 227.866C125.664 225.576 124.985 222.538 125.634 219.74L120.764 218.609L115.894 217.477C114.538 223.313 115.95 229.714 120.257 234.531L123.984 231.199ZM120.765 218.599L125.639 219.716C126.042 217.958 126.971 216.311 128.43 215.01L125.104 211.277L121.777 207.544C118.721 210.268 116.744 213.763 115.892 217.481L120.765 218.599ZM125.104 211.277L128.43 215.01L135.884 208.366L132.558 204.633L129.231 200.901L121.777 207.544L125.104 211.277ZM132.558 204.633L135.884 208.367L141.44 203.417L138.114 199.683L134.788 195.95L129.232 200.9L132.558 204.633ZM138.114 199.683L141.441 203.416L150.071 195.726L146.745 191.993L143.419 188.26L134.788 195.95L138.114 199.683ZM146.745 191.993L150.073 195.724C151.426 194.518 153.018 193.794 154.665 193.525L153.86 188.59L153.055 183.656C149.58 184.223 146.225 185.757 143.417 188.261L146.745 191.993ZM127.439 171.377L130.772 175.104C134.519 171.755 140.278 172.076 143.635 175.829L147.361 172.495L151.088 169.161C144.053 161.299 131.976 160.616 124.107 167.649L127.439 171.377ZM147.361 172.495L143.632 175.825C145.683 178.122 146.36 181.16 145.707 183.955L150.576 185.092L155.445 186.23C156.81 180.389 155.397 173.986 151.091 169.164L147.361 172.495ZM150.576 185.092L145.703 183.975C145.3 185.732 144.369 187.387 142.912 188.688L146.243 192.417L149.574 196.145C152.624 193.421 154.599 189.921 155.45 186.21L150.576 185.092ZM146.243 192.417L142.918 188.683L134.778 195.933L138.104 199.667L141.429 203.4L149.569 196.15L146.243 192.417ZM138.104 199.667L134.775 195.935L129.219 200.891L132.547 204.623L135.875 208.354L141.432 203.398L138.104 199.667ZM132.547 204.623L129.221 200.889L121.269 207.972L124.595 211.706L127.92 215.439L135.873 208.356L132.547 204.623ZM124.595 211.706L121.267 207.974C119.913 209.182 118.325 209.903 116.685 210.167L117.481 215.103L118.276 220.04C121.76 219.478 125.116 217.941 127.923 215.437L124.595 211.706ZM117.481 215.103L116.668 210.17C113.687 210.661 110.551 209.662 108.401 207.256L104.673 210.588L100.944 213.919C105.465 218.978 112.074 221.062 118.293 220.037L117.481 215.103ZM104.673 210.588L108.401 207.255C105.045 203.502 105.371 197.745 109.122 194.395L105.792 190.666L102.462 186.936C94.5881 193.967 93.9087 206.048 100.945 213.92L104.673 210.588ZM105.792 190.666L109.118 194.399L115.349 188.847L112.022 185.114L108.696 181.381L102.466 186.933L105.792 190.666ZM112.022 185.114L115.35 188.846L122.627 182.359L119.3 178.627L115.973 174.894L108.695 181.382L112.022 185.114ZM119.3 178.627L122.625 182.36L130.765 175.11L127.439 171.377L124.114 167.643L115.974 174.893L119.3 178.627ZM120.765 218.604H125.765C125.765 218.978 125.723 219.351 125.639 219.716L120.765 218.599L115.892 217.481C115.807 217.85 115.765 218.227 115.765 218.604H120.765ZM169.516 247.199H164.516C164.516 245.609 165.271 244.128 166.528 243.192L169.514 247.203L172.499 251.214C173.758 250.277 174.516 248.793 174.516 247.199H169.516ZM120.764 218.609L125.634 219.74C125.721 219.368 125.765 218.987 125.765 218.604H120.765H115.765C115.765 218.224 115.808 217.846 115.894 217.477L120.764 218.609ZM169.518 247.195L166.549 243.172C165.27 244.116 164.516 245.61 164.516 247.199H169.516H174.516C174.516 248.786 173.762 250.277 172.487 251.219L169.518 247.195ZM195.146 223.321L191.427 219.98C191.382 220.03 191.039 220.401 190.738 220.956L195.137 223.333L199.536 225.71C199.367 226.024 199.199 226.253 199.105 226.375C199.002 226.508 198.914 226.609 198.866 226.662L195.146 223.321ZM195.157 223.3L190.767 220.908C190.667 221.09 190.601 221.239 190.579 221.29C190.569 221.312 190.557 221.34 190.564 221.325C190.565 221.321 190.579 221.289 190.598 221.248C190.665 221.1 190.915 220.55 191.427 219.98L195.146 223.321L198.866 226.662C199.383 226.087 199.637 225.529 199.707 225.374C199.726 225.331 199.741 225.297 199.743 225.292C199.75 225.275 199.739 225.301 199.73 225.321C199.709 225.369 199.645 225.514 199.548 225.693L195.157 223.3ZM169.957 205.407V200.407C167.586 200.407 165.54 202.071 165.058 204.394L169.954 205.41L174.849 206.425C174.368 208.745 172.324 210.407 169.957 210.407V205.407ZM196.441 224.475L198.973 228.787C198.614 228.997 198.298 229.123 198.09 229.195C197.886 229.266 197.724 229.307 197.679 229.318C197.658 229.324 197.631 229.33 197.648 229.326C197.654 229.325 197.689 229.316 197.733 229.304C197.815 229.283 198.018 229.228 198.267 229.131L196.463 224.468L194.658 219.805C194.904 219.71 195.103 219.656 195.181 219.636C195.224 219.624 195.257 219.616 195.26 219.615C195.276 219.612 195.247 219.619 195.224 219.624C195.175 219.637 195.009 219.679 194.802 219.751C194.591 219.825 194.27 219.952 193.909 220.164L196.441 224.475ZM169.961 205.404L165.063 204.398C165.54 202.074 167.586 200.407 169.957 200.407V205.407V210.407C172.332 210.407 174.381 208.737 174.858 206.41L169.961 205.404ZM196.42 224.488L198.224 229.151C198.697 228.968 199.034 228.753 199.14 228.684C199.169 228.666 199.191 228.651 199.197 228.647C199.212 228.637 199.194 228.649 199.187 228.654C199.163 228.669 199.081 228.723 198.973 228.787L196.441 224.475L193.909 220.164C193.797 220.23 193.711 220.286 193.684 220.304C193.676 220.309 193.656 220.322 193.669 220.314C193.674 220.311 193.694 220.297 193.721 220.28C193.821 220.215 194.15 220.005 194.616 219.824L196.42 224.488Z" fill="#031B31"/>
<path opacity="0.04" d="M157.521 240.191C155.625 242.087 157.068 244.61 159.203 242.988V242.988C159.497 242.77 159.781 242.538 160.055 242.289L167.055 236.054C164.573 238.531 163.231 241.752 163.064 245.03V245.035C162.886 248.51 164.026 252.045 166.524 254.841C171.275 260.165 179.256 260.889 184.869 256.712C184.87 256.711 184.871 256.709 184.871 256.708V256.708C184.871 256.706 184.872 256.704 184.873 256.703C185.202 256.461 185.52 256.203 185.829 255.925L189.437 252.712C189.621 252.548 189.898 252.548 190.081 252.712V252.712C190.249 252.861 190.29 253.106 190.189 253.306C189.317 255.022 188.825 256.886 188.726 258.772C188.539 262.257 189.673 265.808 192.18 268.614C196.438 273.378 203.292 274.461 208.71 271.624C208.796 271.58 208.901 271.598 208.965 271.67V271.67C209.042 271.755 209.174 271.763 209.26 271.686L209.804 271.201C210.13 270.911 210.611 270.887 210.981 271.118C211.277 271.303 211.579 271.475 211.887 271.633C211.926 271.653 211.962 271.678 211.994 271.707L212.298 271.978C212.336 272.012 212.393 272.009 212.427 271.971V271.971C212.454 271.942 212.497 271.933 212.534 271.95C213.112 272.216 213.704 272.435 214.306 272.61C219.214 274.064 224.746 272.687 228.387 268.614C231.433 265.203 232.456 260.685 231.535 256.536C231.462 256.208 231.507 255.86 231.662 255.562V255.562C232.078 254.759 233.147 254.505 233.821 255.107L234.738 255.927C240.368 260.958 249.011 260.472 254.043 254.843C257.17 251.343 258.159 246.682 257.109 242.447C256.947 241.792 258.322 240.763 258.825 241.213V241.213C264.454 246.244 273.245 245.594 278.458 239.76C283.672 233.927 283.335 225.118 277.704 220.087L272.383 215.331C272.365 215.315 272.365 215.286 272.383 215.27V215.27C272.398 215.256 272.422 215.256 272.438 215.27L277.673 219.949C283.302 224.98 291.946 224.494 296.977 218.865C302.009 213.235 301.523 204.592 295.893 199.561V199.561C293.775 197.667 293.197 194.585 294.485 192.053L301.696 177.877C302.823 175.662 305.823 175.272 307.479 177.125V177.125C308.779 178.58 311.013 178.705 312.467 177.405L325.696 165.582C327.365 164.091 329.926 164.235 331.418 165.903V165.903C332.909 167.572 335.471 167.716 337.139 166.225L390.511 118.527C395.453 114.111 395.879 106.525 391.462 101.583L354.929 60.7041C350.337 55.5654 342.369 55.3419 337.496 60.2152L157.521 240.191Z" fill="#0F0F0F"/>
</svg>
