<svg width="101" height="100" viewBox="0 0 101 100" fill="none" xmlns="http://www.w3.org/2000/svg">
<g clip-path="url(#clip0_4_19)">
<circle cx="50.265" cy="50.1239" r="50.003" fill="#225DD3"/>
<path d="M26.5798 13.966C26.6711 13.9948 26.7623 14.0236 26.8563 14.0534C28.5316 14.6414 29.9153 16.0319 30.7234 17.5861C31.0893 18.3594 31.3835 19.159 31.4427 20.0175C31.4548 20.1596 31.4548 20.1596 31.4672 20.3046C31.5056 21.1375 31.382 21.8637 31.1996 22.6719C30.846 24.2456 30.7418 25.8403 30.6249 27.4457C30.6129 27.6015 30.6129 27.6015 30.6006 27.7604C30.5855 27.9565 30.5716 28.1528 30.559 28.349C30.516 28.9003 30.4511 29.4381 30.0379 29.8513C29.9917 30.1826 29.9519 30.5126 29.9159 30.845C29.904 30.9513 29.8921 31.0575 29.8798 31.1669C29.8537 31.4011 29.8277 31.6354 29.8019 31.8696C29.7606 32.2455 29.7187 32.6214 29.6767 32.9972C29.6148 33.5506 29.5533 34.1039 29.4919 34.6573C29.3327 36.0918 29.172 37.526 29.0109 38.9602C28.9527 39.4779 28.8948 39.9956 28.8372 40.5133C28.8008 40.8391 28.7643 41.1648 28.7277 41.4905C28.7107 41.6429 28.6937 41.7952 28.6768 41.9476C28.6535 42.1573 28.6299 42.3669 28.6063 42.5765C28.5932 42.6943 28.58 42.8121 28.5664 42.9335C28.5286 43.2233 28.4782 43.506 28.4169 43.7916C28.5506 43.7827 28.6844 43.7737 28.8222 43.7646C29.9262 43.7698 30.8758 44.219 31.6588 44.9803C32.661 46.0587 32.8686 47.2713 32.8678 48.6882C32.8679 48.8141 32.8679 48.9399 32.868 49.0695C32.8624 49.993 32.7993 50.88 32.6314 51.7883C32.7171 51.8331 32.7171 51.8331 32.8045 51.8789C33.0688 52.0174 33.333 52.1561 33.5972 52.2948C33.687 52.3419 33.7768 52.3889 33.8693 52.4373C34.4701 52.7529 35.0655 53.0769 35.6572 53.4092C36.0083 53.0662 36.3582 52.7221 36.7072 52.377C36.826 52.2599 36.9451 52.143 37.0644 52.0264C37.2364 51.8585 37.4072 51.6895 37.5779 51.5202C37.6311 51.4687 37.6844 51.4171 37.7392 51.3639C38.0442 51.0591 38.2299 50.796 38.3588 50.3835C38.312 50.3376 38.2652 50.2918 38.217 50.2446C38.1568 50.1812 38.0966 50.1178 38.0346 50.0525C37.9443 49.9604 37.9443 49.9604 37.8522 49.8664C37.6411 49.5101 37.6596 49.2795 37.7104 48.8706C37.8389 48.5694 38.0083 48.3048 38.1899 48.0331C38.2389 47.9576 38.2878 47.882 38.3383 47.8042C38.7699 47.1495 39.246 46.5419 39.7636 45.9528C39.8412 45.8622 39.9188 45.7715 39.9987 45.678C41.7145 43.7124 43.7155 42.4092 46.2474 41.7384C46.3277 41.7168 46.4079 41.6952 46.4906 41.6729C46.9488 41.6072 47.4063 41.6222 47.8684 41.6303C47.8483 41.574 47.8282 41.5177 47.8075 41.4597C47.4248 40.3766 47.0709 39.2912 46.808 38.1723C46.787 38.0868 46.766 38.0014 46.7444 37.9134C46.315 35.9977 46.3178 34.0097 46.3214 32.0571C46.3217 31.6574 46.3192 31.2578 46.3165 30.8581C46.3162 30.6008 46.3161 30.3434 46.3162 30.0861C46.3153 29.9682 46.3143 29.8503 46.3132 29.7289C46.318 28.9437 46.3793 28.1911 46.8701 27.5491C46.9387 27.4931 47.0074 27.4371 47.0782 27.3794C47.1455 27.3217 47.2127 27.2641 47.2821 27.2046C47.5247 27.0538 47.7088 26.9896 47.9786 26.9087C48.3249 26.7849 48.4768 26.6782 48.6519 26.3532C48.7175 26.2079 48.7804 26.0613 48.841 25.9138C48.9125 25.7569 48.9847 25.6003 49.0575 25.444C49.0932 25.3666 49.1289 25.2893 49.1656 25.2096C49.6438 24.2268 50.3493 23.3858 51.1103 22.6111C51.1965 22.5222 51.2828 22.4333 51.3716 22.3418C52.9513 20.8074 55.3099 19.5842 57.5469 19.5718C57.7067 19.5752 57.8666 19.5793 58.0264 19.5853C58.0175 19.4516 58.0086 19.3178 57.9994 19.1801C58.0057 17.8369 58.729 16.6174 59.6271 15.6612C61.0294 14.3448 62.7801 13.9158 64.6474 13.9432C67.3182 14.0305 69.388 15.3295 71.3668 16.9989C72.6333 18.0467 73.6626 18.5253 75.3166 18.3966C76.0245 18.2208 76.5844 17.8695 77.1537 17.424C77.4328 17.9823 77.3005 18.782 77.1537 19.3692C76.7636 20.5104 75.9886 21.2312 74.9924 21.8546C74.8473 21.9613 74.7028 22.0689 74.5601 22.1788C75.946 22.9346 75.946 22.9346 77.4779 23.2595C77.5568 23.2681 77.6358 23.2767 77.7172 23.2856C78.3736 23.326 78.9436 23.1298 79.561 22.9218C79.8553 22.8272 79.8553 22.8272 80.0714 22.8272C80.0178 24.4895 79.5728 25.8851 78.4234 27.1227C77.3999 28.0712 76.1527 28.6842 74.7425 28.6897C74.5735 28.6829 74.4046 28.6748 74.2359 28.6626C74.7273 29.2154 75.2656 29.5102 75.965 29.7433C76.2102 29.7536 76.4557 29.7573 76.7012 29.7568C76.8311 29.7571 76.9611 29.7574 77.095 29.7576C77.4489 29.7444 77.779 29.7022 78.1262 29.6352C77.4399 30.5961 76.418 31.0212 75.3166 31.3642C75.2184 31.3954 75.2184 31.3954 75.1182 31.4271C73.4766 31.7442 71.8219 31.3039 70.4018 30.4693C69.01 29.5199 68.1708 28.2865 67.4408 26.7987C66.985 25.884 66.4022 25.1198 65.6786 24.4009C65.5902 24.3119 65.5017 24.2229 65.4106 24.1311C65.1864 23.9325 65.0004 23.807 64.7263 23.6917C64.7709 23.7328 64.8155 23.7739 64.8614 23.8162C66.5553 25.5442 66.8173 27.9446 66.8207 30.236C66.8023 31.8183 66.5208 33.2466 66.0653 34.756C65.8026 35.6732 65.6024 36.6459 65.9623 37.5644C66.2048 37.9765 66.5293 38.192 66.9353 38.4327C67.2477 38.6268 67.5204 38.8528 67.8062 39.084C68.2898 39.4422 68.2898 39.4422 68.8665 39.469C68.9445 39.4517 69.0225 39.4345 69.1029 39.4167C70.488 39.131 71.8956 39.4471 73.1025 40.144C73.5727 40.4754 73.9772 40.8966 74.2359 41.4142C74.4769 41.4973 74.7207 41.5724 74.9654 41.6438C76.3027 42.064 77.3434 42.8211 78.3424 43.7916C78.4617 43.899 78.4617 43.899 78.5834 44.0085C79.8363 45.175 80.6767 46.7269 81.4762 48.2222C81.5463 48.3527 81.5463 48.3527 81.6179 48.4858C81.765 48.76 81.9112 49.0347 82.0571 49.3096C82.1021 49.3945 82.1472 49.4793 82.1936 49.5668C82.9861 51.0762 82.9861 51.0762 82.8811 51.6802C82.6109 51.9774 82.6109 51.9774 82.3407 52.2205C82.318 52.4414 82.318 52.4414 82.4644 52.5891C82.9505 53.0706 83.4681 53.4996 84.0009 53.9285C84.3078 54.184 84.5854 54.455 84.8625 54.7419C85.0521 54.9319 85.2503 55.1057 85.4543 55.2801C87.2991 56.8832 89.0707 58.9821 89.2753 61.5284C89.3447 62.7099 89.2414 63.7456 88.8246 64.864C88.7842 64.9773 88.7438 65.0905 88.7021 65.2072C88.0493 66.9084 86.9169 68.1614 85.28 68.9405C84.7645 69.1463 84.3101 69.2003 83.757 69.2009C83.6358 69.201 83.5147 69.2012 83.3899 69.2013C83.2643 69.2009 83.1388 69.2005 83.0094 69.2001C82.885 69.2005 82.7607 69.2009 82.6326 69.2013C81.9847 69.2006 81.3603 69.1778 80.7198 69.0785C80.7432 69.1945 80.7666 69.3106 80.7907 69.4301C80.8211 69.5853 80.8515 69.7405 80.8819 69.8957C80.8973 69.9718 80.9128 70.048 80.9287 70.1264C81.0233 70.615 81.0597 71.0663 81.044 71.564C81.1064 71.5907 81.1688 71.6174 81.2331 71.645C81.7469 71.9305 82.0233 72.3164 82.2327 72.8607C82.3336 73.6178 82.1246 74.179 81.6923 74.8059C81.4138 75.073 81.1236 75.3462 80.7198 75.3462C80.7144 75.4068 80.7091 75.4675 80.7036 75.53C80.6286 76.3314 80.5167 77.1257 80.3998 77.922C80.3789 78.0655 80.358 78.209 80.3372 78.3525C80.2825 78.7286 80.2274 79.1048 80.1723 79.4809C80.1174 79.8566 80.0627 80.2323 80.0081 80.608C79.9444 81.0454 79.8806 81.4829 79.8161 81.9203C79.7239 82.545 79.6326 83.1698 79.547 83.7955C79.5331 83.8947 79.5192 83.9938 79.5049 84.0959C79.4802 84.2729 79.4562 84.4499 79.4333 84.6271C79.3403 85.2816 79.1816 85.8285 78.7341 86.3349C77.6339 87.1481 75.8728 87.2457 74.5601 87.4493C74.4536 87.466 74.347 87.4826 74.2372 87.4997C70.7127 88.0277 65.6162 88.3929 62.4768 86.3489C62.0879 86.0478 61.9997 85.8737 61.8086 85.3961C61.8086 84.9682 61.8086 84.5402 61.8086 84.0993C54.4981 84.0993 47.1876 84.0993 39.6555 84.0993C39.9258 83.2887 40.2245 82.538 40.5741 81.7625C40.6185 81.6637 40.6185 81.6637 40.6638 81.563C41.9097 78.7983 43.2291 76.0581 44.7217 73.4174C44.8539 73.1631 44.9681 72.9168 45.0587 72.6446C44.9895 72.4275 44.9169 72.2116 44.8426 71.9962C44.8098 71.6403 44.8124 71.2863 44.8156 70.9291C44.8148 70.8362 44.8139 70.7433 44.8131 70.6475C44.8144 70.2024 44.8378 69.8043 44.9591 69.3748C45.1169 68.7345 44.9311 68.2235 44.7265 67.6095C44.6809 67.4711 44.6353 67.3327 44.5897 67.1943C44.5659 67.1225 44.5421 67.0508 44.5176 66.9769C44.1471 65.8583 43.7889 64.7379 43.4783 63.601C43.4516 63.5043 43.4249 63.4077 43.3974 63.3081C43.2887 62.9015 43.2217 62.5888 43.2217 62.1624C42.7264 62.5262 42.2316 62.8905 41.7375 63.2557C41.3841 63.5168 41.0296 63.7764 40.6737 64.0341C39.6925 64.7493 39.6925 64.7493 38.8586 65.6268C38.2162 66.3942 37.4372 67.1501 36.4096 67.2663C34.4862 67.4137 33.0615 66.8242 31.5803 65.5913C31.3128 65.3541 31.0527 65.1111 30.7943 64.864C30.7243 64.8008 30.6542 64.7375 30.582 64.6724C30.1555 64.2748 29.8838 63.8636 29.5976 63.3583C29.3235 62.9218 29.0105 62.5214 28.6938 62.1151C28.0634 61.3043 27.4688 60.4929 27.0121 59.5689C26.7702 61.3738 26.5463 63.1802 26.3426 64.9898C26.3196 65.1932 26.2966 65.3966 26.2736 65.6C26.1954 66.2912 26.1174 66.9824 26.0395 67.6737C25.9789 68.2114 25.9182 68.7492 25.8576 69.287C25.8418 69.4266 25.8261 69.5662 25.8099 69.71C25.6784 70.8756 25.5466 72.0412 25.4146 73.2068C25.3294 73.9599 25.2443 74.7131 25.1596 75.4663C25.0841 76.138 25.0082 76.8096 24.932 77.4813C24.8921 77.8325 24.8525 78.1837 24.8131 78.535C24.7697 78.9227 24.7256 79.3104 24.6815 79.6981C24.6689 79.8111 24.6564 79.924 24.6435 80.0404C24.4315 81.8835 24.4315 81.8835 24.1117 82.3133C23.9995 82.3984 23.9995 82.3984 23.885 82.4851C23.8105 82.5443 23.7359 82.6036 23.6592 82.6646C23.2185 82.9499 22.7665 82.9629 22.2573 82.9106C21.644 82.6942 21.2516 82.304 20.9605 81.7219C20.9099 80.9768 20.9902 80.2381 21.0805 79.4994C21.0934 79.3899 21.1063 79.2804 21.1195 79.1676C21.1623 78.805 21.206 78.4424 21.2497 78.0799C21.2804 77.8206 21.3111 77.5613 21.3418 77.3021C21.4158 76.6772 21.4903 76.0525 21.5651 75.4277C21.6603 74.6322 21.7546 73.8366 21.849 73.041C21.8837 72.748 21.9185 72.455 21.9532 72.1621C21.9661 72.053 21.9661 72.053 21.9793 71.9417C22.0408 71.4241 22.1023 70.9065 22.1639 70.3889C22.3896 68.4918 22.6133 66.5945 22.8348 64.6968C22.8486 64.5778 22.8625 64.4587 22.8769 64.3361C22.9827 63.4294 23.0884 62.5227 23.194 61.616C23.2665 60.9942 23.339 60.3723 23.4117 59.7505C23.4436 59.4769 23.4755 59.2034 23.5073 58.9298C23.5264 58.7658 23.5456 58.6019 23.5647 58.438C23.5892 58.228 23.5892 58.228 23.6142 58.0138C23.6613 57.6307 23.7142 57.2492 23.7702 56.8673C23.71 56.8449 23.6498 56.8224 23.5878 56.7993C22.4234 56.3292 21.6847 55.547 21.1488 54.4202C20.791 53.5058 20.6619 52.3243 20.9069 51.3573C20.9785 51.0669 20.9778 50.7794 20.9865 50.4817C21.0126 49.6319 21.1243 48.9231 21.4105 48.1162C21.508 47.7641 21.5116 47.4849 21.4941 47.1213C21.4676 46.3499 21.7226 45.8153 22.1961 45.2167C22.8843 44.5302 23.9261 44.3732 24.8508 44.2238C24.8577 44.1622 24.8647 44.1005 24.8718 44.0369C25.2177 40.9564 25.5685 37.8765 25.9385 34.7988C26.0621 33.7706 26.1844 32.7423 26.3067 31.714C26.3646 31.2268 26.4226 30.7396 26.4806 30.2524C26.5 30.0895 26.5194 29.9266 26.5388 29.7637C26.5523 29.65 26.5659 29.5363 26.5798 29.4191C26.5107 29.3901 26.4416 29.3611 26.3705 29.3313C26.1476 29.203 26.1476 29.203 26.0395 28.8788C25.9806 27.9391 25.9332 26.714 26.3637 25.853C26.2924 25.853 26.2211 25.853 26.1476 25.853C26.1417 25.9149 26.1359 25.9768 26.1298 26.0406C25.9692 27.6801 25.7321 29.3013 25.4587 30.9252C25.4359 31.0636 25.4359 31.0636 25.4126 31.2047C24.872 34.4666 23.9639 38.2914 21.114 40.3487C20.6769 40.6495 20.2275 40.9264 19.7718 41.198C19.6926 41.2462 19.6133 41.2944 19.5316 41.3441C18.6221 41.85 17.557 42.0067 16.5299 41.9545C16.5299 41.8832 16.5299 41.8118 16.5299 41.7384C16.6111 41.6741 16.6923 41.6099 16.776 41.5438C17.5047 40.9552 17.9184 40.0016 18.2589 39.1448C18.1713 39.21 18.0837 39.2752 17.9934 39.3424C17.2494 39.8841 16.5614 40.299 15.6654 40.5497C15.5898 40.5738 15.5141 40.5979 15.4362 40.6227C13.8262 41.0701 12.1521 40.7475 10.7139 39.9659C10.4631 39.782 10.3725 39.6479 10.2622 39.361C10.372 39.3123 10.4817 39.2637 10.5948 39.2136C12.3393 38.4109 13.3852 37.3385 14.3686 35.6868C14.2451 35.7415 14.2451 35.7415 14.1192 35.7974C12.5843 36.4604 11.1452 36.7202 9.51674 36.1537C8.20878 35.5969 7.25763 34.7277 6.69611 33.4175C6.69611 33.3818 6.69611 33.3461 6.69611 33.3094C6.84112 33.3033 6.84112 33.3033 6.98906 33.2971C8.82396 33.1974 10.1637 32.5963 11.4509 31.2562C13.4425 28.9401 14.1109 26.0221 14.8359 23.1286C15.4201 20.8164 16.178 18.635 17.7186 16.7756C17.7927 16.6826 17.8668 16.5895 17.9432 16.4937C19.9988 14.0422 23.5141 12.8978 26.5798 13.966Z" fill="#031B31"/>
<path d="M61.3764 47.319C61.7019 47.6445 61.7147 47.9337 61.7272 48.3739C61.7305 48.4761 61.7339 48.5784 61.7374 48.6837C61.7408 48.7928 61.7443 48.9018 61.7479 49.0142C61.8403 51.3134 62.0976 53.2318 63.6322 55.0388C63.8619 55.3157 63.8619 55.3157 63.8619 55.5318C63.9226 55.559 63.9833 55.5861 64.0459 55.6141C64.331 55.7678 64.5586 55.9527 64.8074 56.1599C65.2661 56.5336 65.7306 56.8514 66.2393 57.1528C65.4824 59.2828 64.5751 61.274 63.1704 63.0604C61.2168 65.5083 61.2168 65.5083 60.1332 68.3842C60.0722 68.7057 60.0067 68.9614 59.8635 69.2559C59.1102 69.7644 58.1178 70.0024 57.2565 70.269C57.1231 70.3103 56.9898 70.3516 56.8524 70.3941C55.7872 70.7171 54.711 70.9754 53.6228 71.2078C53.5093 71.2324 53.5093 71.2324 53.3934 71.2576C51.8989 71.5786 51.0993 71.6738 49.7595 70.8701C49.6535 70.8094 49.5475 70.7488 49.4383 70.6863C47.5282 69.5735 47.5282 69.5735 47.193 68.621C47.168 68.5517 47.1429 68.4824 47.1171 68.411C47.0389 68.1895 46.9664 67.967 46.8958 67.743C46.8725 67.669 46.8491 67.5951 46.8251 67.5189C46.6825 67.0593 46.5504 66.5972 46.4209 66.1338C46.3588 65.9172 46.2927 65.7024 46.2247 65.4876C44.7774 60.8781 43.7163 55.3712 45.9988 50.8723C46.5391 49.857 47.2358 48.9516 47.9765 48.0754C48.2369 48.4054 48.4412 48.7483 48.6451 49.1155C49.2656 50.1843 49.9611 51.1553 51.1103 51.682C51.8071 51.8272 52.4585 51.7485 53.1433 51.5807C53.2222 51.5614 53.3011 51.5421 53.3824 51.5223C56.3419 50.7656 59.0223 49.2476 61.3764 47.319Z" fill="#ABCBE4"/>
<path d="M27.1608 15.6361C28.4442 16.4784 29.5554 17.7345 29.8962 19.274C30.0596 20.5937 29.9669 21.9057 29.3896 23.1128C29.354 23.1128 29.3183 23.1128 29.2816 23.1128C29.271 23.0136 29.2604 22.9144 29.2495 22.8122C29.1161 21.718 28.9523 20.9317 28.0929 20.1951C27.3078 19.6298 26.6695 19.5611 25.7155 19.6547C24.5335 20.008 23.7626 20.9324 23.1924 21.9836C22.3732 23.6937 22.1259 25.5243 21.8306 27.3791C21.2143 31.2412 20.397 35.5233 17.0704 38.0256C16.1467 38.5914 15.0432 39.0879 13.9365 38.9982C14.0212 38.9001 14.1059 38.802 14.1932 38.701C14.2813 38.5976 14.2813 38.5976 14.3713 38.492C14.5287 38.3076 14.687 38.1239 14.8458 37.9407C16.5489 35.9469 17.6371 33.3057 17.6242 30.657C17.6246 30.5699 17.625 30.4827 17.6254 30.3929C17.6253 30.3092 17.6252 30.2254 17.625 30.139C17.6248 30.0255 17.6248 30.0255 17.6247 29.9097C17.6176 29.6804 17.6176 29.6804 17.5026 29.3805C17.4736 29.4747 17.4447 29.5688 17.4148 29.6658C16.7275 31.7548 15.2276 33.6504 13.2451 34.6553C12.2946 35.0892 11.0546 35.2023 10.0424 34.9027C9.81756 34.8022 9.60677 34.6976 9.39783 34.5675C9.39783 34.4962 9.39783 34.4249 9.39783 34.3514C9.57418 34.2785 9.57418 34.2785 9.7541 34.2041C10.871 33.723 11.7042 33.1882 12.5317 32.2982C12.6179 32.206 12.7041 32.1138 12.793 32.0188C14.7232 29.8062 15.3417 26.9885 16.0358 24.2182C16.7942 21.1979 17.7696 17.5829 20.6294 15.8542C22.6981 14.7019 25.027 14.4302 27.1608 15.6361Z" fill="#E89901"/>
<path d="M50.8943 52.29C51.0024 52.5061 51.0024 52.5061 50.9099 52.8257C50.8622 52.9646 50.8142 53.1035 50.766 53.2423C50.5341 53.9458 50.3625 54.6487 50.2257 55.3765C50.209 55.4644 50.1923 55.5522 50.1751 55.6426C50.123 55.9294 50.0762 56.2167 50.0298 56.5045C50.0101 56.6137 49.9904 56.7229 49.9701 56.8354C49.7488 58.2116 49.7899 59.5925 49.8002 60.9824C49.8012 61.2405 49.8022 61.4986 49.8031 61.7567C49.8055 62.3834 49.8091 63.01 49.8137 63.6367C50.1884 63.6238 50.5631 63.6093 50.9378 63.5945C51.0949 63.5891 51.0949 63.5891 51.2552 63.5836C54.8326 63.4368 57.9672 61.498 60.3668 58.933C61.3127 57.8957 62.1484 56.7625 62.8548 55.5505C63.0241 55.272 63.2164 55.0216 63.4297 54.7754C63.862 55.2887 64.0108 55.4547 64.0108 55.4547C64.2325 55.6508 64.5587 55.9528 64.8075 56.16C65.2662 56.5337 65.7307 56.8514 66.2394 57.1528C65.4825 59.2829 64.5752 61.2741 63.1705 63.0605C61.2169 65.5084 61.2169 65.5084 60.1333 68.3843C60.0723 68.7058 60.0068 68.9615 59.8636 69.256C59.1103 69.7644 58.1179 70.0025 57.2566 70.2691C57.1232 70.3104 56.9899 70.3517 56.8525 70.3942C55.7873 70.7171 54.7111 70.9754 53.6229 71.2079C53.5094 71.2325 53.5094 71.2325 53.3935 71.2576C51.899 71.5787 51.0994 71.6739 49.7596 70.8702C49.6536 70.8095 49.5476 70.7489 49.4384 70.6864C47.5283 69.5736 47.5283 69.5736 47.1931 68.6211C47.1681 68.5518 47.143 68.4825 47.1172 68.4111C47.039 68.1896 46.9665 67.9671 46.8959 67.7431C46.8726 67.6691 46.8492 67.5952 46.8252 67.5189C46.6826 67.0594 46.5505 66.5973 46.421 66.1339C46.3589 65.9173 46.2928 65.7025 46.2248 65.4877C45.9121 64.4908 45.6733 63.4822 45.4506 62.4615C45.406 62.2599 45.406 62.2599 45.3605 62.0542C45.3203 61.8651 45.3203 61.8651 45.2792 61.6721C45.2428 61.502 45.2428 61.502 45.2056 61.3285C45.1669 61.0431 45.1669 61.0431 45.275 60.719C45.3508 60.7816 45.4265 60.8443 45.5046 60.9089C47.1705 62.3527 47.1705 62.3527 49.1653 63.2044C49.1296 63.0974 49.094 62.9904 49.0572 62.8802C48.8149 59.2961 49.3627 55.6967 50.7862 52.398C50.8219 52.3624 50.8576 52.3267 50.8943 52.29Z" fill="#719BBE"/>
<path d="M83.2053 58.5577C83.2804 58.606 83.3555 58.6544 83.4328 58.7042C84.5748 59.5033 85.2673 60.6601 85.5827 62.0157C85.7457 63.5181 85.5509 64.9884 84.6815 66.2551C84.3106 66.6505 84.0031 66.7886 83.4657 66.806C83.2731 66.805 83.0804 66.8021 82.8879 66.7975C82.7876 66.7964 82.6873 66.7952 82.5841 66.794C81.78 66.7812 80.9802 66.7378 80.1795 66.6625C80.1973 66.5622 80.2152 66.4619 80.2335 66.3585C80.3575 65.4409 80.342 64.7035 79.9499 63.8524C79.8553 63.6367 79.8553 63.6367 79.8553 63.4206C79.784 63.4206 79.7874 63.288 79.714 63.288C79.714 63.288 79.714 63.288 79.7395 63.7481C79.7366 64.3578 79.5707 65.0557 79.1719 65.5392C78.8251 65.8496 78.4639 66.0054 78.0182 66.1221C78.0182 65.9082 78.0182 65.6942 78.0182 65.4738C77.9568 65.5704 77.8954 65.6671 77.8321 65.7667C76.089 68.5013 76.089 68.5013 75.4272 68.6583C75.009 68.6896 74.7923 68.6189 74.4521 68.378C74.1884 67.9989 74.1945 67.874 74.236 67.4189C74.3243 67.0883 74.4374 66.7682 74.5534 66.4463C74.7453 65.9069 74.9201 65.3968 74.9924 64.8254C74.368 65.9228 73.7672 67.0162 73.2634 68.1754C72.7574 68.0936 72.3981 67.9355 72.0747 67.527C71.8618 66.7148 72.0982 66.0388 72.3314 65.2509C72.6466 64.1872 72.6466 64.1872 72.8312 63.0964C72.2111 64.3397 71.7104 65.5928 71.2782 66.9132C71.2102 67.0947 71.2102 67.0947 71.1021 67.2028C70.639 67.185 70.4039 67.1426 70.0418 66.8448C69.5751 66.2715 69.5751 66.2715 69.6184 65.8144C69.7328 65.0813 69.9383 64.3629 70.1205 63.6445C70.1493 63.5281 70.178 63.4117 70.2077 63.2918C70.2341 63.1868 70.2606 63.0819 70.2879 62.9737C70.3488 62.6477 70.3557 62.3466 70.3457 62.0157C69.7169 63.2888 69.1656 64.5558 68.7247 65.906C68.1763 65.8377 67.8663 65.7258 67.4677 65.3475C67.262 65.072 67.2315 64.8248 67.26 64.4864C67.5637 62.9187 68.1332 60.5855 69.3318 59.4766C70.0825 58.9768 71.0498 59.2088 71.878 59.3724C71.9701 59.39 72.0622 59.4077 72.1571 59.4259C72.3513 59.4634 72.5455 59.5014 72.7396 59.5398C73.029 59.5969 73.3188 59.6517 73.6087 59.7063C74.5633 59.8903 75.4984 60.1058 76.4264 60.3969C76.5075 60.4223 76.5887 60.4477 76.6722 60.4738C77.7931 60.8401 78.8602 61.34 79.7472 62.1238C79.2178 61.0688 78.6254 60.2572 77.694 59.5303C78.1445 59.1318 78.6184 58.8931 79.1597 58.6455C79.282 58.5879 79.282 58.5879 79.4068 58.5292C80.5821 57.9835 82.0719 57.824 83.2053 58.5577Z" fill="#F2C213"/>
<path d="M47.8684 33.0546C47.9344 33.1085 48.0004 33.1624 48.0684 33.218C49.1711 33.9946 50.242 33.9063 51.5425 33.8719C51.7656 33.8686 51.9887 33.8655 52.2118 33.8627C54.2338 33.8314 56.255 33.7585 58.2519 33.4218C58.5475 33.3814 58.8101 33.3477 59.107 33.3788C59.4039 33.41 59.2791 34.0526 59.5392 34.2433C59.8645 34.4181 60.1845 34.5325 60.5388 34.6351C60.6352 34.6632 60.7316 34.6913 60.8309 34.7203C60.9039 34.7412 60.9769 34.7621 61.0521 34.7836C60.6839 36.7588 59.7358 38.3506 58.4586 39.8626C58.3924 39.9415 58.3263 40.0203 58.2581 40.1016C56.7973 41.6861 54.7626 42.7549 52.765 43.4828C52.6129 43.5397 52.6129 43.5397 52.4578 43.5977C51.7071 43.8577 51.037 43.9047 50.2458 43.861C49.836 42.92 49.4866 41.9671 49.1719 40.9906C49.1486 40.9188 49.1254 40.8471 49.1015 40.7732C48.3979 38.5867 47.8394 36.3763 47.8616 34.0677C47.8621 33.9695 47.8626 33.8713 47.8631 33.7701C47.8643 33.5316 47.8661 33.2931 47.8684 33.0546Z" fill="#E89800"/>
<path d="M75.6091 44.3106C77.0353 45.3566 78.1679 46.8434 78.9908 48.3997C78.9908 48.471 78.9908 48.5423 78.9908 48.6158C78.9208 48.6168 78.8507 48.6178 78.7785 48.6189C76.0685 48.6678 74.0449 49.2363 71.8654 50.856C70.6921 51.7255 69.6471 52.0247 68.1845 51.8577C67.1742 51.5913 66.5483 50.8357 66.0097 49.9801C65.7253 48.8021 66.4088 47.4514 66.9725 46.4288C67.9648 44.8579 69.3093 43.7055 71.1351 43.2599C72.7817 42.9926 74.2449 43.3826 75.6091 44.3106Z" fill="#ABCBE4"/>
<path d="M62.0249 23.8692C63.2144 24.7982 64.0003 26.1226 64.2537 27.6176C64.3558 28.5946 64.2858 29.5023 64.0781 30.4611C64.0067 30.3875 63.9354 30.314 63.8619 30.2382C62.9479 29.2715 62.9479 29.2715 61.7277 28.9076C61.1682 28.92 60.7524 29.0568 60.2958 29.3804C60.1621 29.5309 60.1621 29.5309 60.0257 29.6844C59.7555 29.9207 59.7555 29.9207 59.3655 29.8992C58.8766 29.8221 58.4147 29.6836 57.9455 29.529C57.8571 29.5004 57.7687 29.4717 57.6776 29.4422C57.3973 29.3507 57.1175 29.2577 56.8378 29.1643C56.7021 29.1195 56.7021 29.1195 56.5636 29.0738C55.5509 28.7377 54.5547 28.3735 53.5756 27.9486C53.4503 27.8952 53.4503 27.8952 53.3225 27.8408C53.1211 27.7508 52.9255 27.648 52.7314 27.5433C52.6233 27.2192 52.6233 27.2192 52.728 26.938C53.623 25.1709 54.9194 23.6878 56.804 22.9574C58.5722 22.4253 60.5057 22.8708 62.0249 23.8692Z" fill="#0572B1"/>
<path d="M69.3302 59.4853C69.5798 59.5566 70.1188 59.8122 70.396 59.9373C70.7682 60.1574 71.3009 60.5031 71.7066 60.7655C71.9529 60.9248 72.2922 61.1425 72.4641 61.2143C72.5354 61.2411 72.6067 61.2678 72.6802 61.2954C73.3479 61.5736 73.9811 61.9208 74.6186 62.2612C74.687 62.2977 74.7555 62.3342 74.826 62.3719C75.2112 62.5777 75.596 62.7844 75.9804 62.9919C76.1433 63.0793 76.3062 63.1666 76.4692 63.254C76.545 63.2952 76.6209 63.3364 76.699 63.3788C77.4229 63.7993 77.4229 63.7993 78.2248 63.8737C78.3007 63.843 78.3766 63.8124 78.4549 63.7808C78.5781 63.7338 78.5781 63.7338 78.7039 63.6858C78.7844 63.6548 78.8649 63.6237 78.9479 63.5917C79.1989 63.5149 79.4513 63.4456 79.7043 63.3756C79.8418 64.0627 79.8198 64.5832 79.4882 65.2127C79.1405 65.634 78.4674 66.1562 77.944 66.2933C77.944 66.0793 77.944 65.9302 77.944 65.7098C77.8826 65.8065 78.0686 65.5141 78.0053 65.6137C76.4698 68.4864 75.6645 68.5959 75.6645 68.5959C75.5721 68.6421 75.0407 68.8251 74.4679 68.3916C74.1266 67.9809 74.1807 67.6966 74.2918 67.2594C74.3801 66.9288 74.4851 66.6437 74.6011 66.3219C74.793 65.7824 74.8414 65.6016 74.9637 65.0225C74.3392 66.12 73.9404 66.8632 73.4366 68.0223C72.9306 67.9406 72.5713 67.7825 72.2479 67.3739C72.035 66.5618 72.2715 65.8858 72.5046 65.0979C72.8198 64.0342 72.8198 64.0342 73.0044 62.9433C72.3844 64.1866 71.8836 65.4397 71.4514 66.7602C71.3834 66.9417 71.3834 66.9417 71.2754 67.0498C70.8122 67.0319 70.5771 66.9895 70.215 66.6918C69.7483 66.1185 69.7483 66.1185 69.7916 65.6614C69.9061 64.9283 70.1115 64.2099 70.2937 63.4915C70.3225 63.3751 70.3512 63.2587 70.3809 63.1388C70.4074 63.0338 70.4338 62.9288 70.4611 62.8207C70.522 62.4947 70.5289 62.1936 70.5189 61.8627C69.8901 63.1357 69.3388 64.4028 68.898 65.753C68.3495 65.6846 68.0396 65.5728 67.6409 65.1945C67.4352 64.919 67.4048 64.6717 67.4332 64.3334C67.7608 62.6423 68.3773 60.9214 69.3302 59.4853Z" fill="#E69901"/>
<path d="M71.4263 41.2674C71.6312 41.4361 71.792 41.6058 71.9666 41.8077C71.8507 41.8217 71.8507 41.8217 71.7323 41.836C69.9586 42.0861 68.3381 42.8435 67.1873 44.2468C66.1711 45.639 65.6379 47.0932 65.807 48.8319C65.9628 49.75 66.3996 50.5711 67.097 51.1958C67.7578 51.6543 68.2984 51.8084 69.0894 51.7969C69.171 51.7957 69.2525 51.7946 69.3365 51.7934C69.9805 51.7724 70.4476 51.6714 70.994 51.3173C71.0516 51.2802 71.1092 51.243 71.1685 51.2047C71.5152 50.9796 71.8586 50.7498 72.2005 50.5174C74.0019 49.2947 75.6147 48.5693 77.8088 48.6022C77.9333 48.6032 78.0577 48.6042 78.186 48.6052C78.4903 48.6077 78.7945 48.6113 79.0988 48.6157C79.2072 48.8115 79.3152 49.0074 79.423 49.2033C79.4832 49.3124 79.5434 49.4215 79.6054 49.5339C79.7472 49.8044 79.7472 49.8044 79.7472 49.9125C79.6673 49.913 79.5874 49.9134 79.5051 49.9139C77.2938 49.9127 77.2938 49.9127 75.2085 50.5609C75.1231 50.6014 75.0377 50.6418 74.9497 50.6835C73.8418 51.2168 72.8036 51.8144 71.8029 52.5282C70.5279 53.4327 69.3299 53.9214 67.7521 53.8028C66.5002 53.5881 65.3945 52.8509 64.6183 51.8577C64.3205 51.3761 64.0823 50.8658 63.8618 50.3448C63.8203 50.248 63.7788 50.1511 63.736 50.0514C63.3465 48.5204 63.5752 46.8089 64.186 45.3738C64.2646 45.1797 64.2646 45.1797 64.3448 44.9817C65.2081 43.0541 66.8204 41.7854 68.7585 41.0175C69.6815 40.8454 70.5824 40.8304 71.4263 41.2674Z" fill="#F4C815"/>
<path d="M27.1564 15.6577C28.2898 16.4015 29.7074 17.7355 29.8915 19.256C29.8974 19.3043 29.5174 18.721 28.9723 18.1661C28.8527 17.9976 28.0547 17.434 28.0547 17.434C26.7623 16.4712 25.3412 16.2193 23.7659 16.4344C23.29 16.5559 22.8922 16.7273 22.4691 16.9747C22.3808 17.0254 22.2925 17.0761 22.2015 17.1283C21.4094 17.6211 20.7927 18.2302 20.3079 19.0279C20.2592 19.1042 20.2106 19.1806 20.1605 19.2592C19.3305 20.589 18.9137 21.8131 18.6247 23.3371C18.5469 23.7261 18.4399 24.1053 18.3294 24.486C18.2793 24.6662 18.2352 24.8482 18.1968 25.0313C17.5505 28.053 15.7569 31.3794 13.1486 33.1235C12.4258 33.5499 11.734 33.7135 10.9063 33.8326C11.2113 33.5229 11.5176 33.2257 11.8519 32.9479C14.7071 30.4462 15.4714 26.6901 16.323 23.1546C16.9805 20.4491 18.0948 17.701 20.4159 16.0021C22.512 14.735 24.9515 14.4115 27.1564 15.6577Z" fill="#F6C715"/>
<path d="M68.6166 16.845C69.0873 17.1701 69.5105 17.5328 69.9256 17.9256C71.245 19.1606 72.6936 19.6947 74.4521 19.9788C74.1886 20.2977 73.9948 20.3629 73.5876 20.4111C72.3843 20.4883 71.382 20.3851 70.2376 19.9788C70.2952 20.0405 70.3529 20.1023 70.4123 20.1658C70.8855 20.6808 71.3252 21.2023 71.7437 21.7619C72.6362 22.9368 73.5651 23.7576 74.8843 24.4094C74.9662 24.4508 75.0481 24.4922 75.1325 24.5348C75.9282 24.8663 76.8494 24.7598 77.694 24.7336C77.1458 25.3349 76.4991 25.5546 75.6969 25.6366C74.0309 25.6747 72.8132 25.0745 71.604 23.951C71.0814 23.4061 70.6256 22.8074 70.1624 22.2121C68.5751 20.1839 66.5411 18.9256 63.9699 18.574C64.0055 18.5027 64.0412 18.4314 64.0779 18.3579C64.7091 18.1603 65.3108 18.0999 65.9691 18.0742C66.0579 18.07 66.1468 18.0658 66.2384 18.0615C66.4547 18.0515 66.6712 18.0425 66.8876 18.0337C65.3853 17.411 63.8298 17.0487 62.2511 17.6843C61.4204 18.0483 60.6542 18.4455 60.0023 19.0873C59.8635 19.2224 59.8635 19.2224 59.7554 19.2224C59.6997 18.2716 60.2354 17.5517 60.836 16.8517C61.1709 16.4973 61.4822 16.2105 61.9167 15.9805C61.9908 15.9405 62.0649 15.9005 62.1412 15.8593C64.2491 14.9015 66.7491 15.7275 68.6166 16.845Z" fill="#ABCBE4"/>
<path d="M26.6879 17.7096C26.9444 17.8405 27.3363 18.0683 27.3363 18.1418C27.0088 18.0872 27.6572 18.1953 27.3363 18.1418C27.3363 18.1051 27.3363 18.1775 27.3363 18.1418C27.259 18.1368 27.1816 18.1318 27.102 18.1266C25.923 18.0839 24.8111 18.3025 23.8981 19.0899C22.1244 20.8984 21.4582 23.0663 21.0677 25.5108C20.9888 26.0034 20.9064 26.4954 20.8237 26.9874C20.7996 27.1313 20.7996 27.1313 20.775 27.2782C20.5003 28.9028 20.1525 30.5077 19.6637 32.082C19.6412 32.1634 19.6186 32.2447 19.5954 32.3286C19.3405 33.193 18.8871 33.986 18.475 34.7836C18.2755 35.17 18.2045 35.4846 17.7725 35.9014C17.1659 36.4867 16.8277 36.8228 16.2057 37.161C15.8342 37.2488 15.6152 37.2981 15.3383 37.3183C15.5582 36.9945 15.8041 36.6183 16.002 36.3268C16.9416 34.7836 17.5586 32.8046 17.6204 31.0213C17.6249 30.8967 17.6185 30.73 17.6232 30.6015C17.6274 30.473 17.6418 29.9046 17.6107 29.7684C17.5269 29.4009 17.5014 29.384 17.5014 29.384C17.4646 29.384 17.537 29.384 17.5014 29.384C17.5014 29.384 17.898 29.6247 17.9347 30.0288C17.9559 29.9429 17.9771 29.8569 17.9989 29.7684C18.1204 29.2786 18.2434 28.7891 18.367 28.2998C18.3977 28.1781 18.4284 28.0563 18.4601 27.9309C18.7121 26.9359 18.9696 25.9423 19.2315 24.9498C19.2637 24.8269 19.2959 24.704 19.3291 24.5773C19.9329 22.2988 20.7401 19.7369 22.6895 18.2499C22.7454 18.199 22.8012 18.1482 22.8588 18.0958C23.8553 17.2492 25.5486 17.1278 26.6879 17.7096Z" fill="#F7C615"/>
<path d="M31.9831 53.3706C33.2999 53.7738 34.6357 54.618 35.3398 55.8291C35.9577 57.0165 35.7393 58.5228 35.3543 59.7506C34.9546 60.9281 34.3712 61.8099 33.2461 62.3804C32.7182 62.6007 32.2225 62.5984 31.6589 62.556C31.7302 62.4825 31.8015 62.4089 31.875 62.3331C32.1491 61.9306 32.1488 61.7395 32.0912 61.2593C31.9134 61.0159 31.7581 60.8356 31.5441 60.6311C31.4336 60.5182 31.3236 60.4048 31.214 60.2909C31.1334 60.2076 31.1334 60.2076 31.0511 60.1226C30.6999 59.7445 30.4237 59.315 30.146 58.8819C30.1079 58.8231 30.0698 58.7643 30.0306 58.7037C29.2815 57.5434 29.2815 57.5434 29.2815 57.1528C29.4639 57.0097 29.4639 57.0097 29.7137 56.8624C30.9162 56.0885 31.5594 55.1074 31.9155 53.7151C31.949 53.5446 31.949 53.5446 31.9831 53.3706Z" fill="#E79901"/>
<path d="M26.4718 45.59C26.4226 45.7746 26.373 45.9592 26.3233 46.1438C26.2819 46.298 26.2819 46.298 26.2397 46.4553C26.2093 46.562 26.1789 46.6687 26.1477 46.7787C26.1113 46.9513 26.1113 46.9513 26.0742 47.1273C25.9315 47.427 25.9315 47.427 25.6023 47.5773C25.4702 47.608 25.3382 47.6386 25.2021 47.6702C25.0712 47.7019 24.9402 47.7337 24.8053 47.7664C24.6777 47.7971 24.0801 47.8661 23.9487 47.8977C23.7318 47.9674 23.6826 48.0632 23.6826 48.1676C24.1145 48.2216 24.5233 48.2443 24.986 48.2443C25.2267 48.2599 25.4674 48.2755 25.7154 48.2915C25.6797 48.8978 25.6441 49.504 25.6073 50.1286C25.0011 50.2 24.3949 50.2713 23.7703 50.3448C23.7703 50.4161 23.7703 50.4874 23.7703 50.5609C23.9771 50.6066 24.1839 50.6523 24.3907 50.6981C24.5679 50.7374 24.745 50.777 24.9221 50.8169C25.3269 50.908 25.731 50.9962 26.1384 51.075C27.145 51.2764 27.145 51.2764 27.4849 51.5672C27.6605 51.8577 27.6605 51.8577 27.6605 52.1954C27.5042 52.645 27.5042 52.645 27.2283 52.8302C26.9543 52.8181 26.7128 52.7899 26.4448 52.7424C25.8302 52.6496 25.2298 52.5887 24.6077 52.5871C24.413 52.5862 24.413 52.5862 24.2143 52.5854C23.8957 52.6126 23.7142 52.663 23.4461 52.8302C24.0453 53.199 24.6395 53.2454 25.3304 53.3165C26.7472 53.4628 26.7472 53.4628 27.3364 53.8028C27.4377 54.2013 27.4377 54.2013 27.4444 54.5592C26.6422 55.1485 26.0268 55.3059 25.04 55.2752C24.9266 55.2759 24.8132 55.2766 24.6964 55.2773C24.0505 55.2683 23.6208 55.2263 23.1219 54.7754C22.948 54.5668 22.948 54.5668 22.8247 54.3566C22.762 54.2534 22.762 54.2534 22.6981 54.1481C22.3968 53.5346 22.3314 53.0084 22.3384 52.3372C22.3376 52.257 22.3367 52.1769 22.3359 52.0943C22.3375 51.6302 22.4072 51.3175 22.5816 50.8851C22.5857 50.6262 22.5804 50.367 22.568 50.1084C22.5497 49.4768 22.6457 49.0327 22.9188 48.4655C23.0793 47.9891 23.0279 47.5127 22.9973 47.0163C23.0162 46.6209 23.0958 46.4399 23.338 46.1303C24.2865 45.6471 25.422 45.5726 26.4718 45.59Z" fill="#F2C213"/>
<path d="M46.4772 74.9677L48.5168 76.6043C48.4547 77.2989 48.2856 77.91 48.0643 78.5697C47.6806 79.7438 47.3353 80.9258 47.0039 82.1155C46.9774 82.2105 46.9508 82.3055 46.9235 82.4034C46.7694 82.9556 46.6163 83.5081 46.4636 84.0607C45.2511 84.0607 44.0386 84.0607 42.7894 84.0607C42.9109 83.3316 42.9109 83.3316 43.0744 82.9568C43.1273 82.8335 43.1273 82.8335 43.1814 82.7077C43.2192 82.6215 43.257 82.5353 43.296 82.4465C43.3752 82.2623 43.4543 82.0781 43.5332 81.8939C43.5723 81.8031 43.6113 81.7123 43.6515 81.6188C43.8043 81.2597 43.9491 80.8979 44.0929 80.5351C44.4151 79.7236 44.7467 78.9162 45.0808 78.1095C45.1572 77.9244 45.2328 77.739 45.3082 77.5536C45.6646 76.683 46.0744 75.8174 46.4772 74.9677Z" fill="#719BBE"/>
<path d="M77.9216 52.577C78.7104 52.5178 79.1614 52.8785 79.7473 53.3706C80.0044 53.6001 80.2579 53.8331 80.5105 54.0675C80.9849 54.4795 81.4899 54.8483 81.9971 55.2187C82.1854 55.3569 82.3714 55.4981 82.557 55.6399C82.557 55.6756 82.557 55.7112 82.557 55.748C82.4353 55.7561 82.3137 55.7641 82.1884 55.7725C80.079 55.941 78.4324 56.7539 76.8296 58.1254C76.5163 57.9821 76.28 57.8234 76.0259 57.5918C75.6212 57.2299 75.2108 56.8757 74.7966 56.5247C74.7358 56.4728 74.6749 56.4209 74.6122 56.3675C74.3496 56.145 73.8744 55.7659 73.5877 55.5747C73.5846 55.654 73.5907 55.4955 73.5877 55.5747C73.5987 55.1213 73.7058 54.8309 74.0132 54.512C75.1304 53.4873 76.4216 52.8219 77.9216 52.577Z" fill="#719BBE"/>
<path d="M51.4683 28.624C53.823 29.7632 56.2789 30.5899 58.7829 31.3256C58.7829 31.3969 58.7829 31.4682 58.7829 31.5417C56.2533 31.8789 53.8014 31.9257 51.2589 31.7713C51.1173 31.7629 50.9757 31.7544 50.8297 31.7457C48.9973 31.6212 48.9973 31.6212 48.3615 31.1094C48.2903 31.0537 48.2191 30.998 48.1458 30.9406C47.9374 30.7494 47.8746 30.631 47.8465 30.3496C47.8201 28.9603 47.8201 28.9603 48.1926 28.4079C49.423 27.5911 50.278 28.029 51.4683 28.624Z" fill="#E89800"/>
<path d="M62.3489 75.8478C62.4922 75.8887 62.6356 75.9295 62.779 75.9703C62.8637 75.9944 62.9483 76.0184 63.0355 76.0433C63.2108 76.0932 63.3451 76.1438 63.561 76.1937C63.561 76.1937 64.9486 76.5072 65.0285 76.5299C65.0332 76.6362 65.0598 76.7089 65.0646 76.8184C65.1314 78.2142 65.2578 79.6028 65.3916 80.9936C65.429 81.3828 65.4658 81.7721 65.5026 82.1613C65.5263 82.411 65.5501 82.6607 65.5739 82.9104C65.5848 83.0257 65.5957 83.1409 65.607 83.2597C65.6609 83.8176 65.7251 84.3708 65.8069 84.9252C65.8135 85.1029 65.8164 85.2809 65.8137 85.4588C65.8127 85.5422 65.8117 85.6256 65.8107 85.7116C65.8095 85.773 65.8082 85.8857 65.8069 85.949C65.5322 85.8817 65.2319 85.818 64.9573 85.7502C64.8803 85.7314 65.0367 85.7696 64.9573 85.7502C64.5097 85.6393 63.6583 85.4189 63.4295 85.2494C63.4136 85.1173 63.3751 85.003 63.3588 84.8669C63.3344 84.6671 63.275 84.127 63.2504 83.9272C63.2368 83.8162 63.2645 84.0416 63.2504 83.9272C63.1497 83.1208 63.0567 82.3019 62.9432 81.4971C62.9141 81.2891 62.885 81.0811 62.8559 80.8731C62.8124 80.5622 62.7686 80.2513 62.7238 79.9406C62.5271 78.5758 62.3967 77.2261 62.3489 75.8478Z" fill="#005A9C"/>
<path d="M29.9366 45.5901C30.6 45.9519 31.0935 46.4101 31.3528 47.1283C31.4519 47.5765 31.48 47.9831 31.4765 48.4402C31.4756 48.5674 31.4756 48.5674 31.4747 48.6971C31.4428 50.2682 31.0287 51.7312 30.5507 53.2188C30.4948 53.3992 30.4427 53.5809 30.3936 53.7633C30.1224 54.7582 29.5561 55.4148 28.6939 55.9844C28.5668 56.0491 28.4398 56.1137 28.3089 56.1803C28.2376 56.1446 28.1662 56.109 28.0928 56.0722C28.1396 55.9898 28.1864 55.9073 28.2346 55.8223C28.3927 55.5084 28.4845 55.1965 28.5723 54.8565C28.9514 53.4018 28.9514 53.4018 29.3394 52.9696C29.5545 52.6333 29.5426 52.3834 29.5491 51.9861C29.5516 51.8806 29.5516 51.8806 29.5542 51.773C29.5593 51.5491 29.5623 51.3252 29.5651 51.1013C29.5691 50.8774 29.5735 50.6535 29.5784 50.4296C29.5826 50.2265 29.5857 50.0233 29.5886 49.8202C29.6027 49.5396 29.6381 49.3156 29.7137 49.0481C29.7263 48.8277 29.7326 48.6069 29.734 48.3862C29.7355 48.2723 29.737 48.1583 29.7386 48.0409C29.7436 47.7348 29.7436 47.7348 29.4976 47.5352C29.4714 47.5979 29.4452 47.6606 29.4182 47.7252C29.0994 48.4683 28.7514 49.1988 28.0928 49.6965C27.763 49.7461 27.4502 49.7442 27.1202 49.6965C26.9244 49.5007 26.975 49.2257 26.9648 48.9603C26.9693 48.2449 27.1025 47.6129 27.3025 46.9273C27.3289 46.8339 27.3552 46.7405 27.3824 46.6442C27.5504 46.105 27.6951 45.7831 28.2008 45.482C28.8401 45.2689 29.3323 45.3155 29.9366 45.5901Z" fill="#E79A02"/>
<path d="M25.067 57.1529C25.3191 57.1483 25.5714 57.1485 25.8235 57.1529C25.877 57.2064 25.877 57.2064 25.9316 57.261C25.9211 58.4846 25.7139 59.7163 25.5599 60.928C25.4751 61.5973 25.3919 62.2668 25.3093 62.9364C25.3002 63.0107 25.291 63.085 25.2816 63.1616C24.9454 65.8947 24.6401 68.6315 24.3293 71.3676C24.2674 71.9123 24.2054 72.4569 24.1434 73.0016C24.1257 73.1576 24.1257 73.1576 24.1076 73.3168C23.9627 74.5888 23.8154 75.8603 23.6506 77.1299C23.5674 77.7731 23.5003 78.4171 23.4393 79.0628C23.3655 79.8349 23.2676 80.5967 23.1219 81.3592C22.8698 81.3638 22.6176 81.3636 22.3654 81.3592C22.3298 81.3235 22.2941 81.2879 22.2574 81.2511C22.2609 80.9631 22.272 80.6794 22.2895 80.3921C22.2972 80.2607 22.2972 80.2607 22.3051 80.1267C22.3588 79.2917 22.4596 78.4659 22.5735 77.6372C22.6365 77.1773 22.6967 76.7169 22.7568 76.2566C22.7693 76.1604 22.7819 76.0642 22.7948 75.9651C22.9294 74.9258 23.0429 73.8843 23.1557 72.8424C23.4031 70.5646 23.6777 68.2903 23.9555 66.0161C24.0019 65.6366 24.0482 65.2572 24.0945 64.8778C24.1081 64.7657 24.1081 64.7657 24.1221 64.6514C24.2531 63.5779 24.3811 62.5041 24.5065 61.4299C24.5291 61.2357 24.5291 61.2357 24.5523 61.0375C24.6229 60.4318 24.6931 59.826 24.7629 59.2202C24.7876 59.0076 24.8123 58.7949 24.837 58.5822C24.8479 58.4866 24.8587 58.3909 24.87 58.2923C24.8802 58.2048 24.8904 58.1172 24.9009 58.027C24.9139 57.9138 24.9139 57.9138 24.9272 57.7984C24.96 57.5784 25.0096 57.3677 25.067 57.1529Z" fill="#A06A34"/>
<path d="M65.0285 76.5234C65.7909 76.662 66.5533 76.8402 67.6918 76.9328C67.6918 76.8961 67.6918 76.9685 67.6918 76.9328C67.6809 77.5207 67.6611 79.2277 67.6913 79.8146C67.6961 79.9104 67.7009 80.0062 67.7059 80.1048C67.716 80.3052 67.7261 80.5056 67.7364 80.706C67.8888 83.7048 67.8888 83.7048 67.8616 85.1519C67.8553 85.5047 67.8626 85.8662 67.9752 86.2041C67.4204 86.2223 65.8022 85.9446 65.8022 85.9446C65.7229 85.9292 66.45 86.1064 65.8022 85.9446C65.5588 83.7693 65.3354 81.5462 65.1315 79.3667C65.122 79.2654 65.1124 79.1642 65.1025 79.0598C65.0753 78.7706 65.0484 78.4813 65.0218 78.192C65.0137 78.1063 65.0056 78.0207 64.9973 77.9325C64.957 77.488 65.0202 76.9704 65.0285 76.5234Z" fill="#0979B6"/>
<path d="M85.5828 62.0157C85.646 63.5648 85.5925 64.9281 84.6816 66.2551C84.3106 66.6505 84.0032 66.7886 83.4658 66.806C83.2732 66.805 83.0805 66.8021 82.8879 66.7976C82.7877 66.7964 82.6874 66.7952 82.5841 66.794C81.7801 66.7812 80.9803 66.7378 80.1796 66.6625C80.1974 66.5622 80.2153 66.4619 80.2336 66.3586C80.3571 65.4449 80.3454 64.7088 79.95 63.863C79.8554 63.6367 79.8554 63.6367 79.8554 63.3125C80.8089 62.8758 81.7588 62.593 82.7799 62.3602C82.9201 62.3263 83.0603 62.2923 83.2005 62.2582C84.0081 62.0709 84.7537 61.9663 85.5828 62.0157Z" fill="#E79901"/>
<path d="M27.3363 21.1677C27.3363 21.2033 27.3363 21.239 27.3363 21.2757C27.2659 21.2826 27.1954 21.2894 27.1227 21.2964C26.6362 21.3646 26.2439 21.4288 25.8977 21.7958C24.716 23.4269 24.6324 25.7818 24.3713 27.7123C23.1936 36.419 23.1936 36.419 20.3122 38.674C20.4843 38.1545 20.6586 37.6359 20.8382 37.1189C21.9255 33.9656 22.422 30.7554 22.8611 27.4591C23.4295 23.2379 23.4295 23.2379 24.9657 21.8629C25.7314 21.2963 26.3848 21.0766 27.3363 21.1677Z" fill="#E89B02"/>
<path d="M46.4637 70.6607C46.8112 70.7882 47.0835 70.9188 47.3687 71.1537C47.7805 71.4707 48.2088 71.7481 48.652 72.0183C48.715 72.0575 48.778 72.0968 48.8429 72.1373C50.016 72.8431 51.0202 73.1267 52.3937 73.0989C52.4674 73.0982 52.5412 73.0975 52.6171 73.0968C54.1501 73.0823 55.6444 72.8932 57.1577 72.6553C57.5905 72.5902 58.0234 72.542 58.4588 72.4978C58.5658 73.0862 58.5658 73.0862 58.6749 73.6865C58.0694 73.9239 57.4688 74.1169 56.8378 74.2741C56.7463 74.297 56.6549 74.3198 56.5606 74.3434C55.4045 74.6227 54.2309 74.8054 53.0556 74.9833C52.9196 75.0042 52.7837 75.025 52.6436 75.0466C50.7435 75.2934 49.3905 74.571 47.8829 73.4577C46.6373 72.4782 46.6373 72.4782 46.4637 71.9575C46.4562 71.7347 46.4546 71.5117 46.4569 71.2888C46.4579 71.1714 46.4589 71.054 46.4599 70.933C46.4612 70.8431 46.4624 70.7533 46.4637 70.6607Z" fill="#E69A02"/>
<path d="M69.265 68.4996C69.5146 68.5709 69.7643 68.6422 70.0214 68.7157C70.2056 68.7344 70.3903 68.7485 70.5753 68.7562C71.0635 68.7975 71.2772 68.9204 71.6424 69.256C72.0909 69.4934 72.4272 69.5934 72.9324 69.6275C73.32 69.6544 73.5756 69.7169 73.9117 69.9112C74.4884 70.2291 75.0597 70.2063 75.6906 70.0581C76.1464 69.9157 76.5337 69.7291 76.9375 69.4721C77.0089 69.4721 77.0802 69.4721 77.1537 69.4721C77.4164 70.2306 77.5846 70.9449 77.694 71.7415C77.2119 71.7639 76.7722 71.7201 76.2959 71.6402C73.6602 71.2207 70.9306 71.4082 68.2722 71.4646C68.1173 71.4677 68.1173 71.4677 67.9593 71.471C66.6633 71.4981 65.3713 71.5462 64.0779 71.6334C64.0779 71.4195 64.0779 71.2055 64.0779 70.985C65.6662 70.4966 67.2956 70.531 68.9408 70.5528C69.0478 69.8752 69.1548 69.1977 69.265 68.4996Z" fill="#015395"/>
<path d="M71.4264 41.2675C71.6312 41.4362 71.7921 41.6059 71.9667 41.8078C71.8507 41.8218 71.8507 41.8218 71.7324 41.8361C69.9587 42.0862 68.3382 42.8436 67.1874 44.2469C66.1712 45.6391 65.638 47.0933 65.8071 48.832C65.9629 49.7501 66.3996 50.5712 67.0971 51.1959C67.8117 51.6917 68.3419 51.7665 69.2028 51.7924C70.1159 51.7105 70.1087 51.6883 70.1819 51.6883C69.5961 52.049 69.2632 52.5016 67.7522 52.3981C67.231 52.2559 66.7596 52.1536 66.2731 51.7924C66.2731 51.7924 65.5844 51.3228 65.1329 50.195C64.4088 48.6439 64.6451 46.8581 65.1899 45.2887C65.5002 44.4402 65.8944 43.7086 66.4555 42.9965C66.5245 42.8985 66.5936 42.8004 66.6648 42.6994L67.1253 42.1965C67.1253 42.1965 67.7845 41.6434 67.9671 41.5775C69.2203 41.0514 70.145 40.6039 71.4264 41.2675Z" fill="#E89A02"/>
<path d="M61.8087 44.077C61.9157 44.1305 61.9157 44.1305 62.0248 44.185C59.6506 46.7051 55.3201 49.765 51.7588 50.0205C50.8041 49.6545 50.313 48.7912 49.8947 47.9132C49.608 47.2288 49.4512 46.5508 49.4894 45.806C49.5816 45.923 49.5816 45.923 49.6756 46.0424C50.2226 46.7179 50.8108 47.3619 51.4346 47.9673C51.4814 48.0341 51.5282 48.101 51.5764 48.1699C51.8925 48.3806 52.2667 48.2485 52.6233 48.1834C55.6167 47.4772 58.7879 46.1046 61.3343 44.3748C61.489 44.2703 61.6484 44.1727 61.8087 44.077Z" fill="#F1C412"/>
<path d="M46.7068 43.8543C46.9116 43.8557 46.9116 43.8557 47.1205 43.8572C47.2247 43.8585 47.3289 43.8597 47.4363 43.861C47.1938 44.3027 46.9039 44.6438 46.5582 45.0092C46.1699 45.4254 45.7918 45.8457 45.4303 46.2857C45.3513 46.381 45.2724 46.4763 45.191 46.5744C45.0134 46.8054 44.8598 47.0273 44.7072 47.2735C44.0904 48.2358 44.0904 48.2358 43.5059 48.3841C43.157 48.3859 42.8235 48.3654 42.4779 48.3194C42.1462 48.2791 41.8142 48.2658 41.4805 48.2499C41.124 48.2325 40.7682 48.208 40.4121 48.1836C41.6057 46.2185 43.4669 44.5583 45.7083 43.9058C46.0411 43.8365 46.3677 43.8511 46.7068 43.8543Z" fill="#ABCBE4"/>
<path d="M27.8767 29.5966C28.1675 29.6156 28.4525 29.6634 28.7412 29.7046C28.4659 32.3645 28.1767 35.0225 27.8727 37.6792C27.8189 38.1489 27.7655 38.6187 27.7122 39.0884C27.67 39.4594 27.6277 39.8304 27.5853 40.2013C27.5655 40.3746 27.5458 40.5479 27.5261 40.7212C27.4029 41.8056 27.2687 42.8878 27.1202 43.969C26.835 43.969 26.5497 43.969 26.2557 43.969C26.3158 42.6125 26.4342 41.2716 26.5934 39.9234C26.6167 39.7224 26.64 39.5214 26.6632 39.3204C26.8076 38.0744 26.9562 36.8288 27.1042 35.5831C27.117 35.4758 27.117 35.4758 27.13 35.3663C27.2227 34.5854 27.3158 33.8046 27.4095 33.0238C27.4253 32.8912 27.4412 32.7585 27.4575 32.6219C27.4871 32.3741 27.5169 32.1264 27.5468 31.8786C27.6243 31.229 27.6904 30.5803 27.74 29.928C27.7686 29.7046 27.7686 29.7046 27.8767 29.5966Z" fill="#9A6734"/>
<path d="M40.4513 51.4171C40.8336 51.5734 41.2086 51.7389 41.5805 51.9186C41.6554 51.9542 41.7302 51.9898 41.8074 52.0265C41.9909 52.1138 42.1741 52.2019 42.3572 52.2901C42.2927 52.6391 42.1831 52.8372 41.9532 53.1056C41.8919 53.1783 41.8306 53.251 41.7674 53.326C41.6682 53.4417 41.6682 53.4417 41.567 53.5598C40.9652 54.2739 40.3923 55.0021 39.8429 55.7573C39.4612 56.2776 39.4612 56.2776 39.2233 56.3965C39.1956 56.326 39.1679 56.2555 39.1393 56.1829C38.7699 55.3395 38.3047 54.9646 37.4943 54.5594C37.6954 54.0793 38.0424 53.747 38.3946 53.3721C38.4485 53.3145 38.5025 53.257 38.5581 53.1976C38.6417 53.1086 38.6417 53.1086 38.7269 53.0177C38.9043 52.8248 39.076 52.6279 39.247 52.4294C39.304 52.3644 39.361 52.2994 39.4197 52.2324C39.5303 52.1061 39.6397 51.9786 39.7476 51.8498C40.1221 51.428 40.1221 51.428 40.4513 51.4171Z" fill="#719BBE"/>
<path d="M47.8684 33.0546C47.9519 33.108 48.0355 33.1613 48.1216 33.2163C48.7692 33.6146 49.2629 33.9044 50.0296 33.9191C50.0296 33.9548 50.0296 33.9905 50.0296 34.0272C49.7443 34.0272 49.4591 34.0272 49.1651 34.0272C49.3658 37.3524 49.837 40.6897 50.8941 43.861C50.6802 43.861 50.4662 43.861 50.2458 43.861C49.836 42.92 49.4866 41.9671 49.1719 40.9906C49.1486 40.9188 49.1254 40.8471 49.1015 40.7732C48.3979 38.5867 47.8394 36.3763 47.8616 34.0677C47.8621 33.9695 47.8626 33.8713 47.8631 33.7701C47.8643 33.5316 47.8661 33.2931 47.8684 33.0546Z" fill="#FADB32"/>
<path d="M31.9831 53.3706C33.2999 53.7738 34.6357 54.618 35.3398 55.8291C35.6562 56.4371 35.7371 57.0421 35.7377 57.7177C35.739 57.795 35.7119 57.9441 35.7119 57.9441C35.6685 58.3929 35.6736 58.5332 35.4411 58.8819C35.4411 58.6679 35.4411 58.4539 35.4411 58.2335C35.3843 58.2099 35.3275 58.1864 35.2689 58.1621C34.9105 57.9625 34.6146 57.6977 34.3065 57.4297C34.1839 57.324 34.0612 57.2183 33.9384 57.1127C33.881 57.0632 33.8236 57.0136 33.7645 56.9625C33.6292 56.8497 33.4872 56.745 33.344 56.6425C33.2872 56.5969 33.2304 56.5514 33.1718 56.5045C33.1718 56.4331 33.1718 56.3618 33.1718 56.2883C33.1049 56.2616 33.0381 56.2348 32.9692 56.2073C32.6959 56.0465 32.6619 55.9169 32.5234 55.6399C32.3199 55.5202 32.3199 55.5202 32.0912 55.4238C31.769 55.2121 31.6759 55.1507 31.5508 54.7754C31.6348 54.4365 31.6348 54.4365 31.7602 54.0528C31.8013 53.9253 31.8424 53.7978 31.8847 53.6665C31.9172 53.5689 31.9497 53.4712 31.9831 53.3706Z" fill="#F6C815"/>
<path d="M62.1329 22.1402C61.7507 22.2676 61.6381 22.2178 61.2616 22.0997C60.6821 21.9336 60.1406 21.8455 59.5394 21.816C59.4261 21.8091 59.3129 21.8021 59.1962 21.7949C56.8702 21.7159 55.0683 22.7091 53.3493 24.1896C52.5453 24.9443 51.9067 25.9031 51.4346 26.895C50.8997 26.7346 50.8997 26.7346 50.3539 26.5708C50.8907 24.702 52.8243 23.1632 54.4604 22.2483C56.6857 21.0409 59.9315 20.6368 62.1329 22.1402Z" fill="#F6DF31"/>
<path d="M69.265 68.4996C69.3675 68.533 69.4701 68.5664 69.5757 68.6009C69.9118 68.6999 70.226 68.7348 70.5753 68.7562C71.0636 68.7975 71.2772 68.9204 71.6424 69.256C72.0909 69.4934 72.4272 69.5934 72.9324 69.6275C73.3201 69.6544 73.5756 69.7169 73.9118 69.9112C74.4884 70.2291 75.0597 70.2063 75.6906 70.0581C76.1464 69.9157 76.5337 69.7291 76.9375 69.4721C77.0089 69.4721 77.0802 69.4721 77.1537 69.4721C77.2085 69.6249 77.2624 69.7781 77.3158 69.9314C77.3459 70.0167 77.3759 70.1019 77.4069 70.1898C77.4779 70.4447 77.4779 70.4447 77.4779 70.877C77.4145 70.871 77.3511 70.865 77.2858 70.8589C74.5458 70.6107 71.7982 70.5922 69.0489 70.5528C69.0655 70.3462 69.0823 70.1397 69.0991 69.9331C69.1084 69.8181 69.1178 69.7031 69.1274 69.5845C69.1602 69.2198 69.2075 68.8611 69.265 68.4996Z" fill="#225DD3"/>
<path d="M47.4375 43.8602C47.4008 43.8602 47.4732 43.8602 47.4375 43.8602C47.4375 43.8602 47.3936 44.8516 47.3936 45.219C47.2866 45.2546 47.5038 45.1822 47.3936 45.219C47.3936 45.219 46.5995 46.0794 46.5012 46.2131C46.4446 46.2907 46.3879 46.3683 46.3296 46.4482C46.2691 46.5306 46.2086 46.6129 46.1462 46.6977C45.6035 47.4418 45.0732 48.193 44.5553 48.9547C44.2039 49.4708 44.2039 49.4708 44.0863 49.5884C42.8841 49.7083 41.5689 49.7287 40.5417 49.0223C40.3851 48.886 40.3851 48.886 40.196 48.6158C40.2382 48.3828 40.2382 48.3828 40.304 48.1836C40.4576 48.1946 40.4576 48.1946 40.6143 48.2059C40.9988 48.2315 41.3832 48.2475 41.7683 48.2607C41.934 48.2677 42.0996 48.2773 42.265 48.2895C43.2305 48.361 43.6163 48.5929 44.0458 48.0537C44.4266 47.5755 44.6638 47.2243 44.9508 46.7787C45.105 46.571 45.1944 46.45 45.3058 46.3486C45.3559 46.2903 45.406 46.232 45.4576 46.172C45.5066 46.1159 45.5555 46.0598 45.6059 46.002C45.6863 45.9091 45.6863 45.9091 45.7684 45.8143C45.9275 45.631 46.0874 45.4483 46.2476 45.2658C46.2972 45.2092 46.3468 45.1526 46.3979 45.0943C46.9767 44.4361 47.1941 44.1111 47.4375 43.8602Z" fill="#F2C213"/>
<path d="M64.186 74.2269C65.7218 74.3084 65.7218 74.3084 66.3781 74.3884C67.9622 74.5797 69.5354 74.5759 71.1291 74.5646C71.4004 74.5635 71.6717 74.5626 71.943 74.5617C72.5993 74.5593 73.2555 74.5557 73.9118 74.5511C73.8761 74.8364 73.8351 75.2117 73.7983 75.5056C73.4647 75.5327 73.2847 75.5411 72.94 75.5411C72.7746 75.5427 72.7746 75.5427 72.6059 75.5443C72.486 75.5447 72.3662 75.5452 72.2427 75.5456C72.1176 75.5463 71.9926 75.5469 71.8637 75.5475C71.5972 75.5485 71.3307 75.5492 71.0641 75.5497C70.6662 75.5507 70.2683 75.554 69.8704 75.5575C67.9504 75.5659 66.0781 75.4221 64.186 75.0914C64.186 74.8062 64.186 74.5209 64.186 74.2269Z" fill="#64B9DB"/>
<path d="M65.807 63.9608C66.0257 64.3982 65.9306 64.9071 65.807 65.3656C65.6224 65.5891 65.4237 65.7409 65.1928 65.9156C63.864 67.0114 62.9225 69.1444 62.7534 70.8293C62.7071 71.4571 62.6858 72.0846 62.6731 72.7139C62.0382 72.5113 62.0382 72.5113 61.9167 72.3897C61.7096 69.7747 62.3394 67.7341 63.9699 65.6898C64.0174 65.6271 64.0649 65.5644 64.1138 65.4998C64.5863 64.8962 65.1931 64.4133 65.807 63.9608Z" fill="#959696"/>
<path d="M49.9216 35.2159C50.3139 35.2159 50.7062 35.2159 51.1103 35.2159C51.1157 35.3018 51.1211 35.3877 51.1267 35.4762C51.251 37.4234 51.3856 39.3485 51.7587 41.2675C51.4021 41.3388 51.0455 41.4102 50.6781 41.4836C50.2338 39.3845 49.8645 37.366 49.9216 35.2159Z" fill="#04224A"/>
<path d="M50.8942 52.29C51.0023 52.5061 51.0023 52.5061 50.9098 52.8257C50.8621 52.9646 50.8141 53.1035 50.7659 53.2423C50.534 53.9458 50.3624 54.6487 50.2256 55.3765C50.2089 55.4644 50.1922 55.5522 50.175 55.6426C50.1229 55.9294 50.0757 56.2166 50.0297 56.5045C50.0101 56.6221 49.9906 56.7396 49.9704 56.8608C49.798 57.9971 49.7797 59.1126 49.7866 60.2597C49.7868 60.3563 49.7871 60.453 49.7874 60.5526C49.7939 62.6032 49.8579 64.6592 50.2061 66.6844C50.2528 67.0396 50.2521 67.3853 50.2458 67.7431C49.9509 67.4482 49.9144 67.1247 49.8271 66.73C49.8088 66.6498 49.7905 66.5696 49.7716 66.4869C49.5508 65.5051 49.3489 64.5181 49.1652 63.5286C49.146 63.4255 49.1269 63.3224 49.1071 63.2161C48.5741 59.6367 49.3689 55.6821 50.7861 52.398C50.8218 52.3624 50.8575 52.3267 50.8942 52.29Z" fill="#00213F"/>
<path d="M52.5152 35.2159C52.9431 35.2159 53.3711 35.2159 53.812 35.2159C53.9272 35.5616 53.9618 35.8652 53.9977 36.2278C54.0115 36.3662 54.0253 36.5046 54.0395 36.6472C54.0465 36.7196 54.0535 36.792 54.0608 36.8666C54.0817 37.0819 54.1032 37.2972 54.1248 37.5125C54.2161 38.4393 54.2908 39.3658 54.3523 40.2949C53.9391 40.4487 53.6053 40.537 53.1636 40.5111C52.5408 36.7617 52.5408 36.7617 52.5152 35.2159Z" fill="#06234A"/>
<path d="M78.1264 76.3881C78.376 76.3881 78.6256 76.3881 78.8828 76.3881C78.8176 77.2936 78.7136 78.1878 78.5827 79.0859C78.5549 79.2796 78.5549 79.2796 78.5266 79.4773C78.4678 79.8862 78.4086 80.2951 78.3493 80.7039C78.3099 80.9777 78.2706 81.2514 78.2313 81.5252C78.0577 82.7314 77.8813 83.937 77.6941 85.1413C77.3732 85.2483 77.3732 85.2483 77.0458 85.3574C77.0085 84.4451 77.1248 83.5663 77.2547 82.6651C77.2763 82.5112 77.2979 82.3574 77.3193 82.2035C77.3757 81.8012 77.4329 81.399 77.4903 80.9968C77.5484 80.5889 77.6057 80.1808 77.6631 79.7727C77.7277 79.313 77.7924 78.8534 77.8578 78.3938C77.9527 77.7258 78.0459 77.058 78.1264 76.3881Z" fill="#005294"/>
<path d="M29.9367 45.5901C30.5366 45.9132 31.0276 46.3806 31.3347 46.9949C31.3492 47.2837 31.3394 47.5701 31.3347 47.8594C31.2991 47.8594 31.2634 47.8594 31.2267 47.8594C31.2267 47.6811 31.2267 47.5028 31.2267 47.3191C31.1484 47.2881 31.0701 47.2572 30.9894 47.2254C30.7998 47.1487 30.611 47.0698 30.4238 46.9873C29.8864 46.7555 29.4445 46.5773 28.8493 46.6707C28.2862 47.0089 28.167 47.3931 28.005 47.9945C27.97 48.1152 27.97 48.1152 27.9343 48.2385C27.8774 48.4358 27.8228 48.6338 27.7686 48.832C27.5547 48.832 27.3407 48.832 27.1202 48.832C27.1202 49.0459 27.1202 49.2599 27.1202 49.4803C27.0846 49.4803 27.0489 49.4803 27.0122 49.4803C26.9227 48.5718 27.0487 47.8035 27.3026 46.9341C27.3289 46.8402 27.3553 46.7464 27.3824 46.6497C27.55 46.1083 27.6927 45.7837 28.2009 45.482C28.8402 45.2689 29.3323 45.3155 29.9367 45.5901Z" fill="#F5C914"/>
<path d="M61.8087 30.353C62.2866 30.7849 62.6827 31.2213 62.7205 31.8794C62.7184 32.5306 62.361 32.9345 61.9168 33.3788C61.5249 33.4089 61.2317 33.4064 60.8631 33.264C60.4369 32.8969 60.3181 32.4732 60.2485 31.9267C60.3197 31.3468 60.5303 30.8882 60.9307 30.4611C61.2724 30.3002 61.4339 30.2721 61.8087 30.353Z" fill="#E89800"/>
<path d="M63.7538 38.2417C64.2941 39.2808 64.2941 39.2808 64.2941 39.7546C63.2177 41.2437 60.7816 42.4899 58.999 42.7804C58.892 42.7447 58.785 42.7091 58.6748 42.6723C58.7702 42.6212 58.8656 42.5701 58.964 42.5174C59.8467 42.0349 60.6186 41.5026 61.3764 40.8352C61.4686 40.7574 61.5608 40.6795 61.6558 40.5993C62.466 39.9001 63.117 39.0981 63.7538 38.2417Z" fill="#0575B5"/>
<path d="M28.2008 24.1935C28.3966 24.1906 28.5925 24.1885 28.7884 24.1868C28.8974 24.1855 29.0065 24.1843 29.1189 24.183C29.3895 24.1935 29.3895 24.1935 29.4975 24.3016C29.4815 25.2353 29.3818 26.1699 29.2814 27.0977C29.268 27.2239 29.268 27.2239 29.2542 27.3527C29.1867 27.9491 29.1867 27.9491 29.0653 28.1919C28.673 28.1919 28.2807 28.1919 27.8766 28.1919C27.8565 27.3106 27.9347 26.4595 28.0387 25.5849C28.0541 25.4506 28.0696 25.3163 28.0855 25.1779C28.1234 24.8497 28.1618 24.5216 28.2008 24.1935Z" fill="#9A6734"/>
<path d="M78.6666 67.7432C79.7384 69.0373 79.773 71.3999 79.781 73.0045C79.7816 73.0918 79.7822 73.1791 79.7828 73.269C79.7752 73.8749 79.7828 74.0036 79.7828 74.0036C79.6401 74.0036 79.2458 74.1189 79.0988 74.1189C79.0913 74.0446 79.0837 73.9702 79.0759 73.8936C78.8753 71.9557 78.6472 70.029 78.0182 68.1754C78.2322 68.0328 78.4461 67.8901 78.6666 67.7432Z" fill="#959696"/>
<path d="M37.3863 57.2609C37.8531 57.7277 37.9671 58.2834 37.9772 58.9203C37.9756 59.0417 37.9756 59.0417 37.9739 59.1655C37.973 59.2507 37.9721 59.3359 37.9712 59.4237C37.9323 60.784 37.4698 62.0629 36.4791 63.0229C35.9559 63.4586 35.4248 63.8139 34.7928 64.0689C34.6858 64.0333 34.5788 63.9976 34.4686 63.9609C34.5313 63.9228 34.5939 63.8848 34.6585 63.8456C36.0635 62.9577 36.7971 61.5666 37.1702 59.9625C37.2487 59.6045 37.2959 59.2627 37.3124 58.8967C37.3169 58.8009 37.3215 58.7051 37.3261 58.6064C37.3304 58.5079 37.3346 58.4093 37.339 58.3078C37.3437 58.2071 37.3483 58.1065 37.3532 58.0028C37.3646 57.7555 37.3756 57.5082 37.3863 57.2609Z" fill="#719BBE"/>
<path d="M78.0183 73.7947C78.0521 74.1526 78.0521 74.1526 78.0183 74.5511C76.9664 75.3505 75.1282 75.4163 73.7938 75.5056C73.7938 75.1847 73.8038 74.884 73.8038 74.5533C73.7219 74.5617 73.8832 74.5452 73.8038 74.5533C74.1694 74.5153 74.5799 74.5105 75.4576 74.3683C75.4576 74.3683 77.3699 74.0162 78.0183 73.7947Z" fill="#015396"/>
<path d="M49.5975 28.0837C49.5753 28.1463 49.5532 28.209 49.5304 28.2736C49.5013 28.358 49.4721 28.4424 49.4421 28.5294C49.4133 28.6122 49.3845 28.6949 49.3548 28.7802C49.1773 29.3816 49.1388 29.9873 49.1044 30.6096C49.0998 30.6892 49.0951 30.7687 49.0903 30.8507C49.079 31.045 49.068 31.2393 49.0572 31.4336C48.5745 31.2522 48.1096 31.0513 47.8685 30.5691C47.7969 29.8539 47.6196 29.2055 48.1927 28.4078C48.6432 28.1067 49.0712 27.9082 49.5975 28.0837Z" fill="#F9D834"/>
<path d="M60.7281 72.1738C60.7994 72.1738 60.8707 72.1738 60.9442 72.1738C60.9642 72.2716 60.9642 72.2716 60.9847 72.3714C61.114 72.8832 61.114 72.8832 61.4292 73.292C62.2894 73.747 63.3347 74.0802 64.2901 74.224C64.2544 74.5093 64.2325 74.7891 64.1958 75.083C62.9521 75.0001 61.7671 74.5066 60.7572 73.7657C60.5524 73.4866 60.5848 73.2576 60.593 72.9168C60.5947 72.8006 60.5963 72.6844 60.598 72.5647C60.62 72.2819 60.62 72.2819 60.7281 72.1738Z" fill="#005699"/>
<path d="M25.1683 54.2149C25.267 54.2136 25.3657 54.2122 25.4674 54.2109C26.1508 54.2094 26.7801 54.2921 27.4444 54.4513C27.05 54.8912 26.6764 55.1743 26.0733 55.2388C25.7306 55.2513 25.3897 55.2519 25.0467 55.2482C24.9287 55.2495 24.8106 55.2507 24.689 55.252C24.5759 55.2516 24.4629 55.2512 24.3464 55.2508C24.1922 55.2502 24.1922 55.2502 24.0348 55.2497C23.7297 55.2013 23.6346 55.1219 23.446 54.8835C23.5174 54.8479 23.5887 54.8122 23.6622 54.7755C23.7692 54.8111 23.8761 54.8468 23.9864 54.8835C23.9841 54.7966 23.9819 54.7097 23.9796 54.6201C23.9947 54.0025 24.6868 54.2152 25.1683 54.2149Z" fill="#E69701"/>
<path d="M83.4214 57.1529C84.5632 57.3186 85.3898 57.9207 86.1273 58.7966C86.392 59.1732 86.6134 59.5612 86.8255 59.9693C86.8634 60.0407 86.9013 60.1121 86.9403 60.1856C87.1984 60.711 87.2401 61.1077 87.2037 61.6916C86.9643 61.4522 86.8492 61.2052 86.7052 60.902C85.9415 59.2943 85.0264 58.0983 83.4214 57.261C83.4214 57.2253 83.4214 57.1896 83.4214 57.1529Z" fill="#719BBE"/>
<path d="M25.2831 51.7497C26.0652 51.7036 26.8059 51.8349 27.5524 52.0738C27.5881 52.1452 27.6238 52.2165 27.6605 52.29C27.4988 52.5635 27.4988 52.5635 27.2282 52.8303C26.9053 52.8436 26.6687 52.8301 26.357 52.7763C26.2792 52.7662 26.2014 52.7562 26.1212 52.7459C25.8011 52.6983 25.548 52.6487 25.2814 52.4601C25.175 52.29 25.175 52.29 25.2088 51.9996C25.2333 51.9171 25.2578 51.8346 25.2831 51.7497Z" fill="#E49903"/>
<path d="M69.9135 25.4902C70.3575 25.8051 70.774 26.1212 71.1494 26.5168C71.6233 27.007 72.1805 27.4346 72.8312 27.6515C72.8312 27.7228 72.8312 27.7942 72.8312 27.8676C71.8471 27.8239 71.3736 27.5187 70.7037 26.7938C69.9135 25.9107 69.9135 25.9107 69.9135 25.4902Z" fill="#ABCBE4"/>
<path d="M27.1202 48.832C27.334 48.832 27.5478 48.832 27.7681 48.832C27.8037 48.9389 27.8394 49.0458 27.8761 49.1559C27.8048 49.1559 27.7336 49.1559 27.6601 49.1559C27.6601 49.0846 27.6601 49.0134 27.6601 48.94C27.5889 49.0112 27.5176 49.0825 27.4442 49.1559C27.4442 49.2628 27.4442 49.3697 27.4442 49.4799C27.3729 49.4799 27.3016 49.4799 27.2282 49.4799C27.1926 49.5511 27.1569 49.6224 27.1202 49.6958C26.9657 49.3868 27.0554 49.1631 27.1202 48.832Z" fill="#E29603"/>
<g filter="url(#filter0_i_4_19)">
<path d="M45.18 34.9057C44.7721 28.2422 46.7097 25.1881 47.7296 24.494C50.993 29.0751 58.2676 30.2204 61.497 30.2204L63.0267 33.8645C62.6188 35.9469 63.8766 37.1616 64.5564 37.5086C62.5168 40.4239 62.3469 43.9292 62.5168 45.3174L50.789 50.0027L47.2197 46.3586C47.2197 44.2763 45.8599 37.8557 45.18 34.9057Z" fill="#ABCBE4"/>
</g>
<path d="M48.1371 24.2039C49.6811 26.3711 52.2008 27.7566 54.7817 28.5994C57.3566 29.4403 59.9299 29.7205 61.4975 29.7205H61.8295L61.9584 30.0272L63.4877 33.6707L63.5463 33.8113L63.517 33.9608C63.1626 35.7705 64.2496 36.7906 64.7836 37.0633L65.2953 37.324L64.9662 37.7957C63.0172 40.5817 62.8534 43.9521 63.0131 45.2567L63.06 45.6385L62.7026 45.782L50.9741 50.4666L50.6655 50.5906L50.4321 50.3524L46.8627 46.7088L46.7192 46.5623V46.3582C46.7191 45.3734 46.3906 43.2971 45.9633 41.0506C45.5399 38.8244 45.0316 36.4886 44.6928 35.0184L44.683 34.9774L44.6811 34.9363C44.474 31.5531 44.8602 29.058 45.4448 27.3035C46.0234 25.567 46.8122 24.5141 47.4487 24.0809L47.853 23.8055L48.1371 24.2039Z" stroke="#012444"/>
<path d="M50.713 50.0565C50.2031 47.4536 51.2989 37.925 48.7494 36.8839" stroke="#012444" stroke-width="0.5" stroke-linecap="square" stroke-linejoin="round"/>
<path d="M49.2593 35.8428V37.5087L45.0781 35.416L44.6702 34.3852L49.2593 35.8428Z" fill="#012444"/>
<path d="M49.2594 35.8427V37.5086L61.4971 34.9057L60.9872 33.8645L49.2594 35.8427Z" fill="#012444"/>
<path d="M47.2198 25.0145C47.2198 26.9744 49.2594 34.477 49.2594 35.9468" stroke="#012444" stroke-linecap="round" stroke-linejoin="round"/>
<path d="M56.3878 21.4285L55.8156 21.3445C54.9129 21.2131 52.2042 21.8157 50.2257 26.2595L50.0939 26.5554H49.7697C49.2087 26.5554 48.1862 26.1081 47.3107 24.7673L47.2296 24.6423V24.4939C47.2296 23.3401 47.6764 21.632 48.9874 20.1541C50.31 18.6631 52.4795 17.4428 55.8566 17.2273L56.3878 17.1931V21.4285Z" fill="#F7C615" stroke="#012444"/>
<path d="M63.2327 23.5223C63.271 23.5315 63.3087 23.5453 63.344 23.5633C64.1341 23.9668 65.3213 25.0817 66.2444 26.6678C67.1776 28.2711 67.8716 30.4078 67.6028 32.8777C67.5996 32.9072 67.5936 32.9362 67.5852 32.9647C67.0137 34.9003 66.5917 37.2035 66.6467 39.3973C66.7019 41.5962 67.2348 43.6283 68.512 45.0916C68.6798 45.284 68.6753 45.572 68.5022 45.7596C68.329 45.9471 68.0423 45.974 67.8372 45.8221L66.1418 44.5672C66.0607 44.5071 66 44.4234 65.967 44.3279L64.2874 39.4412C64.2285 39.2699 64.2671 39.0801 64.3879 38.9451L64.7717 38.5164L64.4924 37.9354C64.2924 37.8659 64.0943 37.7435 63.9075 37.5926C63.598 37.3426 63.2557 36.9644 62.8938 36.4305C62.1695 35.362 61.3326 33.6213 60.5081 30.8856C59.6765 28.1264 59.788 26.2845 60.426 25.1063C61.0782 23.9021 62.2136 23.5086 63.1165 23.5086L63.2327 23.5223Z" fill="#ABCBE4" stroke="#012444" stroke-linejoin="round"/>
<g filter="url(#filter1_i_4_19)">
<path d="M55.8881 20.8498C53.0326 20.8498 50.6191 24.3204 49.7692 26.0557C50.5851 28.5545 58.9475 30.7409 61.4971 30.2204C65.0664 28.138 64.5565 26.5762 64.5565 25.5351C64.5565 24.4939 59.4574 20.8498 55.8881 20.8498Z" fill="#ABCBE4"/>
</g>
<path d="M55.8884 20.3498C57.8107 20.3499 60.0738 21.3177 61.82 22.3742C62.7017 22.9077 63.4786 23.4795 64.0417 23.9943C64.3221 24.2507 64.5604 24.5034 64.7331 24.7385C64.8889 24.9505 65.0563 25.2343 65.0563 25.5353C65.0564 25.9569 65.1954 26.7752 64.8278 27.676C64.4511 28.5991 63.5825 29.5827 61.7487 30.6525C61.7018 30.6799 61.6506 30.6992 61.5974 30.7101C60.8706 30.8585 59.7976 30.8075 58.6306 30.6349C57.4475 30.46 56.1119 30.1516 54.8327 29.7473C53.5561 29.3437 52.3169 28.8389 51.3356 28.2658C50.3843 27.7101 49.5593 27.0246 49.2936 26.2111C49.2533 26.0876 49.2629 25.9529 49.32 25.8361C49.7638 24.9299 50.6093 23.5812 51.7204 22.4514C52.8206 21.3326 54.26 20.3498 55.8884 20.3498Z" stroke="#012444" stroke-linejoin="round"/>
</g>
<defs>
<filter id="filter0_i_4_19" x="44.1245" y="23.1165" width="24.9101" height="32.0621" filterUnits="userSpaceOnUse" color-interpolation-filters="sRGB">
<feFlood flood-opacity="0" result="BackgroundImageFix"/>
<feBlend mode="normal" in="SourceGraphic" in2="BackgroundImageFix" result="shape"/>
<feColorMatrix in="SourceAlpha" type="matrix" values="0 0 0 0 0 0 0 0 0 0 0 0 0 0 0 0 0 0 127 0" result="hardAlpha"/>
<feOffset dx="3" dy="4"/>
<feGaussianBlur stdDeviation="2"/>
<feComposite in2="hardAlpha" operator="arithmetic" k2="-1" k3="1"/>
<feColorMatrix type="matrix" values="0 0 0 0 0 0 0 0 0 0 0 0 0 0 0 0 0 0 0.1 0"/>
<feBlend mode="normal" in2="shape" result="effect1_innerShadow_4_19"/>
</filter>
<filter id="filter1_i_4_19" x="48.7692" y="19.8498" width="20.8141" height="15.4478" filterUnits="userSpaceOnUse" color-interpolation-filters="sRGB">
<feFlood flood-opacity="0" result="BackgroundImageFix"/>
<feBlend mode="normal" in="SourceGraphic" in2="BackgroundImageFix" result="shape"/>
<feColorMatrix in="SourceAlpha" type="matrix" values="0 0 0 0 0 0 0 0 0 0 0 0 0 0 0 0 0 0 127 0" result="hardAlpha"/>
<feOffset dx="5" dy="4"/>
<feGaussianBlur stdDeviation="2"/>
<feComposite in2="hardAlpha" operator="arithmetic" k2="-1" k3="1"/>
<feColorMatrix type="matrix" values="0 0 0 0 0 0 0 0 0 0 0 0 0 0 0 0 0 0 0.1 0"/>
<feBlend mode="normal" in2="shape" result="effect1_innerShadow_4_19"/>
</filter>
<clipPath id="clip0_4_19">
<rect width="101" height="100" fill="none"/>
</clipPath>
</defs>
</svg>
